<svg xmlns="http://www.w3.org/2000/svg" width="108.606" height="111.693" viewBox="0 0 108.606 111.693"><defs><style>.a{opacity:0.25;}.b{fill:#b9cfff;stroke:#fff;stroke-width:0.5px;}</style></defs><g class="a" transform="matrix(0.899, 0.438, -0.438, 0.899, 37.764, 0.367)"><path class="b" d="M17.112,5.283a1.249,1.249,0,1,0-2.279,1.024A6.442,6.442,0,1,1,11.5,3.022,1.249,1.249,0,1,0,12.486.727a8.943,8.943,0,1,0,4.626,4.556Zm0,0" transform="translate(29.97 35.799)"/><path class="b" d="M75.336,59.065c0-4.269-2.086-9.068-6.093-14,.4-.487.776-.973,1.135-1.458,5.162-6.973,6.331-13.377,3.383-18.519S64.7,17.717,56.071,18.649q-.984.106-2.006.27c-2.239-5.874-5.293-10.075-8.917-12.261.009-.137.015-.275.015-.413a6.245,6.245,0,1,0-12.49,0c0,.138.006.276.015.412-3.624,2.186-6.678,6.388-8.917,12.261-.68-.107-1.35-.2-2.006-.269-8.626-.931-14.743,1.294-17.691,6.435S2.3,36.63,7.456,43.6c.359.486.739.971,1.135,1.458C4.719,49.831,2.634,54.48,2.5,58.64A6.245,6.245,0,0,0,.18,60.885a1.249,1.249,0,0,0,2.139,1.292,3.747,3.747,0,1,1,.2,4.162A1.249,1.249,0,1,0,.51,67.827a6.276,6.276,0,0,0,5.019,2.528,6.207,6.207,0,0,0,3.1-.828,19.293,19.293,0,0,0,9.525,2.15,36.186,36.186,0,0,0,5.616-.471c.244.644.5,1.271.764,1.875,3.482,7.947,8.456,12.146,14.383,12.146s10.9-4.2,14.383-12.146q.4-.9.761-1.867a36.389,36.389,0,0,0,5.6.465,19.718,19.718,0,0,0,9.183-1.955,6.241,6.241,0,1,0,6.491-10.659Zm-19-37.932c5.274-.57,12.2-.131,15.255,5.195s-.068,11.525-3.224,15.79c-.25.339-.512.678-.782,1.018a67.377,67.377,0,0,0-10.014-8.881A67.71,67.71,0,0,0,54.9,21.316Q55.632,21.21,56.339,21.133Zm-9.091,38.46c-2.821,1.618-5.609,3.039-8.327,4.259-2.723-1.22-5.514-2.642-8.335-4.259A94.149,94.149,0,0,1,22.631,54.5a94.116,94.116,0,0,1-.462-9.436c0-3.286.157-6.444.457-9.437,2.449-1.75,5.11-3.459,7.961-5.093,2.8-1.6,5.588-3.026,8.331-4.255,2.743,1.229,5.535,2.652,8.331,4.255,2.853,1.635,5.514,3.341,7.96,5.088.3,2.994.458,6.154.458,9.441A94.314,94.314,0,0,1,55.2,54.5,94.375,94.375,0,0,1,47.248,59.592Zm7.552-1.77A62.249,62.249,0,0,1,52.42,68.365a62.052,62.052,0,0,1-10.4-3.2c2.141-1.026,4.3-2.163,6.471-3.405Q51.793,59.867,54.8,57.822ZM35.815,65.17a61.845,61.845,0,0,1-10.4,3.205,62.223,62.223,0,0,1-2.383-10.552q3,2.036,6.309,3.937Q32.619,63.638,35.815,65.17ZM19.947,52.494a61.978,61.978,0,0,1-8.074-7.434,61.613,61.613,0,0,1,8.07-7.435c-.181,2.408-.273,4.893-.273,7.437S19.765,50.085,19.947,52.494ZM23.026,32.3a61.818,61.818,0,0,1,2.382-10.547,62.324,62.324,0,0,1,10.406,3.208c-2.144,1.026-4.308,2.161-6.471,3.4Q26.033,30.264,23.026,32.3ZM42.02,24.964a62.35,62.35,0,0,1,10.406-3.207A61.863,61.863,0,0,1,54.808,32.3q-3-2.032-6.317-3.937C46.328,27.125,44.164,25.99,42.02,24.964ZM57.891,37.62a61.426,61.426,0,0,1,8.079,7.433,61.9,61.9,0,0,1-8.082,7.442c.183-2.41.278-4.894.278-7.432S58.072,40.029,57.891,37.62ZM33.406,9.166A6.259,6.259,0,0,0,36.7,12.083a1.235,1.235,0,0,0,.443.082,1.25,1.25,0,0,0,.444-2.418,3.747,3.747,0,1,1,5.077-3.5,3.7,3.7,0,0,1-.8,2.32,1.249,1.249,0,1,0,1.96,1.55,6.221,6.221,0,0,0,.614-.945c2.856,1.964,5.28,5.5,7.137,10.214A68.417,68.417,0,0,0,38.917,23.55a68.384,68.384,0,0,0-12.654-4.167C28.121,14.669,30.547,11.131,33.406,9.166ZM6.241,26.327C9.294,21,16.222,20.563,21.5,21.133q.707.076,1.434.183a67.76,67.76,0,0,0-2.67,12.938,67.481,67.481,0,0,0-10.013,8.881q-.406-.51-.783-1.018C6.309,37.853,3.188,31.652,6.241,26.327ZM10.6,67.741a6.239,6.239,0,0,0-5.076-9.875c-.158,0-.315.007-.47.019.347-3.353,2.161-7.081,5.19-10.9a68.015,68.015,0,0,0,10.018,8.881,68.34,68.34,0,0,0,2.668,12.946C17.966,69.54,13.723,69.209,10.6,67.741Zm40.407,4.338c-2.13,4.859-5.956,10.65-12.094,10.65s-9.965-5.792-12.094-10.65q-.285-.652-.555-1.336a67.832,67.832,0,0,0,12.641-4.158,67.081,67.081,0,0,0,12.654,4.166Q51.3,71.432,51.012,72.079ZM54.9,68.8a68.323,68.323,0,0,0,2.665-12.936,67.955,67.955,0,0,0,10.026-8.889c3.139,3.956,4.968,7.817,5.214,11.27-.2-.02-.4-.03-.606-.03a6.24,6.24,0,0,0-5.236,9.641C63.879,69.221,59.732,69.51,54.9,68.8Zm17.3-.594a3.746,3.746,0,1,1,3.746-3.746A3.75,3.75,0,0,1,72.2,68.209Zm0,0" transform="translate(0 0)"/></g></svg>