<svg xmlns="http://www.w3.org/2000/svg" width="21.686" height="21.734" viewBox="0 0 21.686 21.734"><defs><style>.a{fill:#fff;}</style></defs><g transform="translate(-3 -2.998)"><path class="a" d="M3,19.645v3.614a.675.675,0,0,0,.687.687H7.3a1.373,1.373,0,0,0,.964-.4l11.6-11.7a.687.687,0,0,0,0-.964L16,7.033a.687.687,0,0,0-.952,0L3.4,18.681A1.373,1.373,0,0,0,3,19.645Z" transform="translate(0 0.786)"/><path class="a" d="M21.768,6.289,18.876,3.4a1.361,1.361,0,0,0-1.927,0L15.5,4.843a.687.687,0,0,0,0,.964l3.855,3.855a.687.687,0,0,0,.964,0l1.446-1.446a1.361,1.361,0,0,0,0-1.927Z" transform="translate(2.518)"/></g></svg>