<svg xmlns="http://www.w3.org/2000/svg" width="18.314" height="18.314" viewBox="0 0 18.314 18.314"><defs><style>.a{fill:#9bbdff;stroke:#9bbdff;}</style></defs><path class="a" d="M17.314,8.657a.967.967,0,0,1-.267.685l-2.33,2.323a.476.476,0,0,1-.815-.339V9.609H8.166a.952.952,0,0,1,0-1.9h5.706V5.995a.476.476,0,0,1,.815-.346l2.33,2.33a.974.974,0,0,1,.3.678Zm-5.577,4.819a.765.765,0,0,0-.772.765v1.544H1.537V1.537h9.429V3.08a.772.772,0,0,0,1.537,0V.959A.959.959,0,0,0,11.543,0H.959A.967.967,0,0,0,0,.959v15.4a.967.967,0,0,0,.959.959H11.543a.959.959,0,0,0,.959-.959V14.234a.757.757,0,0,0-.765-.765Z" transform="translate(0.5 0.5)"/></svg>