<svg xmlns="http://www.w3.org/2000/svg" width="54.069" height="49.823" viewBox="0 0 54.069 49.823"><defs><style>.a{fill:#fff;}</style></defs><g transform="matrix(0.914, 0.407, -0.407, 0.914, 17.965, 0)"><path class="a" d="M326.867,176.228a1.294,1.294,0,0,0-1.8.327l-2.818,4.071-2.818-4.071a1.294,1.294,0,1,0-2.128,1.473l3.372,4.871L317.3,187.77a1.294,1.294,0,1,0,2.128,1.473l2.818-4.071,2.818,4.071a1.294,1.294,0,0,0,2.128-1.473l-3.372-4.871,3.372-4.871A1.294,1.294,0,0,0,326.867,176.228Z" transform="translate(-289.72 -160.815)"/><path class="a" d="M247.085,123.034a1.294,1.294,0,0,0-2.12-1.485,17.455,17.455,0,0,0-2.394,6.183,25.222,25.222,0,0,0,2.281,15.814,1.294,1.294,0,1,0,2.343-1.1,22.644,22.644,0,0,1-2.113-14.075,15.341,15.341,0,0,1,2-5.339Z" transform="translate(-221.259 -110.561)"/><path class="a" d="M456.816,127.733a17.453,17.453,0,0,0-2.394-6.183,1.294,1.294,0,0,0-2.117,1.489c.054.077,5.328,7.8-.113,19.41a1.294,1.294,0,1,0,2.343,1.1A25.223,25.223,0,0,0,456.816,127.733Z" transform="translate(-413.071 -110.562)"/><path class="a" d="M16.822,20.79H13.111L14.559,9.158A7.507,7.507,0,0,1,22,2.588,1.294,1.294,0,1,0,22,0,10.1,10.1,0,0,0,11.991,8.839L10.5,20.79H6.47a1.294,1.294,0,1,0,0,2.588h3.711L8.733,35.01a7.507,7.507,0,0,1-7.439,6.57,1.294,1.294,0,1,0,0,2.588A10.1,10.1,0,0,0,11.3,35.33l1.488-11.952h4.033a1.294,1.294,0,0,0,0-2.588Z"/></g></svg>