<svg xmlns="http://www.w3.org/2000/svg" xmlns:xlink="http://www.w3.org/1999/xlink" width="137.823" height="177.906" viewBox="0 0 137.823 177.906"><defs><style>.a{fill:#ad3131;}.b{fill:#fff;}.c{fill:url(#c);}.d{fill:#252e48;}.e{fill:url(#d);}.f{fill:#252d48;}.g{fill:none;stroke:#252d48;}.h{fill:#f5fafe;}.i{fill:#2b3453;}.j{filter:url(#h);}.k{filter:url(#e);}.l{filter:url(#a);}</style><filter id="a" x="0" y="0" width="137.823" height="177.906" filterUnits="userSpaceOnUse"><feOffset dy="2" input="SourceAlpha"/><feGaussianBlur stdDeviation="6" result="b"/><feFlood flood-color="#6290f8" flood-opacity="0.4"/><feComposite operator="in" in2="b"/><feComposite in="SourceGraphic"/></filter><linearGradient id="c" x1="0.5" x2="0.5" y2="1" gradientUnits="objectBoundingBox"><stop offset="0" stop-color="#eef5ff"/><stop offset="1" stop-color="#cfe1ff"/></linearGradient><linearGradient id="d" x1="0.5" x2="0.5" y2="1" gradientUnits="objectBoundingBox"><stop offset="0" stop-color="#e89e01"/><stop offset="1" stop-color="#f47c6a"/></linearGradient><filter id="e" x="1.161" y="81.746" width="135.206" height="49.872" filterUnits="userSpaceOnUse"><feOffset dy="3" input="SourceAlpha"/><feGaussianBlur stdDeviation="3" result="f"/><feFlood flood-color="#2352e0" flood-opacity="0.149"/><feComposite operator="in" in2="f"/><feComposite in="SourceGraphic"/></filter><filter id="h" x="43.314" y="14.917" width="51.772" height="50.898" filterUnits="userSpaceOnUse"><feOffset dy="3" input="SourceAlpha"/><feGaussianBlur stdDeviation="3" result="i"/><feFlood flood-color="#2352e0" flood-opacity="0.149"/><feComposite operator="in" in2="i"/><feComposite in="SourceGraphic"/></filter></defs><g transform="translate(10.161 15.743)"><g transform="translate(0 0)"><g transform="translate(0 0)"><path class="a" d="M2629.084-4203.813,2621-4197.6v-12.315Z" transform="translate(-2511.963 4307.609)"/><path class="a" d="M2621-4203.813l8.084,6.211v-12.315Z" transform="translate(-2620.475 4307.609)"/><g transform="translate(7.582)"><g class="l" transform="matrix(1, 0, 0, 1, -17.74, -15.74)"><path class="b" d="M51.167,142.156a5.96,5.96,0,0,1-3-.853l0,0,0,0L.25,116.284V.25H102.073V116.284L54.162,141.3l0,0,0,0A5.938,5.938,0,0,1,51.167,142.156Z" transform="translate(17.75 15.75)"/></g><path class="b" d="M51.174,141.906a5.685,5.685,0,0,0,2.857-.819l.019-.011,47.772-24.941V.514H.514V116.136l47.772,24.941.019.01a5.707,5.707,0,0,0,2.869.819m0,.514a6.26,6.26,0,0,1-3.126-.887L0,116.447V0H102.337V116.447L54.288,141.532A6.159,6.159,0,0,1,51.174,142.42Z" transform="translate(0 0)"/></g><path class="c" d="M43.09,129.262,0,107.276V3.084A3.084,3.084,0,0,1,3.084,0H88.692a3.084,3.084,0,0,1,3.084,3.084V107.276L48.686,129.262a5.552,5.552,0,0,1-2.792.791A5.643,5.643,0,0,1,43.09,129.262Z" transform="translate(13.366 5.293)"/><path class="d" d="M-27.819-7.636h-3.625V-9.774h9.87v2.137H-25.2V1.555h-2.622ZM-14.84,1.75A6.612,6.612,0,0,1-18.02.989a5.645,5.645,0,0,1-2.218-2.1,5.721,5.721,0,0,1-.8-3,5.721,5.721,0,0,1,.8-3,5.645,5.645,0,0,1,2.217-2.1,6.612,6.612,0,0,1,3.18-.761,6.565,6.565,0,0,1,3.172.761,5.718,5.718,0,0,1,2.218,2.1,5.677,5.677,0,0,1,.809,3,5.677,5.677,0,0,1-.809,3,5.718,5.718,0,0,1-2.218,2.1,6.565,6.565,0,0,1-3.172.761Zm0-2.233a3.6,3.6,0,0,0,1.813-.462,3.31,3.31,0,0,0,1.266-1.287A3.782,3.782,0,0,0-11.3-4.11a3.782,3.782,0,0,0-.462-1.881,3.31,3.31,0,0,0-1.271-1.286,3.6,3.6,0,0,0-1.808-.462,3.6,3.6,0,0,0-1.813.462,3.31,3.31,0,0,0-1.27,1.286,3.781,3.781,0,0,0-.462,1.877,3.781,3.781,0,0,0,.462,1.877A3.31,3.31,0,0,0-16.652-.95a3.6,3.6,0,0,0,1.812.466Zm13.075-9.29a6.293,6.293,0,0,1,2.613.5A3.883,3.883,0,0,1,2.556-7.848a3.923,3.923,0,0,1,.6,2.185,3.934,3.934,0,0,1-.6,2.177A3.813,3.813,0,0,1,.849-2.063a6.383,6.383,0,0,1-2.613.493H-4.051V1.554H-6.672V-9.774Zm-.146,6.066a2.753,2.753,0,0,0,1.8-.514A1.776,1.776,0,0,0,.5-5.67,1.794,1.794,0,0,0-.115-7.134a2.753,2.753,0,0,0-1.8-.514h-2.14v3.933ZM13.414-9.774V1.554H10.793V-7.67H8.531v-2.1Zm6.83,11.522a4.593,4.593,0,0,1-2.509-.7A4.67,4.67,0,0,1,16.012-.963a7.313,7.313,0,0,1-.623-3.147,7.313,7.313,0,0,1,.623-3.147,4.67,4.67,0,0,1,1.723-2.015,4.593,4.593,0,0,1,2.509-.7,4.593,4.593,0,0,1,2.509.7,4.67,4.67,0,0,1,1.723,2.015A7.313,7.313,0,0,1,25.1-4.11a7.313,7.313,0,0,1-.623,3.147,4.67,4.67,0,0,1-1.723,2.015A4.593,4.593,0,0,1,20.244,1.749Zm0-2.217a1.851,1.851,0,0,0,1.626-.89,5.059,5.059,0,0,0,.591-2.751,5.059,5.059,0,0,0-.591-2.751,1.851,1.851,0,0,0-1.626-.89,1.838,1.838,0,0,0-1.61.89,5.059,5.059,0,0,0-.591,2.751,5.059,5.059,0,0,0,.591,2.751,1.838,1.838,0,0,0,1.61.889ZM31.232,1.749a4.593,4.593,0,0,1-2.509-.7A4.67,4.67,0,0,1,27-.963a7.313,7.313,0,0,1-.617-3.147A7.313,7.313,0,0,1,27-7.258a4.67,4.67,0,0,1,1.723-2.015,4.593,4.593,0,0,1,2.509-.7,4.593,4.593,0,0,1,2.509.7,4.67,4.67,0,0,1,1.723,2.015,7.313,7.313,0,0,1,.625,3.148,7.313,7.313,0,0,1-.623,3.147A4.67,4.67,0,0,1,33.74,1.052a4.593,4.593,0,0,1-2.508.7Zm0-2.217a1.851,1.851,0,0,0,1.626-.89A5.059,5.059,0,0,0,33.45-4.11a5.059,5.059,0,0,0-.591-2.751,1.851,1.851,0,0,0-1.626-.89,1.838,1.838,0,0,0-1.61.89,5.059,5.059,0,0,0-.591,2.751,5.059,5.059,0,0,0,.591,2.751,1.838,1.838,0,0,0,1.61.889Z" transform="translate(55.901 65.363)"/><g class="k" transform="matrix(1, 0, 0, 1, -10.16, -15.74)"><path class="e" d="M2.056,0H115.15a2.056,2.056,0,0,1,2.056,2.056V31.872H0V2.056A2.056,2.056,0,0,1,2.056,0Z" transform="translate(10.16 87.75)"/></g><path class="f" d="M-5.706-1.193V.157h-5.406V-.916l2.759-2.606a2.93,2.93,0,0,0,.593-.72,1.311,1.311,0,0,0,.152-.6A.791.791,0,0,0-7.9-5.5a1.355,1.355,0,0,0-.853-.23,1.96,1.96,0,0,0-.848.179,1.624,1.624,0,0,0-.633.537l-1.206-.776a2.829,2.829,0,0,1,1.155-.976A3.857,3.857,0,0,1-8.6-7.119a3.467,3.467,0,0,1,1.4.26,2.15,2.15,0,0,1,.925.736A1.9,1.9,0,0,1-5.951-5a2.494,2.494,0,0,1-.236,1.092,4.209,4.209,0,0,1-.95,1.165L-8.782-1.194ZM-1.976.28A2.9,2.9,0,0,1-3.56-.161,2.949,2.949,0,0,1-4.649-1.432,4.618,4.618,0,0,1-5.043-3.42a4.618,4.618,0,0,1,.394-1.987A2.949,2.949,0,0,1-3.56-6.681,2.9,2.9,0,0,1-1.976-7.12a2.9,2.9,0,0,1,1.584.439A2.949,2.949,0,0,1,.7-5.408,4.618,4.618,0,0,1,1.09-3.421,4.618,4.618,0,0,1,.7-1.432,2.949,2.949,0,0,1-.392-.161,2.9,2.9,0,0,1-1.976.28Zm0-1.4A1.17,1.17,0,0,0-.948-1.683,3.2,3.2,0,0,0-.575-3.421,3.2,3.2,0,0,0-.948-5.158a1.17,1.17,0,0,0-1.028-.562,1.161,1.161,0,0,0-1.017.562,3.2,3.2,0,0,0-.373,1.738,3.2,3.2,0,0,0,.373,1.738,1.161,1.161,0,0,0,1.017.562ZM4.595-7V.157H2.939V-5.668H1.508V-7ZM8.356-7.12a3.047,3.047,0,0,1,2.35.915,3.732,3.732,0,0,1,.848,2.632A4.443,4.443,0,0,1,11.1-1.488,3.093,3.093,0,0,1,9.818-.171,3.941,3.941,0,0,1,7.906.28,4.578,4.578,0,0,1,6.812.152a2.944,2.944,0,0,1-.888-.363l.617-1.216a2.317,2.317,0,0,0,1.337.358,1.937,1.937,0,0,0,1.439-.537A2.244,2.244,0,0,0,9.89-3.154a2.4,2.4,0,0,1-1.779.644,2.791,2.791,0,0,1-1.247-.276,2.179,2.179,0,0,1-.889-.781,2.108,2.108,0,0,1-.327-1.167,2.229,2.229,0,0,1,.358-1.257,2.334,2.334,0,0,1,.976-.833A3.187,3.187,0,0,1,8.356-7.12Zm.122,3.372a1.288,1.288,0,0,0,.884-.3A.982.982,0,0,0,9.7-4.82a.98.98,0,0,0-.335-.767,1.325,1.325,0,0,0-.915-.3,1.276,1.276,0,0,0-.864.286.973.973,0,0,0-.332.776.988.988,0,0,0,.332.781,1.292,1.292,0,0,0,.888.292Z" transform="translate(59.162 116.823)"/><g transform="translate(32.9 113.999)"><line class="g" x2="7.689" transform="translate(45.237)"/><line class="g" x2="7.689" transform="translate(0)"/></g><g class="j" transform="matrix(1, 0, 0, 1, -10.16, -15.74)"><path class="e" d="M15.813,32.711,0,24.709l.081-.052V0H33.772V24.747H33.6L17.866,32.711a2.936,2.936,0,0,1-1.028.187,2.967,2.967,0,0,1-1.025-.187Z" transform="translate(52.31 20.92)"/></g><g transform="translate(50.375 13.398)"><g transform="translate(0 0)"><path class="b" d="M287.174,124a8.805,8.805,0,0,1-5.182-1.679,8.078,8.078,0,0,1-3.07-4.368,9.294,9.294,0,0,1-.308-1.472,7.841,7.841,0,0,1-.057-1.278,7.64,7.64,0,0,1,1.068-3.615,9.047,9.047,0,0,1,2.163-2.535,8.232,8.232,0,0,1,2.918-1.476,9.1,9.1,0,0,1,1.542-.3,7.727,7.727,0,0,1,1.431-.027c.33.027.659.078.988.121.1.013.118.042.072.139l-1.56,3.2a.183.183,0,0,1-.177.11,4.87,4.87,0,0,0-3.156,1.242,4.692,4.692,0,0,0-1.518,2.616,4.466,4.466,0,0,0-.077,1.327,4.707,4.707,0,0,0,1.474,3.061,4.778,4.778,0,0,0,1.984,1.131,5.072,5.072,0,0,0,1.7.22,4.611,4.611,0,0,0,1.711-.422,5.809,5.809,0,0,0,1.065-.637l.074-.052a.064.064,0,0,1,.1.019c.013.02.026.038.037.059l1.692,2.873c.074.125.07.145-.052.228a8.6,8.6,0,0,1-2.982,1.3,8.079,8.079,0,0,1-1.282.186Z" transform="translate(-278.552 -107.225)"/><path class="b" d="M570.739,369.029a.73.73,0,0,1-.053-.069q-.986-1.679-1.971-3.359a.28.28,0,0,0-.263-.148h-4.034a.543.543,0,0,1,.032-.091l1.7-2.885c.1-.165.194-.33.29-.5a.206.206,0,0,1,.206-.112h3.966a.211.211,0,0,1,.206.112q.993,1.687,1.988,3.372a.205.205,0,0,1-.014.23q-.711,1.2-1.421,2.407l-.572.972A.33.33,0,0,0,570.739,369.029Z" transform="translate(-556.174 -354.68)"/><path class="b" d="M662.267,130.2l-.683-.667a.1.1,0,0,1-.005-.132,2.056,2.056,0,0,1,1.247-.963,2.27,2.27,0,0,1,2.044.342,1.316,1.316,0,0,1,.548,1.075,1.482,1.482,0,0,1-.4,1.11,2.859,2.859,0,0,1-.745.546c-.319.17-.641.333-.955.514a.926.926,0,0,0-.444.539c-.034.1-.009.14.1.14h2.313c.075,0,.1.028.1.1v.84c0,.059-.033.081-.086.086h-3.656c-.091,0-.112-.014-.113-.084a3.487,3.487,0,0,1,.221-1.342,2.433,2.433,0,0,1,.867-1.051,7.04,7.04,0,0,1,1-.563,2.3,2.3,0,0,0,.422-.27.567.567,0,0,0-.266-1.028,1.29,1.29,0,0,0-1.378.6C662.354,130.047,662.314,130.12,662.267,130.2Z" transform="translate(-650.496 -127.732)"/></g></g><path class="h" d="M5.3,2.842,5.8,4.06l1.319.1a.538.538,0,0,1,.467.366.52.52,0,0,1-.166.562l-1.01.844L6.73,7.2a.526.526,0,0,1-.2.562.54.54,0,0,1-.6.023L4.8,7.1l-1.131.678a.543.543,0,0,1-.593-.02.532.532,0,0,1-.206-.562L3.187,5.92l-1.01-.844A.523.523,0,0,1,2,4.514a.532.532,0,0,1,.489-.363l1.319-.09.5-1.212a.535.535,0,0,1,.987,0Z" transform="translate(9.131 82.751)"/><path class="h" d="M5.3,2.842,5.8,4.06l1.319.1a.538.538,0,0,1,.467.366.52.52,0,0,1-.166.562l-1.01.844L6.73,7.2a.526.526,0,0,1-.2.562.54.54,0,0,1-.6.023L4.8,7.1l-1.131.678a.543.543,0,0,1-.593-.02.532.532,0,0,1-.206-.562L3.187,5.92l-1.01-.844A.523.523,0,0,1,2,4.514a.532.532,0,0,1,.489-.363l1.319-.09.5-1.212a.535.535,0,0,1,.987,0Z" transform="translate(98.234 82.751)"/><path class="d" d="M5.3,2.842,5.8,4.06l1.319.1a.538.538,0,0,1,.467.366.52.52,0,0,1-.166.562l-1.01.844L6.73,7.2a.526.526,0,0,1-.2.562.54.54,0,0,1-.6.023L4.8,7.1l-1.131.678a.543.543,0,0,1-.593-.02.532.532,0,0,1-.206-.562L3.187,5.92l-1.01-.844A.523.523,0,0,1,2,4.514a.532.532,0,0,1,.489-.363l1.319-.09.5-1.212a.535.535,0,0,1,.987,0Z" transform="translate(54.124 122.716)"/><path class="i" d="M5.084.16H6.2L3.6-5.6H2.551L-.04.16h1.1L1.63-1.177H4.508ZM1.992-2.012,3.069-4.528,4.155-2.012ZM13.235.16,13.227-5.6h-.88L10.1-1.781,7.815-5.6h-.88V.16h1.02V-3.607L9.846-.5h.477l1.892-3.158L12.223.16Zm4.244.082a2.944,2.944,0,0,0,2.19-.81,2.944,2.944,0,0,0,.911-2.151,2.944,2.944,0,0,0-.911-2.151,2.944,2.944,0,0,0-2.19-.81,2.949,2.949,0,0,0-2.189.812,2.949,2.949,0,0,0-.912,2.149A2.949,2.949,0,0,0,15.291-.57a2.949,2.949,0,0,0,2.189.812Zm0-.938a1.962,1.962,0,0,1-1.45-.574,1.962,1.962,0,0,1-.574-1.45,1.962,1.962,0,0,1,.574-1.45,1.962,1.962,0,0,1,1.45-.574,1.962,1.962,0,0,1,1.45.574,1.962,1.962,0,0,1,.574,1.45,1.962,1.962,0,0,1-.574,1.45,1.962,1.962,0,0,1-1.45.574ZM25.77-5.6v3.9L22.6-5.6h-.88V.16h1.061v-3.9L25.951.16h.884V-5.6ZM32.309-.992a2.326,2.326,0,0,1-1.184.3,1.981,1.981,0,0,1-1.481-.558,1.981,1.981,0,0,1-.6-1.465,1.97,1.97,0,0,1,.6-1.472,1.97,1.97,0,0,1,1.491-.551,2.136,2.136,0,0,1,1.587.658l.674-.658a2.974,2.974,0,0,0-2.311-.938,2.944,2.944,0,0,0-2.2.8,2.944,2.944,0,0,0-.916,2.157,2.938,2.938,0,0,0,.909,2.152,2.938,2.938,0,0,0,2.192.809A3.646,3.646,0,0,0,33.321-.49V-2.785H32.309Z" transform="translate(42.152 48.196)"/><line class="g" x2="7.689" transform="translate(84.328 45.115)"/><line class="g" x2="7.689" transform="translate(24.697 45.115)"/><g transform="translate(24.675 79.194)"><path class="b" d="M-20.768,2.381c2.056,0,3.029-1.028,3.029-2.226,0-2.75-4.441-1.713-4.441-3.307,0-.568.471-1.017,1.626-1.017a4.163,4.163,0,0,1,2.066.589l.439-1.081a4.737,4.737,0,0,0-2.493-.663c-2.056,0-3.018,1.028-3.018,2.237,0,2.782,4.452,1.723,4.452,3.339,0,.556-.492.974-1.658.974A4.151,4.151,0,0,1-23.235.4l-.487,1.083a4.832,4.832,0,0,0,2.954.894Zm8.572,0a3.83,3.83,0,0,0,2.85-1.055,3.83,3.83,0,0,0,1.184-2.8,3.83,3.83,0,0,0-1.185-2.8A3.83,3.83,0,0,0-12.2-5.325a3.836,3.836,0,0,0-2.848,1.057,3.836,3.836,0,0,0-1.187,2.8,3.836,3.836,0,0,0,1.186,2.8A3.836,3.836,0,0,0-12.2,2.381Zm0-1.22A2.553,2.553,0,0,1-14.082.414a2.553,2.553,0,0,1-.746-1.887,2.553,2.553,0,0,1,.746-1.887A2.553,2.553,0,0,1-12.2-4.105a2.553,2.553,0,0,1,1.886.747,2.553,2.553,0,0,1,.746,1.886A2.553,2.553,0,0,1-10.31.414a2.553,2.553,0,0,1-1.887.746ZM-.552-4.051V-5.218H-6.021V2.274H-4.63V-.594h3.617V-1.772H-4.63V-4.051ZM3.032,2.274H4.424V-4.041H6.907V-5.218H.55v1.177H3.032Zm15.1-7.492L16.219.508,14.324-5.218H13.04L11.1.476,9.241-5.218H7.8l2.483,7.492h1.493L13.654-3.27l1.851,5.544h1.477l2.479-7.492Zm8.5,7.492h1.456L24.7-5.218H23.335L19.964,2.274H21.4L22.136.54h3.745ZM22.607-.551l1.4-3.276L25.422-.551ZM36.1,2.274,34.38-.187a2.4,2.4,0,0,0,1.595-2.365c0-1.658-1.22-2.665-3.187-2.665H29.7V2.274h1.391V.09h1.691a2.608,2.608,0,0,0,.289-.01l1.531,2.194Zm-1.53-4.827c0,.942-.631,1.5-1.851,1.5H31.094V-4.037h1.626C33.941-4.041,34.573-3.495,34.573-2.553Zm5.009,3.66V-.958H43.2V-2.1H39.582V-4.051h4.078V-5.218H38.194V2.274h5.619V1.107Z" transform="translate(23.722 5.33)"/><path class="b" d="M-21.683,1.842A3.537,3.537,0,0,0-18.915.677l-.836-.8A2.422,2.422,0,0,1-21.613.7a2.379,2.379,0,0,1-1.78-.681A2.379,2.379,0,0,1-24.1-1.746a2.379,2.379,0,0,1,.709-1.768,2.379,2.379,0,0,1,1.78-.681,2.447,2.447,0,0,1,1.862.816l.836-.787A3.53,3.53,0,0,0-21.673-5.33a3.551,3.551,0,0,0-2.642.985,3.551,3.551,0,0,0-1.092,2.6A3.548,3.548,0,0,0-24.32.853a3.548,3.548,0,0,0,2.637.989Zm7.735,0A3.562,3.562,0,0,0-11.3.861a3.562,3.562,0,0,0,1.1-2.6,3.562,3.562,0,0,0-1.1-2.6,3.562,3.562,0,0,0-2.651-.981,3.568,3.568,0,0,0-2.649.983,3.568,3.568,0,0,0-1.1,2.6,3.568,3.568,0,0,0,1.1,2.6A3.568,3.568,0,0,0-13.949,1.842Zm0-1.131A2.375,2.375,0,0,1-15.7.017,2.375,2.375,0,0,1-16.4-1.738,2.375,2.375,0,0,1-15.7-3.492a2.375,2.375,0,0,1,1.755-.694,2.375,2.375,0,0,1,1.753.693,2.375,2.375,0,0,1,.7,1.753A2.375,2.375,0,0,1-12.194.013a2.375,2.375,0,0,1-1.754.694ZM-.583,1.747l-.01-6.969H-1.65L-4.373-.607-7.139-5.225H-8.2V1.743h1.234V-2.816L-4.681.947H-4.1l2.289-3.823.01,4.619ZM4.786-5.225H1.918V1.743H3.213V-.267H4.786c1.832,0,2.966-.946,2.966-2.479S6.617-5.225,4.786-5.225ZM4.724-1.363H3.213V-4.13H4.724c1.131,0,1.722.508,1.722,1.384S5.86-1.363,4.724-1.363Zm9.805,3.106h1.354l-3.14-6.968H11.465L8.33,1.743H9.659L10.35.13h3.484ZM10.79-.885l1.3-3.046L13.408-.885ZM22.3-5.225V-.507L18.453-5.225H17.388V1.743h1.284V-2.975l3.839,4.718H23.58V-5.225Zm3.773,6.969h1.294V-5.225h-1.3ZM31.155.658V-1.264h3.364V-2.329H31.155V-4.14h3.8V-5.225h-5.09V1.743h5.226V.658Zm8.153,1.184c1.911,0,2.817-.955,2.817-2.071,0-2.558-4.131-1.593-4.131-3.076,0-.527.438-.946,1.513-.946a3.872,3.872,0,0,1,1.922.548l.411-1.006a4.405,4.405,0,0,0-2.319-.617c-1.911,0-2.807.955-2.807,2.081,0,2.588,4.141,1.6,4.141,3.106,0,.514-.458.906-1.542.906A3.861,3.861,0,0,1,37.007,0l-.448,1.006a4.49,4.49,0,0,0,2.748.836Z" transform="translate(25.406 16.536)"/></g></g></g></g></svg>