<svg xmlns="http://www.w3.org/2000/svg" width="70" height="70" viewBox="0 0 70 70"><defs><style>.a{fill:#fff;stroke:#f5fafe;stroke-width:3px;}.b{fill:#4fdc6f;}.c{stroke:none;}.d{fill:none;}</style></defs><g transform="translate(-946 -4115)"><g class="a" transform="translate(946 4115)"><circle class="c" cx="35" cy="35" r="35"/><circle class="d" cx="35" cy="35" r="33.5"/></g><path class="b" d="M44.379,5.1a1.191,1.191,0,0,0-.86-.983L28.878.044a1.19,1.19,0,0,0-.638,0L13.6,4.116a1.191,1.191,0,0,0-.86.983c-.085.611-2.022,15.038,2.947,22.216A23.375,23.375,0,0,0,28.279,36.4a1.194,1.194,0,0,0,.559,0,23.374,23.374,0,0,0,12.594-9.081C46.4,20.137,44.464,5.71,44.379,5.1ZM38,13.522l-9.987,9.987a1.19,1.19,0,0,1-1.683,0l-6.175-6.175a1.19,1.19,0,0,1,0-1.683l1.226-1.226a1.19,1.19,0,0,1,1.683,0l4.107,4.107,7.919-7.919a1.19,1.19,0,0,1,1.683,0L38,11.838A1.191,1.191,0,0,1,38,13.522Z" transform="translate(952.236 4132.716)"/></g></svg>