<svg xmlns="http://www.w3.org/2000/svg" xmlns:xlink="http://www.w3.org/1999/xlink" width="164.53" height="213.41" viewBox="0 0 164.53 213.41"><defs><style>.a{fill:#ad3131;}.b{fill:#fff;}.c{fill:url(#c);}.d{fill:#252e48;}.e{fill:url(#d);}.f{fill:#252d48;}.g{fill:none;stroke:#252d48;}.h{fill:#f5fafe;}.i{fill:#2b3453;}.j{filter:url(#h);}.k{filter:url(#e);}.l{filter:url(#a);}</style><filter id="a" x="0.801" y="0" width="163.298" height="213.41" filterUnits="userSpaceOnUse"><feOffset dy="2" input="SourceAlpha"/><feGaussianBlur stdDeviation="6" result="b"/><feFlood flood-color="#6290f8" flood-opacity="0.4"/><feComposite operator="in" in2="b"/><feComposite in="SourceGraphic"/></filter><linearGradient id="c" x1="0.5" x2="0.5" y2="1" gradientUnits="objectBoundingBox"><stop offset="0" stop-color="#eef5ff"/><stop offset="1" stop-color="#cfe1ff"/></linearGradient><linearGradient id="d" x1="0.5" x2="0.5" y2="1" gradientUnits="objectBoundingBox"><stop offset="0" stop-color="#e89e01"/><stop offset="1" stop-color="#f47c6a"/></linearGradient><filter id="e" x="0" y="99.696" width="164.53" height="57.846" filterUnits="userSpaceOnUse"><feOffset dy="3" input="SourceAlpha"/><feGaussianBlur stdDeviation="3" result="f"/><feFlood flood-color="#2352e0" flood-opacity="0.149"/><feComposite operator="in" in2="f"/><feComposite in="SourceGraphic"/></filter><filter id="h" x="52.699" y="16.148" width="60.221" height="59.129" filterUnits="userSpaceOnUse"><feOffset dy="3" input="SourceAlpha"/><feGaussianBlur stdDeviation="3" result="i"/><feFlood flood-color="#2352e0" flood-opacity="0.149"/><feComposite operator="in" in2="i"/><feComposite in="SourceGraphic"/></filter></defs><g transform="translate(9 15.679)"><g transform="translate(-14962 -2913)"><g transform="translate(14962 2913)"><g transform="translate(0 0)"><g transform="translate(0 0)"><path class="a" d="M2631.107-4202.286,2621-4194.521v-15.4Z" transform="translate(-2484.683 4332.051)"/><path class="a" d="M2621-4202.286l10.107,7.765v-15.4Z" transform="translate(-2620.344 4332.051)"/><g transform="translate(9.479)"><g class="l" transform="matrix(1, 0, 0, 1, -18.48, -15.68)"><path class="b" d="M63.907,177.66a7.451,7.451,0,0,1-3.747-1.066l-.006,0-.006,0L.25,145.315V.25h127.3V145.315l-59.9,31.271-.006,0-.006,0A7.424,7.424,0,0,1,63.907,177.66Z" transform="translate(18.55 15.75)"/></g><path class="b" d="M63.978,177.41a7.108,7.108,0,0,0,3.571-1.023l.024-.013L127.3,145.192V.643H.643V145.192l59.725,31.181.024.013a7.135,7.135,0,0,0,3.586,1.023m0,.643a7.826,7.826,0,0,1-3.908-1.109L0,145.581V0H127.941V145.581l-60.07,31.362A7.7,7.7,0,0,1,63.978,178.053Z" transform="translate(0 0)"/></g><path class="c" d="M53.87,161.6,0,134.116V3.856A3.856,3.856,0,0,1,3.856,0H110.882a3.856,3.856,0,0,1,3.856,3.856v130.26L60.867,161.6a6.941,6.941,0,0,1-3.491.988A7.055,7.055,0,0,1,53.87,161.6Z" transform="translate(16.71 6.617)"/><path class="d" d="M-26.912-7.052h-4.532V-9.725H-19.1v2.672h-4.532V4.439h-3.278ZM-10.686,4.682a8.266,8.266,0,0,1-3.976-.951A7.058,7.058,0,0,1-17.434,1.11a7.153,7.153,0,0,1-1-3.753,7.153,7.153,0,0,1,1-3.753,7.058,7.058,0,0,1,2.771-2.62,8.266,8.266,0,0,1,3.976-.951,8.207,8.207,0,0,1,3.965.951A7.149,7.149,0,0,1-3.949-6.4,7.1,7.1,0,0,1-2.937-2.644,7.1,7.1,0,0,1-3.949,1.11a7.149,7.149,0,0,1-2.773,2.62,8.207,8.207,0,0,1-3.965.951Zm0-2.792a4.5,4.5,0,0,0,2.266-.577A4.138,4.138,0,0,0-6.837-.3,4.729,4.729,0,0,0-6.26-2.644,4.729,4.729,0,0,0-6.837-5,4.138,4.138,0,0,0-8.426-6.6a4.5,4.5,0,0,0-2.261-.577,4.5,4.5,0,0,0-2.266.577A4.138,4.138,0,0,0-14.54-5a4.728,4.728,0,0,0-.577,2.347A4.727,4.727,0,0,0-14.54-.3a4.138,4.138,0,0,0,1.589,1.608,4.5,4.5,0,0,0,2.265.582ZM5.66-9.725A7.868,7.868,0,0,1,8.928-9.1a4.855,4.855,0,0,1,2.135,1.78,4.9,4.9,0,0,1,.748,2.731,4.918,4.918,0,0,1-.748,2.721A4.767,4.767,0,0,1,8.929-.084,7.98,7.98,0,0,1,5.662.533H2.8v3.9H-.475V-9.725ZM5.478-2.141a3.442,3.442,0,0,0,2.246-.643,2.22,2.22,0,0,0,.771-1.811,2.243,2.243,0,0,0-.771-1.83,3.442,3.442,0,0,0-2.246-.643H2.8v4.916ZM24.637-9.725V4.437H21.361V-7.095H18.533v-2.63Zm8.539,14.4a5.742,5.742,0,0,1-3.136-.87,5.838,5.838,0,0,1-2.154-2.519,9.143,9.143,0,0,1-.779-3.934,9.143,9.143,0,0,1,.779-3.934A5.838,5.838,0,0,1,30.04-9.1a5.742,5.742,0,0,1,3.136-.87,5.742,5.742,0,0,1,3.136.87,5.838,5.838,0,0,1,2.154,2.519,9.143,9.143,0,0,1,.779,3.934,9.143,9.143,0,0,1-.779,3.934A5.838,5.838,0,0,1,36.312,3.81,5.742,5.742,0,0,1,33.176,4.68Zm0-2.771A2.314,2.314,0,0,0,35.209.8a6.325,6.325,0,0,0,.739-3.44,6.325,6.325,0,0,0-.739-3.44A2.314,2.314,0,0,0,33.176-7.2a2.3,2.3,0,0,0-2.013,1.113,6.325,6.325,0,0,0-.739,3.44A6.325,6.325,0,0,0,31.163.8a2.3,2.3,0,0,0,2.013,1.112ZM46.914,4.68a5.742,5.742,0,0,1-3.136-.87,5.838,5.838,0,0,1-2.157-2.519,9.143,9.143,0,0,1-.771-3.934,9.143,9.143,0,0,1,.771-3.936A5.838,5.838,0,0,1,43.775-9.1a5.742,5.742,0,0,1,3.136-.87,5.742,5.742,0,0,1,3.136.87A5.838,5.838,0,0,1,52.2-6.579a9.143,9.143,0,0,1,.781,3.936A9.143,9.143,0,0,1,52.2,1.291,5.838,5.838,0,0,1,50.049,3.81a5.742,5.742,0,0,1-3.135.87Zm0-2.771A2.314,2.314,0,0,0,48.947.8a6.325,6.325,0,0,0,.739-3.44,6.325,6.325,0,0,0-.739-3.44A2.314,2.314,0,0,0,46.914-7.2,2.3,2.3,0,0,0,44.9-6.083a6.325,6.325,0,0,0-.739,3.44A6.325,6.325,0,0,0,44.9.8a2.3,2.3,0,0,0,2.013,1.112Z" transform="translate(62.02 79.222)"/><g class="k" transform="matrix(1, 0, 0, 1, -9, -15.68)"><path class="e" d="M2.571,0H143.96a2.571,2.571,0,0,1,2.571,2.571V39.846H0V2.571A2.571,2.571,0,0,1,2.571,0Z" transform="translate(9 105.7)"/></g><path class="f" d="M-4.27.291V1.979h-6.758V.637l3.45-3.258a3.663,3.663,0,0,0,.742-.9,1.639,1.639,0,0,0,.19-.744.988.988,0,0,0-.37-.828,1.694,1.694,0,0,0-1.067-.288,2.45,2.45,0,0,0-1.06.224,2.031,2.031,0,0,0-.792.671l-1.508-.97A3.537,3.537,0,0,1-10-6.677a4.821,4.821,0,0,1,2.108-.441,4.334,4.334,0,0,1,1.744.325,2.688,2.688,0,0,1,1.157.92,2.38,2.38,0,0,1,.415,1.4,3.118,3.118,0,0,1-.3,1.365A5.262,5.262,0,0,1-6.06-1.652L-8.116.29ZM.393,2.132a3.626,3.626,0,0,1-1.981-.55A3.686,3.686,0,0,1-2.949-.008a5.774,5.774,0,0,1-.492-2.485,5.774,5.774,0,0,1,.492-2.485A3.686,3.686,0,0,1-1.588-6.57,3.626,3.626,0,0,1,.393-7.119a3.626,3.626,0,0,1,1.981.549,3.686,3.686,0,0,1,1.36,1.591,5.774,5.774,0,0,1,.492,2.485A5.774,5.774,0,0,1,3.733-.008a3.686,3.686,0,0,1-1.36,1.59,3.626,3.626,0,0,1-1.981.55Zm0-1.751a1.463,1.463,0,0,0,1.285-.7,4,4,0,0,0,.467-2.172,4,4,0,0,0-.467-2.172,1.463,1.463,0,0,0-1.285-.7,1.451,1.451,0,0,0-1.271.7,4,4,0,0,0-.467,2.172A4,4,0,0,0-.878-.322a1.451,1.451,0,0,0,1.271.7ZM8.608-6.964V1.979H6.538V-5.3H4.749V-6.964Zm4.7-.154a3.81,3.81,0,0,1,2.938,1.144,4.666,4.666,0,0,1,1.06,3.291A5.554,5.554,0,0,1,16.74-.078a3.866,3.866,0,0,1-1.6,1.647,4.927,4.927,0,0,1-2.389.563,5.724,5.724,0,0,1-1.368-.159,3.68,3.68,0,0,1-1.111-.454L11.041,0a2.9,2.9,0,0,0,1.671.447,2.422,2.422,0,0,0,1.8-.671,2.806,2.806,0,0,0,.716-1.936,3,3,0,0,1-2.224.8A3.49,3.49,0,0,1,11.444-1.7a2.724,2.724,0,0,1-1.112-.977,2.635,2.635,0,0,1-.409-1.459,2.787,2.787,0,0,1,.447-1.572,2.918,2.918,0,0,1,1.22-1.041A3.985,3.985,0,0,1,13.309-7.119ZM13.462-2.9a1.611,1.611,0,0,0,1.105-.377A1.228,1.228,0,0,0,15-4.243a1.225,1.225,0,0,0-.419-.959,1.657,1.657,0,0,0-1.144-.37,1.6,1.6,0,0,0-1.08.357,1.216,1.216,0,0,0-.415.97,1.235,1.235,0,0,0,.415.977,1.616,1.616,0,0,0,1.111.365Z" transform="translate(71.101 144.268)"/><g transform="translate(41.131 142.521)"><line class="g" x2="9.613" transform="translate(56.556)"/><line class="g" x2="9.613" transform="translate(0)"/></g><g class="j" transform="matrix(1, 0, 0, 1, -9, -15.68)"><path class="e" d="M19.769,40.895,0,30.891l.1-.066V0h42.12V30.938h-.21L22.336,40.895a3.671,3.671,0,0,1-1.285.234,3.709,3.709,0,0,1-1.281-.234Z" transform="translate(61.7 22.15)"/></g><g transform="translate(62.978 16.75)"><g transform="translate(0 0)"><path class="b" d="M289.331,128.194a11.008,11.008,0,0,1-6.478-2.1,10.1,10.1,0,0,1-3.838-5.461,11.623,11.623,0,0,1-.386-1.841,9.806,9.806,0,0,1-.071-1.6,9.552,9.552,0,0,1,1.335-4.519,11.311,11.311,0,0,1,2.7-3.17,10.292,10.292,0,0,1,3.648-1.846,11.379,11.379,0,0,1,1.928-.375,9.66,9.66,0,0,1,1.789-.033c.413.033.824.1,1.235.152.128.017.148.053.09.174l-1.95,4a.229.229,0,0,1-.221.138,6.089,6.089,0,0,0-3.946,1.553,5.866,5.866,0,0,0-1.9,3.27,5.582,5.582,0,0,0-.1,1.659,5.884,5.884,0,0,0,1.843,3.826,5.973,5.973,0,0,0,2.481,1.414,6.342,6.342,0,0,0,2.121.275,5.764,5.764,0,0,0,2.139-.527,7.264,7.264,0,0,0,1.332-.8l.093-.066a.08.08,0,0,1,.129.023c.017.024.032.048.046.073l2.116,3.591c.092.157.087.181-.066.285a10.755,10.755,0,0,1-3.728,1.623,10.1,10.1,0,0,1-1.6.233Z" transform="translate(-278.552 -107.225)"/><path class="b" d="M572.321,370.82a.906.906,0,0,1-.067-.086q-1.233-2.1-2.464-4.2a.35.35,0,0,0-.329-.185h-5.044a.68.68,0,0,1,.04-.113l2.125-3.607c.121-.206.243-.413.362-.62a.257.257,0,0,1,.257-.14h4.959a.264.264,0,0,1,.257.14q1.242,2.109,2.486,4.216a.257.257,0,0,1-.018.288q-.889,1.5-1.776,3.009l-.715,1.215A.413.413,0,0,0,572.321,370.82Z" transform="translate(-554.112 -352.881)"/><path class="b" d="M662.451,130.663l-.854-.834a.12.12,0,0,1-.006-.165,2.571,2.571,0,0,1,1.559-1.2,2.837,2.837,0,0,1,2.555.428,1.645,1.645,0,0,1,.685,1.344,1.853,1.853,0,0,1-.5,1.388,3.574,3.574,0,0,1-.932.683c-.4.212-.8.416-1.194.643a1.157,1.157,0,0,0-.555.674c-.042.129-.012.175.129.175h2.892c.094,0,.128.035.128.129v1.05c0,.073-.041.1-.108.108h-4.571c-.113,0-.14-.018-.141-.105a4.359,4.359,0,0,1,.276-1.677,3.042,3.042,0,0,1,1.084-1.314,8.8,8.8,0,0,1,1.244-.7,2.875,2.875,0,0,0,.527-.338.708.708,0,0,0-.333-1.285,1.613,1.613,0,0,0-1.722.748C662.56,130.478,662.51,130.569,662.451,130.663Z" transform="translate(-647.734 -127.584)"/></g></g><path class="h" d="M6.131,2.923l.631,1.523,1.649.12a.672.672,0,0,1,.584.458.65.65,0,0,1-.207.7L7.526,6.781l.393,1.594a.658.658,0,0,1-.249.7.675.675,0,0,1-.753.028L5.509,8.245l-1.414.847a.679.679,0,0,1-.742-.024.665.665,0,0,1-.257-.7L3.49,6.771,2.227,5.716a.654.654,0,0,1-.221-.7.665.665,0,0,1,.612-.454l1.649-.113L4.893,2.93a.668.668,0,0,1,1.234,0Z" transform="translate(11.91 104.086)"/><path class="h" d="M6.131,2.923l.631,1.523,1.649.12a.672.672,0,0,1,.584.458.65.65,0,0,1-.207.7L7.526,6.781l.393,1.594a.658.658,0,0,1-.249.7.675.675,0,0,1-.753.028L5.509,8.245l-1.414.847a.679.679,0,0,1-.742-.024.665.665,0,0,1-.257-.7L3.49,6.771,2.227,5.716a.654.654,0,0,1-.221-.7.665.665,0,0,1,.612-.454l1.649-.113L4.893,2.93a.668.668,0,0,1,1.234,0Z" transform="translate(123.307 104.086)"/><path class="d" d="M6.131,2.923l.631,1.523,1.649.12a.672.672,0,0,1,.584.458.65.65,0,0,1-.207.7L7.526,6.781l.393,1.594a.658.658,0,0,1-.249.7.675.675,0,0,1-.753.028L5.509,8.245l-1.414.847a.679.679,0,0,1-.742-.024.665.665,0,0,1-.257-.7L3.49,6.771,2.227,5.716a.654.654,0,0,1-.221-.7.665.665,0,0,1,.612-.454l1.649-.113L4.893,2.93a.668.668,0,0,1,1.234,0Z" transform="translate(68.16 154.049)"/><path class="i" d="M6.366,1.622h1.4L4.51-5.576H3.2L-.04,1.622H1.338l.71-1.671h3.6ZM2.5-1.092,3.847-4.239,5.2-1.092ZM16.556,1.622l-.01-7.2h-1.1L12.639-.8,9.78-5.576H8.68v7.2H9.955v-4.71L12.32.8h.6l2.365-3.949.01,4.771Zm5.306.1A3.68,3.68,0,0,0,24.6.712a3.68,3.68,0,0,0,1.138-2.689A3.68,3.68,0,0,0,24.6-4.665a3.68,3.68,0,0,0-2.738-1.013,3.686,3.686,0,0,0-2.736,1.015,3.686,3.686,0,0,0-1.14,2.686A3.686,3.686,0,0,0,19.126.71a3.686,3.686,0,0,0,2.736,1.015Zm0-1.172A2.452,2.452,0,0,1,20.05-.164a2.452,2.452,0,0,1-.717-1.813,2.452,2.452,0,0,1,.717-1.813,2.452,2.452,0,0,1,1.813-.717,2.452,2.452,0,0,1,1.813.717,2.452,2.452,0,0,1,.717,1.813,2.452,2.452,0,0,1-.717,1.813,2.452,2.452,0,0,1-1.813.717ZM32.228-5.576V-.7L28.258-5.576h-1.1v7.2h1.326V-3.252l3.969,4.874h1.105v-7.2ZM40.4.183a2.907,2.907,0,0,1-1.481.37,2.477,2.477,0,0,1-1.852-.7,2.477,2.477,0,0,1-.75-1.832,2.463,2.463,0,0,1,.748-1.84,2.463,2.463,0,0,1,1.863-.689,2.671,2.671,0,0,1,1.985.823l.843-.823A3.719,3.719,0,0,0,38.87-5.679a3.68,3.68,0,0,0-2.752,1.005,3.68,3.68,0,0,0-1.145,2.7A3.674,3.674,0,0,0,36.109.714a3.674,3.674,0,0,0,2.74,1.011A4.558,4.558,0,0,0,41.667.81V-2.059H40.4Z" transform="translate(52.688 58.832)"/><line class="g" x2="9.613" transform="translate(105.426 56.403)"/><line class="g" x2="9.613" transform="translate(30.875 56.403)"/><g transform="translate(30.848 99.008)"><path class="b" d="M-20.029,4.31c2.571,0,3.787-1.285,3.787-2.783,0-3.438-5.553-2.141-5.553-4.135,0-.71.589-1.271,2.033-1.271a5.2,5.2,0,0,1,2.582.737l.549-1.351a5.922,5.922,0,0,0-3.117-.829c-2.571,0-3.773,1.285-3.773,2.8,0,3.478,5.566,2.154,5.566,4.175,0,.7-.616,1.217-2.073,1.217a5.189,5.189,0,0,1-3.085-1.028l-.609,1.353A6.041,6.041,0,0,0-20.029,4.31Zm10.717,0A4.788,4.788,0,0,0-5.749,2.991a4.788,4.788,0,0,0,1.481-3.5,4.788,4.788,0,0,0-1.481-3.5A4.788,4.788,0,0,0-9.312-5.323,4.8,4.8,0,0,0-12.872-4a4.8,4.8,0,0,0-1.484,3.5,4.8,4.8,0,0,0,1.483,3.5A4.8,4.8,0,0,0-9.313,4.31Zm0-1.526a3.192,3.192,0,0,1-2.359-.933A3.192,3.192,0,0,1-12.6-.507a3.192,3.192,0,0,1,.933-2.359A3.192,3.192,0,0,1-9.312-3.8a3.192,3.192,0,0,1,2.358.934A3.192,3.192,0,0,1-6.021-.507a3.192,3.192,0,0,1-.933,2.359,3.192,3.192,0,0,1-2.359.933ZM5.245-3.731V-5.19H-1.592V4.177H.147V.59H4.669V-.881H.147v-2.85ZM9.725,4.177h1.74V-3.718h3.1V-5.19H6.623v1.472h3.1ZM28.606-5.19,26.211,1.968,23.843-5.19H22.237L19.815,1.928,17.488-5.19H15.681l3.1,9.366h1.866l2.355-6.931,2.314,6.931h1.847l3.1-9.366ZM39.229,4.177h1.82L36.821-5.19H35.109L30.894,4.177h1.793l.923-2.168h4.683ZM34.2.644l1.748-4.1,1.771,4.1ZM51.07,4.177,48.917,1.1a3,3,0,0,0,1.994-2.956c0-2.073-1.526-3.332-3.985-3.332H43.07V4.177h1.739V1.446h2.114a3.261,3.261,0,0,0,.361-.013L49.2,4.177ZM49.158-1.858c0,1.177-.789,1.873-2.314,1.873H44.809V-3.713h2.033C48.368-3.718,49.158-3.036,49.158-1.858ZM55.42,2.718V.135h4.522V-1.3H55.42V-3.731h5.1V-5.19H53.685V4.177h7.024V2.718Z" transform="translate(23.722 5.33)"/><path class="b" d="M-20.752,3.638a4.422,4.422,0,0,0,3.46-1.456l-1.045-1a3.028,3.028,0,0,1-2.328,1.028,2.974,2.974,0,0,1-2.225-.851,2.974,2.974,0,0,1-.887-2.211,2.974,2.974,0,0,1,.887-2.211,2.974,2.974,0,0,1,2.225-.851,3.059,3.059,0,0,1,2.328,1.021l1.045-.983a4.413,4.413,0,0,0-3.447-1.456,4.44,4.44,0,0,0-3.3,1.231,4.44,4.44,0,0,0-1.365,3.25A4.436,4.436,0,0,0-24.049,2.4a4.436,4.436,0,0,0,3.3,1.237Zm9.67,0A4.454,4.454,0,0,0-7.768,2.411,4.454,4.454,0,0,0-6.39-.843,4.454,4.454,0,0,0-7.768-4.1a4.454,4.454,0,0,0-3.314-1.227,4.46,4.46,0,0,0-3.312,1.229,4.46,4.46,0,0,0-1.38,3.252,4.46,4.46,0,0,0,1.38,3.252A4.46,4.46,0,0,0-11.082,3.638Zm0-1.414a2.969,2.969,0,0,1-2.194-.868,2.969,2.969,0,0,1-.868-2.194,2.969,2.969,0,0,1,.868-2.194A2.969,2.969,0,0,1-11.082-3.9a2.969,2.969,0,0,1,2.192.867A2.969,2.969,0,0,1-8.02-.842a2.969,2.969,0,0,1-.869,2.193,2.969,2.969,0,0,1-2.193.868ZM5.628,3.518,5.615-5.194H4.293L.89.576-2.569-5.2H-3.9V3.513h1.542v-5.7L.5,2.518h.722L4.088-2.261,4.1,3.515ZM12.34-5.2H8.755V3.513h1.618V1H12.34c2.29,0,3.708-1.183,3.708-3.1S14.629-5.2,12.34-5.2ZM12.263-.37H10.373V-3.829h1.889c1.414,0,2.153.635,2.153,1.73S13.683-.37,12.263-.37ZM24.521,3.513h1.693L22.288-5.2h-1.6L16.77,3.513h1.662L19.3,1.5h4.356ZM19.846.228l1.63-3.809L23.119.228ZM34.231-5.2V.7l-4.8-5.9H28.094V3.513H29.7v-5.9l4.8,5.9h1.337V-5.2Zm4.717,8.712h1.618V-5.2h-1.62Zm6.359-1.357v-2.4h4.206V-1.577H45.307V-3.842h4.746V-5.2H43.688V3.513h6.533V2.157ZM55.5,3.638c2.389,0,3.522-1.194,3.522-2.589,0-3.2-5.165-1.991-5.165-3.846,0-.659.548-1.183,1.892-1.183a4.841,4.841,0,0,1,2.4.685l.514-1.257a5.508,5.508,0,0,0-2.9-.771c-2.389,0-3.509,1.194-3.509,2.6,0,3.235,5.177,2,5.177,3.883,0,.643-.572,1.132-1.928,1.132a4.827,4.827,0,0,1-2.883-.959l-.56,1.257A5.613,5.613,0,0,0,55.5,3.638Z" transform="translate(25.406 19.338)"/></g></g></g></g></g></g></svg>