<svg xmlns="http://www.w3.org/2000/svg" width="70" height="70" viewBox="0 0 70 70"><defs><style>.a{fill:#fff;stroke:#f5fafe;stroke-width:3px;}.b,.c{fill:#766de8;}.b{fill-rule:evenodd;}.d{stroke:none;}.e{fill:none;}</style></defs><g transform="translate(-526 -4115)"><g class="a" transform="translate(526 4115)"><circle class="d" cx="35" cy="35" r="35"/><circle class="e" cx="35" cy="35" r="33.5"/></g><path class="b" d="M35.015,4a3.668,3.668,0,0,1,3.668,3.668v22.01a3.668,3.668,0,0,1-3.668,3.668H5.668A3.668,3.668,0,0,1,2,29.678V7.668A3.668,3.668,0,0,1,5.668,4ZM22.542,30.6V11.337H4.751V29.678a.917.917,0,0,0,.917.917ZM35.932,19.774V11.337H24.743v8.437Zm0,2.2H24.743V30.6H35.015a.917.917,0,0,0,.917-.917Z" transform="translate(540.659 4131.327)"/><path class="c" d="M11.019,6.309l-5.4-3.153A1.076,1.076,0,0,0,4,4.09v6.325a1.076,1.076,0,0,0,1.619.944l5.4-3.163a1.086,1.086,0,0,0,0-1.888Z" transform="translate(546.929 4144.899)"/></g></svg>