<svg xmlns="http://www.w3.org/2000/svg" width="70" height="70" viewBox="0 0 70 70"><defs><style>.a{fill:#fff;stroke:#f5fafe;stroke-width:3px;}.b{fill:#f7cf06;}.c{stroke:none;}.d{fill:none;}</style></defs><g transform="translate(-105 -4115)"><g class="a" transform="translate(105 4115)"><circle class="c" cx="35" cy="35" r="35"/><circle class="d" cx="35" cy="35" r="33.5"/></g><g transform="translate(3716.712 2586.961) rotate(60)"><g transform="translate(-455.407 3859.188)"><path class="b" d="M19.472,20.83A3.171,3.171,0,0,1,16.609,16.3a3.17,3.17,0,0,1-2.049-5.453A3.172,3.172,0,0,1,12.079,6.34H3.17A3.17,3.17,0,0,1,3.17,0H24l.117,0L24.3,0h2.114a8,8,0,0,1,8,8v3.83a9,9,0,0,1-8.033,8.949,3.187,3.187,0,0,1-.571.051Z" transform="translate(5.417 15.31)"/><path class="b" d="M16.208,8.533H4.434L2.128,7.092A4.535,4.535,0,0,1,.687.851,1.443,1.443,0,0,1,1.964,0,3.638,3.638,0,0,1,3.183.275c.948,1.18,8.566,5.679,13.022,8.256Z" transform="translate(14.565 5.872)"/><rect class="b" width="1.449" height="8.151" rx="0.725" transform="translate(2.707 5.298) rotate(-51)"/><path class="b" d="M.725,0a.725.725,0,0,1,.725.725v6.7A.725.725,0,1,1,0,7.427V.725A.725.725,0,0,1,.725,0Z" transform="matrix(0.819, -0.574, 0.574, 0.819, 6.529, 0.831)"/><rect class="b" width="1.449" height="8.151" rx="0.725" transform="matrix(0.259, -0.966, 0.966, 0.259, 0, 11.384)"/></g></g></g></svg>