<svg xmlns="http://www.w3.org/2000/svg" width="115.155" height="14.379" viewBox="0 0 115.155 14.379"><defs><style>.a{fill:#f7cf06;}</style></defs><g transform="translate(-347 -4961)"><path class="a" d="M10.908,3.389l1.357,3.275,3.546.258a1.445,1.445,0,0,1,1.256.985,1.4,1.4,0,0,1-.445,1.505l-2.714,2.273.845,3.428a1.415,1.415,0,0,1-.535,1.505,1.452,1.452,0,0,1-1.619.06L9.571,14.834,6.53,16.655a1.46,1.46,0,0,1-1.6-.052A1.43,1.43,0,0,1,4.382,15.1l.847-3.434L2.513,9.4A1.406,1.406,0,0,1,2.037,7.89a1.43,1.43,0,0,1,1.316-.976L6.9,6.671,8.246,3.4a1.437,1.437,0,0,1,2.654,0Z" transform="translate(345.021 4958.482)"/><path class="a" d="M10.908,3.389l1.357,3.275,3.546.258a1.445,1.445,0,0,1,1.256.985,1.4,1.4,0,0,1-.445,1.505l-2.714,2.273.845,3.428a1.415,1.415,0,0,1-.535,1.505,1.452,1.452,0,0,1-1.619.06L9.571,14.834,6.53,16.655a1.46,1.46,0,0,1-1.6-.052A1.43,1.43,0,0,1,4.382,15.1l.847-3.434L2.513,9.4A1.406,1.406,0,0,1,2.037,7.89a1.43,1.43,0,0,1,1.316-.976L6.9,6.671,8.246,3.4a1.437,1.437,0,0,1,2.654,0Z" transform="translate(370.021 4958.482)"/><path class="a" d="M10.908,3.389l1.357,3.275,3.546.258a1.445,1.445,0,0,1,1.256.985,1.4,1.4,0,0,1-.445,1.505l-2.714,2.273.845,3.428a1.415,1.415,0,0,1-.535,1.505,1.452,1.452,0,0,1-1.619.06L9.571,14.834,6.53,16.655a1.46,1.46,0,0,1-1.6-.052A1.43,1.43,0,0,1,4.382,15.1l.847-3.434L2.513,9.4A1.406,1.406,0,0,1,2.037,7.89a1.43,1.43,0,0,1,1.316-.976L6.9,6.671,8.246,3.4a1.437,1.437,0,0,1,2.654,0Z" transform="translate(395.021 4958.482)"/><path class="a" d="M10.908,3.389l1.357,3.275,3.546.258a1.445,1.445,0,0,1,1.256.985,1.4,1.4,0,0,1-.445,1.505l-2.714,2.273.845,3.428a1.415,1.415,0,0,1-.535,1.505,1.452,1.452,0,0,1-1.619.06L9.571,14.834,6.53,16.655a1.46,1.46,0,0,1-1.6-.052A1.43,1.43,0,0,1,4.382,15.1l.847-3.434L2.513,9.4A1.406,1.406,0,0,1,2.037,7.89a1.43,1.43,0,0,1,1.316-.976L6.9,6.671,8.246,3.4a1.437,1.437,0,0,1,2.654,0Z" transform="translate(420.021 4958.482)"/><path class="a" d="M10.908,3.389l1.357,3.275,3.546.258a1.445,1.445,0,0,1,1.256.985,1.4,1.4,0,0,1-.445,1.505l-2.714,2.273.845,3.428a1.415,1.415,0,0,1-.535,1.505,1.452,1.452,0,0,1-1.619.06L9.571,14.834,6.53,16.655a1.46,1.46,0,0,1-1.6-.052A1.43,1.43,0,0,1,4.382,15.1l.847-3.434L2.513,9.4A1.406,1.406,0,0,1,2.037,7.89a1.43,1.43,0,0,1,1.316-.976L6.9,6.671,8.246,3.4a1.437,1.437,0,0,1,2.654,0Z" transform="translate(445.021 4958.482)"/></g></svg>