<svg xmlns="http://www.w3.org/2000/svg" xmlns:xlink="http://www.w3.org/1999/xlink" width="134" height="133.882" viewBox="0 0 134 133.882"><defs><style>.a{fill:#fff;}.b{fill:#eef5ff;}.c{fill:#363f5a;}.d{filter:url(#a);}</style><filter id="a" x="0" y="0" width="134" height="133.882" filterUnits="userSpaceOnUse"><feOffset dx="-4" dy="4" input="SourceAlpha"/><feGaussianBlur stdDeviation="7" result="b"/><feFlood flood-color="#5690ff" flood-opacity="0.161"/><feComposite operator="in" in2="b"/><feComposite in="SourceGraphic"/></filter></defs><g transform="translate(1419.057 17575.396)"><g class="d" transform="matrix(1, 0, 0, 1, -1419.06, -17575.4)"><rect class="a" width="92" height="91.882" rx="10" transform="translate(25 17)"/></g><rect class="b" width="32.774" height="32.774" rx="7" transform="translate(-1343.262 -17550.279)"/><rect class="b" width="32.333" height="32.333" rx="7" transform="translate(-1342.821 -17507.279)"/><rect class="b" width="32.774" height="32.774" rx="7" transform="translate(-1385.261 -17550.279)"/><rect class="b" width="32.774" height="32.774" rx="7" transform="translate(-1385.261 -17507.721)"/><path class="c" d="M7.082-1.94H2.851L2.044.013H-.117L3.945-9.1H6.028L10.1.013H7.889Zm-.664-1.6L4.973-7.03,3.528-3.541ZM13.735-7.1a3.645,3.645,0,0,1,2.5.775,2.964,2.964,0,0,1,.872,2.337v4h-1.9V-.859a2.263,2.263,0,0,1-2.135.976,3.314,3.314,0,0,1-1.4-.273,2.087,2.087,0,0,1-.9-.755A1.965,1.965,0,0,1,10.454-2a1.825,1.825,0,0,1,.736-1.536,3.748,3.748,0,0,1,2.272-.56h1.614a1.294,1.294,0,0,0-.4-1.022,1.778,1.778,0,0,0-1.211-.358,3.535,3.535,0,0,0-1.1.176,2.91,2.91,0,0,0-.918.475l-.729-1.419a4.4,4.4,0,0,1,1.373-.625A6.153,6.153,0,0,1,13.735-7.1ZM13.578-1.25a1.769,1.769,0,0,0,.924-.241,1.318,1.318,0,0,0,.573-.71v-.716H13.683q-1.25,0-1.25.82a.73.73,0,0,0,.306.618A1.378,1.378,0,0,0,13.578-1.25Z" transform="translate(-1378.134 -17529.531)"/><path class="c" d="M3.994-8.1,5.556-4.48H2.511ZM-.35-.745V-.56h2.5V-.745H.974l1.47-3.549H5.623L7.159-.745H5.927V-.56h4.45V-.745H9.238L5.066-10.36H4.709L.762-.745Zm14.422-3.1V-2.1a2.356,2.356,0,0,1-.079.656A1.261,1.261,0,0,1,13.78-1a.86.86,0,0,1-.3.245.773.773,0,0,1-.338.079.739.739,0,0,1-.477-.139.877.877,0,0,1-.258-.338,1.341,1.341,0,0,1-.106-.411q-.02-.212-.02-.371a1.452,1.452,0,0,1,.126-.649,1.355,1.355,0,0,1,.324-.424,1.813,1.813,0,0,1,.45-.285q.252-.113.5-.232a1.043,1.043,0,0,0,.258-.166.394.394,0,0,0,.1-.152ZM16.747-.772l-.119-.119a.922.922,0,0,1-.219.185.555.555,0,0,1-.285.066q-.291,0-.364-.192a1.246,1.246,0,0,1-.073-.444V-4.56a1.962,1.962,0,0,0-.192-.92,1.519,1.519,0,0,0-.516-.576,2.049,2.049,0,0,0-.768-.291,5.37,5.37,0,0,0-.947-.079,3.748,3.748,0,0,0-.841.093,2.693,2.693,0,0,0-.722.271,1.533,1.533,0,0,0-.51.45A1.04,1.04,0,0,0,11-5a.744.744,0,0,0,.073.358.585.585,0,0,0,.179.205.567.567,0,0,0,.245.093,1.919,1.919,0,0,0,.271.02q.093,0,.232-.007a.772.772,0,0,0,.265-.06.565.565,0,0,0,.219-.166.476.476,0,0,0,.093-.311,1.41,1.41,0,0,0-.013-.146q-.013-.106-.026-.225t-.026-.219a1.235,1.235,0,0,1-.013-.139.551.551,0,0,1,.225-.51.988.988,0,0,1,.53-.139.69.69,0,0,1,.649.291,1.252,1.252,0,0,1,.172.649v.808A.991.991,0,0,1,14-4.083a.71.71,0,0,1-.258.285,2.177,2.177,0,0,1-.523.238q-.338.113-.881.271-.331.106-.642.219a2.216,2.216,0,0,0-.556.291,1.444,1.444,0,0,0-.4.437,1.246,1.246,0,0,0-.152.642,1.108,1.108,0,0,0,.172.629,1.2,1.2,0,0,0,.45.4,2.261,2.261,0,0,0,.609.212,3.3,3.3,0,0,0,.649.066,2.464,2.464,0,0,0,1.073-.185,1.282,1.282,0,0,0,.583-.715h.026a1.022,1.022,0,0,0,.4.662,1.694,1.694,0,0,0,1,.238,4.407,4.407,0,0,0,.656-.053A.748.748,0,0,0,16.747-.772Z" transform="translate(-1335.481 -17529.379)"/><path class="c" d="M2.844-6.825l1.7-4.039H7.611L12.048-.587H5.44L3.6-5.011h-.94L4.486-.587H.182L2.367-5.752h.914ZM16.418-5.209V-.587H15.041a3.36,3.36,0,0,1-.536-.04,1.761,1.761,0,0,1-.47-.146,2.075,2.075,0,0,1-.808-.49,1.384,1.384,0,0,1-.278-.278,2.075,2.075,0,0,1-.238-.45,2.446,2.446,0,0,1-.185-.94,2.351,2.351,0,0,1,.516-1.483,2.8,2.8,0,0,1,.662-.609,2.215,2.215,0,0,0,.669.358,2.149,2.149,0,0,0,.616.093,1.853,1.853,0,0,0,.768-.139A2.387,2.387,0,0,0,16.418-5.209Zm.874,4.622V-8.123H18.1a4.373,4.373,0,0,1,1.847.338A2.275,2.275,0,0,1,21.04-6.706a4.027,4.027,0,0,1,.371,1.814v4.3ZM14.935-8.109a1.447,1.447,0,0,1,.728.205,1.6,1.6,0,0,1,.576.563,1.425,1.425,0,0,1,.219.755,1.659,1.659,0,0,1-.2.768,1.579,1.579,0,0,1-.55.543,1.47,1.47,0,0,1-.775.212,1.505,1.505,0,0,1-.755-.212,1.472,1.472,0,0,1-.543-.53,1.6,1.6,0,0,1-.212-.781,1.532,1.532,0,0,1,.2-.755l.159-.3a.577.577,0,0,1,.252-.252l.411-.146q.172-.04.252-.053A1.575,1.575,0,0,1,14.935-8.109Z" transform="translate(-1379.875 -17486.959)"/><path class="c" d="M5.236-11.3l4.6,10.253H8.778L7.227-4.407H2.971L1.434-1.045H.336L4.989-11.3ZM5.113-9.116,3.424-5.409H6.787Zm13.356.782v7.289h-.92V-2.294A3.66,3.66,0,0,1,14.694-.8a3.619,3.619,0,0,1-2.711-1.146,3.8,3.8,0,0,1-1.1-2.732A3.741,3.741,0,0,1,11.99-7.393a3.6,3.6,0,0,1,2.663-1.132A3.43,3.43,0,0,1,17.549-7V-8.333ZM17.6-4.655a2.9,2.9,0,0,0-.837-2.107,2.757,2.757,0,0,0-2.052-.858,2.715,2.715,0,0,0-2.052.885,2.945,2.945,0,0,0-.837,2.093,2.92,2.92,0,0,0,.851,2.093,2.728,2.728,0,0,0,2.038.885,2.781,2.781,0,0,0,2.038-.851A2.9,2.9,0,0,0,17.6-4.655Z" transform="translate(-1336.037 -17485.771)"/></g></svg>