<svg xmlns="http://www.w3.org/2000/svg" xmlns:xlink="http://www.w3.org/1999/xlink" width="228" height="71.223" viewBox="0 0 228 71.223"><defs><style>.a,.f{fill:#fff;}.a{stroke:#bdcffb;}.b{fill:#f7cf06;}.c{fill:#9bbdff;stroke:#9bbdff;}.d,.e{fill:#387dff;opacity:0.5;}.e{fill-rule:evenodd;}.g{stroke:none;}.h{fill:none;}.i{filter:url(#c);}.j{filter:url(#a);}</style><filter id="a" x="0" y="0" width="228" height="71.223" filterUnits="userSpaceOnUse"><feOffset dx="-4" dy="4" input="SourceAlpha"/><feGaussianBlur stdDeviation="7" result="b"/><feFlood flood-color="#5690ff" flood-opacity="0.161"/><feComposite operator="in" in2="b"/><feComposite in="SourceGraphic"/></filter><filter id="c" x="0" y="2.979" width="60" height="61" filterUnits="userSpaceOnUse"><feOffset dy="2" input="SourceAlpha"/><feGaussianBlur stdDeviation="2" result="d"/><feFlood flood-color="#0047ce" flood-opacity="0.2"/><feComposite operator="in" in2="d"/><feComposite in="SourceGraphic"/></filter></defs><g transform="translate(-847.676 -2840.021)"><g transform="translate(872.676 2857.021)"><g class="j" transform="matrix(1, 0, 0, 1, -25, -17)"><g class="a" transform="translate(25 17)"><rect class="g" width="186" height="29.223" rx="14.612"/><rect class="h" x="0.5" y="0.5" width="185" height="28.223" rx="14.112"/></g></g></g><g class="i" transform="matrix(1, 0, 0, 1, 847.68, 2840.02)"><ellipse class="b" cx="24" cy="24.5" rx="24" ry="24.5" transform="translate(6 6.98)"/></g><path class="c" d="M17.314,8.657a.967.967,0,0,1-.267.685l-2.33,2.323a.476.476,0,0,1-.815-.339V9.609H8.166a.952.952,0,0,1,0-1.9h5.706V5.995a.476.476,0,0,1,.815-.346l2.33,2.33a.974.974,0,0,1,.3.678Zm-5.577,4.819a.765.765,0,0,0-.772.765v1.544H1.537V1.537h9.429V3.08a.772.772,0,0,0,1.537,0V.959A.959.959,0,0,0,11.543,0H.959A.967.967,0,0,0,0,.959v15.4a.967.967,0,0,0,.959.959H11.543a.959.959,0,0,0,.959-.959V14.234a.757.757,0,0,0-.765-.765Z" transform="translate(913.344 2863.115)"/><path class="d" d="M9.16,5.26v3H7V12H9.16V23H13.6V12h3s.28-1.77.42-3.71h-3.4V5.74a1.06,1.06,0,0,1,1-.88H17V1H13.71C9.05,1,9.16,4.71,9.16,5.26Z" transform="translate(946 2859.773)"/><path class="d" d="M14.688,11.8,8.961,14.566a.233.233,0,0,1-.22-.016.224.224,0,0,1-.1-.191V8.687a.224.224,0,0,1,.107-.2.233.233,0,0,1,.227-.009L14.7,11.425a.232.232,0,0,1-.01.375ZM17.637,4H5.362A4.387,4.387,0,0,0,1,8.406v6.187A4.387,4.387,0,0,0,5.362,19H17.637A4.387,4.387,0,0,0,22,14.594V8.406A4.387,4.387,0,0,0,17.637,4Z" transform="translate(1019 2859.773)"/><path class="e" d="M19.8,3.13c2.12.06,3.2,1.26,3.2,3.63v.48q-.15,3-4.48,8.19-4.49,5.43-7.6,5.44c-1.3,0-2.37-1.11-3.23-3.32l-.91-3-.89-3c-.66-2.2-1.37-3.3-2.12-3.3A7.11,7.11,0,0,0,2,9.13L1,7.9,2.62,6.55l1.6-1.33A8,8,0,0,1,7.47,3.36h.3c1.53,0,2.49,1.1,2.86,3.3.21,1.25.38,2.27.53,3a15.67,15.67,0,0,0,.34,1.65c.5,2.08,1.05,3.12,1.63,3.13s1.14-.68,2.08-2a8.45,8.45,0,0,0,1.47-3.1,2.53,2.53,0,0,0,0-.38c0-.91-.51-1.36-1.5-1.36a4.92,4.92,0,0,0-1.62.31q1.54-4.77,6-4.79Z" transform="translate(981 2859.653)"/><g transform="translate(-200.344 -197.156)"><path class="f" d="M15.012,20.452,22.887,13.9a.724.724,0,0,0-.478-1.293H18.529V3.435A1.461,1.461,0,0,0,17.016,2H11.094A1.461,1.461,0,0,0,9.62,3.435v9.193H5.741a.724.724,0,0,0-.478,1.293l7.875,6.556a1.513,1.513,0,0,0,1.875-.026Z" transform="translate(1064.289 3054)"/><path class="f" d="M5.474,22.651h17.74a1.461,1.461,0,0,0,1.474-1.435h0a1.461,1.461,0,0,0-1.474-1.435H5.474A1.461,1.461,0,0,0,4,21.215H4a1.461,1.461,0,0,0,1.474,1.435Z" transform="translate(1064 3059.21)"/></g></g></svg>