<svg xmlns="http://www.w3.org/2000/svg" xmlns:xlink="http://www.w3.org/1999/xlink" width="137.824" height="177.906" viewBox="0 0 137.824 177.906"><defs><style>.a{fill:#a3333c;}.b,.k{fill:#fff;}.c{fill:url(#c);}.d{fill:url(#d);}.e{fill:#5690ff;}.f,.i,.j{fill:#252e48;}.g{fill:none;stroke:#252d48;}.h{fill:#387dff;}.i{font-size:12px;}.i,.j,.k{font-family:Montserrat-Bold, Montserrat;font-weight:700;}.j{font-size:9px;}.k{font-size:6px;}.l{filter:url(#g);}.m{filter:url(#e);}.n{filter:url(#a);}</style><filter id="a" x="0" y="0" width="137.824" height="177.906" filterUnits="userSpaceOnUse"><feOffset dy="2" input="SourceAlpha"/><feGaussianBlur stdDeviation="6" result="b"/><feFlood flood-color="#6290f8" flood-opacity="0.396"/><feComposite operator="in" in2="b"/><feComposite in="SourceGraphic"/></filter><linearGradient id="c" x1="0.5" x2="0.5" y2="1" gradientUnits="objectBoundingBox"><stop offset="0" stop-color="#eef5ff"/><stop offset="1" stop-color="#cfe1ff"/></linearGradient><linearGradient id="d" x1="0.5" x2="0.5" y2="1" gradientUnits="objectBoundingBox"><stop offset="0" stop-color="#e79e00"/><stop offset="1" stop-color="#f37c6a"/></linearGradient><filter id="e" x="1.088" y="97.354" width="135.207" height="39.403" filterUnits="userSpaceOnUse"><feOffset dy="3" input="SourceAlpha"/><feGaussianBlur stdDeviation="3" result="f"/><feFlood flood-color="#2352e0" flood-opacity="0.149"/><feComposite operator="in" in2="f"/><feComposite in="SourceGraphic"/></filter><filter id="g" x="43.314" y="14.918" width="51.771" height="50.898" filterUnits="userSpaceOnUse"><feOffset dy="3" input="SourceAlpha"/><feGaussianBlur stdDeviation="3" result="h"/><feFlood flood-color="#2352e0" flood-opacity="0.149"/><feComposite operator="in" in2="h"/><feComposite in="SourceGraphic"/></filter></defs><g transform="translate(10.088 15.743)"><g transform="translate(0)"><g transform="translate(0)"><g transform="translate(0)"><path class="a" d="M2629.083-4203.814,2621-4197.6v-12.318Z" transform="translate(-2511.891 4312.751)"/><path class="a" d="M2621-4203.814l8.084,6.211v-12.318Z" transform="translate(-2620.403 4312.751)"/><g class="n" transform="matrix(1, 0, 0, 1, -10.09, -15.74)"><path class="b" d="M51.168,142.156a5.96,5.96,0,0,1-3-.853h-.01L.25,116.285V.25H102.074V116.285L54.162,141.3h-.01a5.938,5.938,0,0,1-2.984.857Z" transform="translate(17.75 15.75)"/></g><path class="b" d="M51.174,141.906a5.685,5.685,0,0,0,2.856-.818l.019-.01,47.774-24.941V.514H.514V116.136l47.773,24.941.019.01a5.707,5.707,0,0,0,2.868.818m0,.514a6.26,6.26,0,0,1-3.126-.887L0,116.447V0H102.337V116.447L54.288,141.533a6.159,6.159,0,0,1-3.114.887Z" transform="translate(7.655)"/><path class="c" d="M43.09,129.26,0,107.277V3.084A3.084,3.084,0,0,1,3.084,0H88.693a3.084,3.084,0,0,1,3.084,3.084V107.277L48.686,129.26a5.552,5.552,0,0,1-2.792.79,5.643,5.643,0,0,1-2.8-.79Z" transform="translate(13.438 5.294)"/><g class="m" transform="matrix(1, 0, 0, 1, -10.09, -15.74)"><path class="d" d="M2.056,0H115.15c1.136,0,2.056.618,2.056,1.381V21.4H0V1.381C0,.618.921,0,2.056,0Z" transform="translate(10.09 103.35)"/></g><g class="l" transform="matrix(1, 0, 0, 1, -10.09, -15.74)"><path class="e" d="M15.813,32.711,0,24.709l.08-.053V0H33.771V24.747H33.6L17.866,32.711a2.936,2.936,0,0,1-1.028.187A2.968,2.968,0,0,1,15.813,32.711Z" transform="translate(52.31 20.92)"/></g><path class="f" d="M5.3,2.842,5.8,4.06l1.319.1a.538.538,0,0,1,.467.366.52.52,0,0,1-.166.56l-1.009.845L6.73,7.2a.526.526,0,0,1-.2.56.54.54,0,0,1-.6.022L4.8,7.1l-1.131.677a.543.543,0,0,1-.594-.019.532.532,0,0,1-.206-.56L3.188,5.92l-1.01-.844A.523.523,0,0,1,2,4.516a.532.532,0,0,1,.49-.363l1.319-.09.5-1.215a.534.534,0,0,1,.987,0Z" transform="translate(71.674 114.491)"/><g transform="translate(19.607 68.762)"><line class="g" x2="7.689" transform="translate(71.824)"/><line class="g" x2="7.689"/></g><path class="b" d="M8.678,19.219A2.919,2.919,0,0,1,7.215,18.8c-.96-.554-1.931-1.12-2.873-1.661s-1.914-1.105-2.872-1.66a2.948,2.948,0,0,1-1.1-1.059A2.867,2.867,0,0,1,0,12.93c.01-1.12.01-2.252.01-3.351V8.494h0c0-.713,0-1.449,0-2.173A3.3,3.3,0,0,1,.094,5.5a2.616,2.616,0,0,1,.282-.708,2.686,2.686,0,0,1,.476-.6,3.512,3.512,0,0,1,.668-.49C3.431,2.61,5.348,1.5,7.2.423h0A2.972,2.972,0,0,1,8.683,0a2.972,2.972,0,0,1,1.479.422l2.2,1.272h0c1.15.665,2.339,1.354,3.515,2.028a3.4,3.4,0,0,1,.64.474,2.663,2.663,0,0,1,.462.579,2.617,2.617,0,0,1,.28.686,3.259,3.259,0,0,1,.094.8v6.711a3.165,3.165,0,0,1-.094.783,2.585,2.585,0,0,1-.278.677,3,3,0,0,1-1.1,1.045c-.952.551-1.92,1.112-2.862,1.654l-.01.006h0L10.142,18.8a2.919,2.919,0,0,1-1.464.422ZM8.5,3.381a.518.518,0,0,0-.24.08l-.63.362c-.57.328-1.159.666-1.735,1.005a.4.4,0,0,0-.09.05l-.614.357c-.546.32-1.11.645-1.669.96a.616.616,0,0,0-.342.48.061.061,0,0,1-.01.04c-.007.007,0,.019,0,.029a.057.057,0,0,1,0,.011V12.37a.621.621,0,0,0,.352.6c.8.464,1.621.937,2.412,1.393h0c.785.453,1.6.921,2.392,1.381a.676.676,0,0,0,.358.1.654.654,0,0,0,.175-.024,1.107,1.107,0,0,0,.191-.08c.462-.271.937-.543,1.4-.807h0c.291-.167.592-.339.888-.511l.041-.026.04-.025,2.364-1.369c.138-.08.209-.16.209-.249s-.08-.178-.229-.265l-.626-.36h0c-.57-.328-1.159-.666-1.735-1.006a.623.623,0,0,0-.694,0c-.292.176-.594.347-.885.514s-.594.337-.885.514a.43.43,0,0,1-.258.08.509.509,0,0,1-.114-.014c-.685-.4-1.3-.763-1.942-1.107a.5.5,0,0,1-.24-.219.526.526,0,0,1-.061-.325c.01-.693.01-1.39,0-2.072a.428.428,0,0,1,.262-.433c.3-.166.6-.339.884-.507s.59-.342.887-.509a.625.625,0,0,0,.27-.246.609.609,0,0,0,.08-.358c-.006-.6,0-1.222,0-1.82V3.723a.526.526,0,0,0-.052-.262A.169.169,0,0,0,8.5,3.384Z" transform="translate(50.904 10.169)"/><g transform="translate(40.489 40.756)"><g transform="translate(0 1.415)"><path class="h" d="M224.623,64.509h.98a2.111,2.111,0,0,1-.82,1.245,2.516,2.516,0,0,1-1.52.444,2.184,2.184,0,0,1-1.738-.72,3.5,3.5,0,0,1-.018-3.956,2.16,2.16,0,0,1,1.732-.72,2.32,2.32,0,0,1,1.812.7,2.706,2.706,0,0,1,.506.992h-1.368a1.147,1.147,0,0,0-.2-.29,1.069,1.069,0,0,0-1.424,0,1.905,1.905,0,0,0-.351,1.288,1.84,1.84,0,0,0,.351,1.269.91.91,0,0,0,.758.314,1.134,1.134,0,0,0,.567-.135.24.24,0,0,0,.1-.068l.1-.1a.912.912,0,0,1,.154-.154.652.652,0,0,1,.367-.106Z" transform="translate(-220.903 -60.797)"/></g><g transform="translate(4.908 1.541)"><path class="h" d="M300.6,67.983V65.468a3.241,3.241,0,0,1,.222-1.276,2.143,2.143,0,0,1,.61-.825,2.552,2.552,0,0,1,.869-.431,3.825,3.825,0,0,1,1.023-.136h.2v1.387h-.45a1.151,1.151,0,0,0-.838.271,1.18,1.18,0,0,0-.271.857V67.99Z" transform="translate(-300.598 -62.8)"/></g><g transform="translate(7.861 1.417)"><path class="h" d="M349.251,65.667a1.945,1.945,0,0,1-.585-.943,4.21,4.21,0,0,1-.173-1.239,3.817,3.817,0,0,1,.148-1.054,2.17,2.17,0,0,1,.456-.874,2,2,0,0,1,1.3-.69,2.928,2.928,0,0,1,1.44.13,1.983,1.983,0,0,1,1.091,1.017,3.23,3.23,0,0,1,.333,1.5,3.711,3.711,0,0,1-.136,1.073,2.831,2.831,0,0,1-.351.758,1.952,1.952,0,0,1-1.189.8,2.632,2.632,0,0,1-1.294.031A2.324,2.324,0,0,1,349.251,65.667Zm.93-3.427a1.82,1.82,0,0,0-.37,1.337,2.1,2.1,0,0,0,.333,1.239.86.86,0,0,0,.406.259.9.9,0,0,0,.6.018.994.994,0,0,0,.536-.438,2.207,2.207,0,0,0,.253-1.128,2,2,0,0,0-.222-1.054,1.017,1.017,0,0,0-.518-.45.95.95,0,0,0-.586-.012.976.976,0,0,0-.431.228Z" transform="translate(-348.493 -60.828)"/></g><g transform="translate(12.847 1.534)"><path class="h" d="M429.4,67.889V66.854l2.786-3.081H430.22a.64.64,0,0,1-.469-.185.611.611,0,0,1-.2-.456V62.7h4.252v1.116l-2.748,2.946H433.9V67.9Z" transform="translate(-429.4 -62.7)"/></g><g transform="translate(17.447 0)"><path class="h" d="M507.649,37.8h.665a.634.634,0,0,1,.468.2.672.672,0,0,1,.2.456v3.8a2.015,2.015,0,0,1-.807,1.873,3.242,3.242,0,0,1-1.732.487,3.021,3.021,0,0,1-.992-.166,1.645,1.645,0,0,1-.782-.536,3.108,3.108,0,0,1-.567-1.966,3.188,3.188,0,0,1,.567-1.972,1.89,1.89,0,0,1,2.354-.56,1.92,1.92,0,0,1,.635.6V37.8Zm-2.224,4.092a2.052,2.052,0,0,0,.29,1.189.965.965,0,0,0,.838.407.954.954,0,0,0,.82-.407,2.125,2.125,0,0,0,.271-1.189,1.9,1.9,0,0,0-.29-1.109,1.01,1.01,0,0,0-.838-.388.922.922,0,0,0-.8.406,1.727,1.727,0,0,0-.29,1.091Z" transform="translate(-504.095 -37.8)"/></g><g transform="translate(22.445 1.415)"><path class="h" d="M588.817,64.509h.98a2.111,2.111,0,0,1-.82,1.245,2.516,2.516,0,0,1-1.52.444,2.16,2.16,0,0,1-1.732-.72,3.5,3.5,0,0,1-.018-3.956,2.167,2.167,0,0,1,1.738-.72,2.32,2.32,0,0,1,1.812.7,2.992,2.992,0,0,1,.622,2.009v.216a.481.481,0,0,1-.018.136h-3.372a1.344,1.344,0,0,0,.289.893.91.91,0,0,0,.758.314,1.133,1.133,0,0,0,.567-.136.208.208,0,0,0,.1-.068l.1-.1a.443.443,0,0,1,.148-.154A.616.616,0,0,1,588.817,64.509Zm-2.336-1.52h1.991a1.28,1.28,0,0,0-.271-.782,1.069,1.069,0,0,0-1.424,0A1.094,1.094,0,0,0,586.481,62.99Z" transform="translate(-585.103 -60.797)"/></g><g transform="translate(27.311 1.424)"><path class="h" d="M664.1,64.487h1.325a.726.726,0,0,0,.29.586,1.4,1.4,0,0,0,.783.2,1.213,1.213,0,0,0,.6-.142.41.41,0,0,0,.234-.37c0-.234-.271-.407-.82-.524a3.785,3.785,0,0,1-.524-.117,3.053,3.053,0,0,1-1.387-.6,1.2,1.2,0,0,1-.389-.934,1.562,1.562,0,0,1,.56-1.226,2.454,2.454,0,0,1,1.52-.45,2.647,2.647,0,0,1,1.621.45,1.724,1.724,0,0,1,.6,1.269h-.838a.626.626,0,0,1-.567-.333l-.154-.154a1.04,1.04,0,0,0-.64-.173,1.141,1.141,0,0,0-.585.117.377.377,0,0,0-.173.351c0,.21.339.382,1.017.524.068.025.135.043.2.062a.765.765,0,0,0,.166.018,3.581,3.581,0,0,1,1.386.585,1.235,1.235,0,0,1,.37.937,1.559,1.559,0,0,1-.622,1.325,2.968,2.968,0,0,1-1.75.426,2.559,2.559,0,0,1-1.658-.45,1.562,1.562,0,0,1-.567-1.3Z" transform="translate(-664.1 -60.9)"/></g><g transform="translate(32.133 0.018)"><path class="h" d="M743.661,39.62v1.91l1.66-1.91h1.639L745.1,41.6l1.873,3.2H745.34l-.955-1.76c-.2-.351-.364-.5-.505-.45s-.216.13-.216.234v1.966H742.3V38.1h.7a.64.64,0,0,1,.469.2.621.621,0,0,1,.2.45Z" transform="translate(-742.304 -38.1)"/></g><g transform="translate(36.796 0.518)"><g transform="translate(0 0)"><path class="h" d="M818.3,47.2v-.826H818V46.3a.108.108,0,0,1,.1-.1h.7v.178h-.3v.832l-.2-.006Z" transform="translate(-818 -46.2)"/></g><g transform="translate(0.845 0)"><path class="h" d="M831.7,47.2v-.9a.1.1,0,0,1,.031-.074.114.114,0,0,1,.074-.031h.2l.2.77.2-.77h.308v1.011h-.191v-.82l-.2.813H832.1l-.21-.813V47.2Z" transform="translate(-831.7 -46.2)"/></g></g></g><text class="i" transform="translate(31.03 65.379)"><tspan x="0" y="0">QUALITY</tspan></text><text class="i" transform="translate(33.388 80.577)"><tspan x="0" y="0">CHOICE</tspan></text><text class="j" transform="translate(44.922 122.37)"><tspan x="0" y="0">2020</tspan></text><path class="f" d="M5.3,2.842,5.8,4.06l1.319.1a.538.538,0,0,1,.467.366.52.52,0,0,1-.166.56l-1.009.845L6.73,7.2a.526.526,0,0,1-.2.56.54.54,0,0,1-.6.022L4.8,7.1l-1.131.677a.543.543,0,0,1-.594-.019.532.532,0,0,1-.206-.56L3.188,5.92l-1.01-.844A.523.523,0,0,1,2,4.516a.532.532,0,0,1,.49-.363l1.319-.09.5-1.215a.534.534,0,0,1,.987,0Z" transform="translate(35.69 114.491)"/><text class="k" transform="translate(14.595 98.573)"><tspan x="0" y="0">TOP RANKED SOLUTION</tspan></text></g></g></g></g></svg>