<svg xmlns="http://www.w3.org/2000/svg" xmlns:xlink="http://www.w3.org/1999/xlink" width="164.531" height="213.41" viewBox="0 0 164.531 213.41"><defs><style>.a{fill:#a3333c;}.b,.k{fill:#fff;}.c{fill:url(#c);}.d{fill:url(#d);}.e{fill:#5690ff;}.f,.i,.j{fill:#252e48;}.g{fill:none;stroke:#252d48;}.h{fill:#387dff;}.i{font-size:15px;}.i,.j,.k{font-family:Montserrat-Bold, Montserrat;font-weight:700;}.j{font-size:13px;}.k{font-size:9px;}.l{filter:url(#g);}.m{filter:url(#e);}.n{filter:url(#a);}</style><filter id="a" x="0.891" y="0" width="163.3" height="213.41" filterUnits="userSpaceOnUse"><feOffset dy="2" input="SourceAlpha"/><feGaussianBlur stdDeviation="6" result="b"/><feFlood flood-color="#6290f8" flood-opacity="0.396"/><feComposite operator="in" in2="b"/><feComposite in="SourceGraphic"/></filter><linearGradient id="c" x1="0.5" x2="0.5" y2="1" gradientUnits="objectBoundingBox"><stop offset="0" stop-color="#eef5ff"/><stop offset="1" stop-color="#cfe1ff"/></linearGradient><linearGradient id="d" x1="0.5" x2="0.5" y2="1" gradientUnits="objectBoundingBox"><stop offset="0" stop-color="#e79e00"/><stop offset="1" stop-color="#f37c6a"/></linearGradient><filter id="e" x="0" y="119.209" width="164.531" height="44.758" filterUnits="userSpaceOnUse"><feOffset dy="3" input="SourceAlpha"/><feGaussianBlur stdDeviation="3" result="f"/><feFlood flood-color="#2352e0" flood-opacity="0.149"/><feComposite operator="in" in2="f"/><feComposite in="SourceGraphic"/></filter><filter id="g" x="52.79" y="16.149" width="60.22" height="59.129" filterUnits="userSpaceOnUse"><feOffset dy="3" input="SourceAlpha"/><feGaussianBlur stdDeviation="3" result="h"/><feFlood flood-color="#2352e0" flood-opacity="0.149"/><feComposite operator="in" in2="h"/><feComposite in="SourceGraphic"/></filter></defs><g transform="translate(-469.004 -5029.321)"><g transform="translate(478.094 5045)"><path class="a" d="M2631.106-4202.286,2621-4194.521v-15.4Z" transform="translate(-2484.683 4338.479)"/><path class="a" d="M2621-4202.286l10.107,7.765v-15.4Z" transform="translate(-2620.344 4338.479)"/><g class="n" transform="matrix(1, 0, 0, 1, -9.09, -15.68)"><path class="b" d="M63.907,177.66a7.451,7.451,0,0,1-3.747-1.066h-.012L.25,145.316V.25h127.3V145.316l-59.9,31.272h-.012a7.424,7.424,0,0,1-3.731,1.072Z" transform="translate(18.64 15.75)"/></g><path class="b" d="M63.978,177.41a7.108,7.108,0,0,0,3.571-1.023l.024-.013L127.3,145.193V.643H.643v144.55l59.725,31.181.024.013a7.135,7.135,0,0,0,3.586,1.023m0,.643a7.826,7.826,0,0,1-3.908-1.109L0,145.582V0H127.941V145.582l-60.07,31.362a7.7,7.7,0,0,1-3.893,1.109Z" transform="translate(9.48)"/><path class="c" d="M53.871,161.6,0,134.117V3.856A3.856,3.856,0,0,1,3.856,0H110.883a3.856,3.856,0,0,1,3.856,3.856V134.117L60.867,161.6a6.941,6.941,0,0,1-3.491.988,7.055,7.055,0,0,1-3.5-.988Z" transform="translate(16.71 6.618)"/><g class="m" transform="matrix(1, 0, 0, 1, -9.09, -15.68)"><path class="d" d="M2.571,0H143.96c1.42,0,2.571.773,2.571,1.726V26.758H0V1.726C0,.773,1.151,0,2.571,0Z" transform="translate(9 125.21)"/></g><g class="l" transform="matrix(1, 0, 0, 1, -9.09, -15.68)"><path class="e" d="M19.769,40.9,0,30.891l.1-.066V0H42.22V30.939h-.21L22.336,40.9a3.671,3.671,0,0,1-1.285.234,3.71,3.71,0,0,1-1.282-.234Z" transform="translate(61.79 22.15)"/></g><path class="f" d="M6.131,2.923l.631,1.523,1.649.12a.672.672,0,0,1,.584.458.65.65,0,0,1-.207.7L7.526,6.781l.393,1.594a.658.658,0,0,1-.249.7.675.675,0,0,1-.753.028L5.509,8.245l-1.414.847a.679.679,0,0,1-.742-.024.665.665,0,0,1-.257-.7l.394-1.6L2.227,5.716a.654.654,0,0,1-.221-.7.665.665,0,0,1,.612-.454l1.649-.113L4.893,2.93a.668.668,0,0,1,1.234,0Z" transform="translate(90.011 143.766)"/><g transform="translate(24.422 85.966)"><line class="g" x2="9.613" transform="translate(89.794)"/><line class="g" x2="9.613"/></g><path class="b" d="M10.85,24.027A3.649,3.649,0,0,1,9.02,23.5c-1.2-.693-2.414-1.4-3.592-2.076s-2.393-1.382-3.591-2.075A3.686,3.686,0,0,1,.456,18.025,3.584,3.584,0,0,1,0,16.165c.013-1.4.013-2.816.013-4.189V10.619h0c0-.891.006-1.811,0-2.717A4.12,4.12,0,0,1,.118,6.871,3.27,3.27,0,0,1,.47,5.986a3.358,3.358,0,0,1,.595-.745A4.391,4.391,0,0,1,1.9,4.629C4.29,3.263,6.687,1.873,9.006.529h0A3.716,3.716,0,0,1,10.856,0,3.716,3.716,0,0,1,12.7.528c.916.529,1.849,1.068,2.75,1.59h0c1.438.832,2.924,1.693,4.394,2.535a4.247,4.247,0,0,1,.8.593,3.329,3.329,0,0,1,.578.724,3.272,3.272,0,0,1,.35.858,4.074,4.074,0,0,1,.117,1v8.39a3.957,3.957,0,0,1-.117.979,3.232,3.232,0,0,1-.348.846,3.744,3.744,0,0,1-1.371,1.307c-1.19.689-2.4,1.39-3.578,2.068l-.012.007h0L12.68,23.5a3.649,3.649,0,0,1-1.83.528Zm-.226-19.8a.647.647,0,0,0-.3.1l-.788.453c-.712.41-1.449.833-2.169,1.257a.5.5,0,0,0-.113.063l-.768.446c-.683.4-1.388.807-2.087,1.2a.77.77,0,0,0-.428.6.076.076,0,0,1-.013.05c-.009.009-.005.024,0,.036a.071.071,0,0,1,0,.014v7.019a.776.776,0,0,0,.44.755c1,.58,2.026,1.171,3.016,1.742h0c.981.566,2,1.151,2.991,1.727a.845.845,0,0,0,.448.131.818.818,0,0,0,.219-.03,1.384,1.384,0,0,0,.239-.1c.578-.339,1.171-.679,1.745-1.009h0c.364-.209.74-.424,1.11-.639l.051-.032.05-.031,2.956-1.711c.173-.1.261-.2.261-.311s-.1-.223-.286-.331l-.782-.45h0c-.712-.41-1.449-.833-2.169-1.258a.779.779,0,0,0-.868,0c-.365.22-.742.434-1.107.642s-.742.421-1.107.642a.538.538,0,0,1-.323.1.636.636,0,0,1-.142-.017c-.856-.5-1.63-.954-2.428-1.384a.622.622,0,0,1-.3-.274.657.657,0,0,1-.076-.406c.013-.866.013-1.738,0-2.591a.535.535,0,0,1,.327-.541c.371-.207.744-.424,1.105-.634s.737-.428,1.109-.636a.781.781,0,0,0,.338-.307.762.762,0,0,0,.1-.448c-.008-.755-.006-1.528,0-2.275V4.655a.658.658,0,0,0-.065-.327.211.211,0,0,0-.181-.1Z" transform="translate(63.55 12.713)"/><g transform="translate(50.526 50.953)"><g transform="translate(0 1.772)"><path class="h" d="M225.554,65.438h1.225a2.639,2.639,0,0,1-1.025,1.556,3.145,3.145,0,0,1-1.9.555,2.731,2.731,0,0,1-2.173-.9,4.373,4.373,0,0,1-.023-4.946,2.7,2.7,0,0,1,2.165-.9,2.9,2.9,0,0,1,2.265.878,3.383,3.383,0,0,1,.632,1.24h-1.71a1.435,1.435,0,0,0-.247-.362,1.337,1.337,0,0,0-1.78,0,2.382,2.382,0,0,0-.439,1.61,2.3,2.3,0,0,0,.439,1.587,1.137,1.137,0,0,0,.948.393,1.417,1.417,0,0,0,.709-.169.3.3,0,0,0,.131-.085l.131-.131a1.139,1.139,0,0,1,.193-.193.815.815,0,0,1,.459-.133Z" transform="translate(-220.9 -60.8)"/></g><g transform="translate(6.141 1.926)"><path class="h" d="M300.6,69.28V66.136a4.052,4.052,0,0,1,.277-1.6,2.679,2.679,0,0,1,.763-1.032,3.191,3.191,0,0,1,1.086-.539,4.781,4.781,0,0,1,1.279-.17h.247v1.734h-.562a1.439,1.439,0,0,0-1.048.339,1.475,1.475,0,0,0-.339,1.071v3.344Z" transform="translate(-300.6 -62.8)"/></g><g transform="translate(9.831 1.775)"><path class="h" d="M349.441,66.877a2.432,2.432,0,0,1-.732-1.179,5.263,5.263,0,0,1-.216-1.549,4.772,4.772,0,0,1,.185-1.318,2.713,2.713,0,0,1,.57-1.093,2.5,2.5,0,0,1,1.626-.863,3.66,3.66,0,0,1,1.8.162,2.479,2.479,0,0,1,1.364,1.271,4.038,4.038,0,0,1,.416,1.872,4.639,4.639,0,0,1-.17,1.341,3.54,3.54,0,0,1-.439.948,2.44,2.44,0,0,1-1.487,1,3.29,3.29,0,0,1-1.618.039A2.9,2.9,0,0,1,349.441,66.877Zm1.163-4.284a2.275,2.275,0,0,0-.462,1.672,2.626,2.626,0,0,0,.416,1.549,1.075,1.075,0,0,0,.508.324,1.13,1.13,0,0,0,.747.023,1.243,1.243,0,0,0,.67-.547,2.759,2.759,0,0,0,.316-1.41,2.5,2.5,0,0,0-.277-1.318,1.271,1.271,0,0,0-.647-.562,1.188,1.188,0,0,0-.732-.015,1.22,1.22,0,0,0-.539.285Z" transform="translate(-348.493 -60.832)"/></g><g transform="translate(16.064 1.918)"><path class="h" d="M429.4,69.187V67.893l3.483-3.852h-2.458a.8.8,0,0,1-.586-.231.764.764,0,0,1-.247-.57V62.7h5.316v1.4l-3.436,3.683h3.56V69.2Z" transform="translate(-429.4 -62.7)"/></g><g transform="translate(21.82)"><path class="h" d="M508.538,37.8h.832a.792.792,0,0,1,.585.254.84.84,0,0,1,.247.57v4.754a2.519,2.519,0,0,1-1.009,2.342,4.053,4.053,0,0,1-2.165.609,3.777,3.777,0,0,1-1.24-.208,2.057,2.057,0,0,1-.978-.67,3.886,3.886,0,0,1-.709-2.458,3.986,3.986,0,0,1,.709-2.465,2.363,2.363,0,0,1,2.943-.7,2.4,2.4,0,0,1,.794.755V37.8Zm-2.781,5.116a2.565,2.565,0,0,0,.362,1.487,1.207,1.207,0,0,0,1.048.509,1.193,1.193,0,0,0,1.025-.509,2.656,2.656,0,0,0,.339-1.487,2.37,2.37,0,0,0-.362-1.387,1.263,1.263,0,0,0-1.048-.485,1.153,1.153,0,0,0-1,.508,2.159,2.159,0,0,0-.362,1.364Z" transform="translate(-504.1 -37.8)"/></g><g transform="translate(28.061 1.772)"><path class="h" d="M589.746,65.438h1.225a2.639,2.639,0,0,1-1.025,1.556,3.145,3.145,0,0,1-1.9.555,2.7,2.7,0,0,1-2.165-.9,4.373,4.373,0,0,1-.023-4.946,2.71,2.71,0,0,1,2.173-.9,2.9,2.9,0,0,1,2.265.878,3.74,3.74,0,0,1,.778,2.512v.27a.6.6,0,0,1-.023.17h-4.215a1.681,1.681,0,0,0,.362,1.117,1.137,1.137,0,0,0,.948.393,1.417,1.417,0,0,0,.709-.17.26.26,0,0,0,.131-.085l.131-.131a.554.554,0,0,1,.185-.193.77.77,0,0,1,.444-.126Zm-2.92-1.9h2.489a1.6,1.6,0,0,0-.339-.978,1.337,1.337,0,0,0-1.78,0A1.368,1.368,0,0,0,586.826,63.538Z" transform="translate(-585.1 -60.8)"/></g><g transform="translate(34.147 1.78)"><path class="h" d="M664.1,65.384h1.657a.908.908,0,0,0,.362.732,1.752,1.752,0,0,0,.979.247,1.516,1.516,0,0,0,.755-.177.512.512,0,0,0,.293-.462c0-.293-.339-.509-1.025-.655a4.733,4.733,0,0,1-.655-.146,3.817,3.817,0,0,1-1.734-.755A1.506,1.506,0,0,1,664.246,63a1.953,1.953,0,0,1,.7-1.533,3.068,3.068,0,0,1,1.9-.562,3.309,3.309,0,0,1,2.026.562,2.155,2.155,0,0,1,.755,1.587h-1.048a.783.783,0,0,1-.709-.416l-.193-.193a1.3,1.3,0,0,0-.8-.216,1.427,1.427,0,0,0-.732.146.471.471,0,0,0-.216.439c0,.262.424.478,1.271.655.085.031.169.054.254.077a.956.956,0,0,0,.208.023,4.478,4.478,0,0,1,1.733.732,1.544,1.544,0,0,1,.462,1.171,1.949,1.949,0,0,1-.778,1.657,3.71,3.71,0,0,1-2.188.532,3.2,3.2,0,0,1-2.073-.562,1.953,1.953,0,0,1-.709-1.626Z" transform="translate(-664.1 -60.9)"/></g><g transform="translate(40.172 0.023)"><path class="h" d="M744,40v2.388L746.075,40h2.049l-2.319,2.481,2.342,4H746.1l-1.194-2.2c-.247-.439-.455-.624-.632-.562s-.27.162-.27.293V46.47h-1.7V38.1h.878a.8.8,0,0,1,.586.247.776.776,0,0,1,.247.562Z" transform="translate(-742.3 -38.1)"/></g><g transform="translate(46.005 0.647)"><path class="h" d="M818.378,47.456V46.423H818v-.092a.135.135,0,0,1,.131-.131H819v.223h-.37v1.04l-.254-.008Z" transform="translate(-818 -46.2)"/><g transform="translate(1.056)"><path class="h" d="M831.7,47.456V46.331a.128.128,0,0,1,.039-.092.143.143,0,0,1,.092-.039h.254l.247.963.247-.963h.385v1.264h-.239V46.439l-.254,1.017h-.27l-.262-1.017v1.017Z" transform="translate(-831.7 -46.2)"/></g></g></g><text class="i" transform="translate(38.704 81.734)"><tspan x="0" y="0">QUALITY</tspan></text><text class="i" transform="translate(41.651 100.734)"><tspan x="0" y="0">CHOICE</tspan></text><text class="j" transform="translate(56.071 154.734)"><tspan x="0" y="0">2020</tspan></text><path class="f" d="M6.131,2.923l.631,1.523,1.649.12a.672.672,0,0,1,.584.458.65.65,0,0,1-.207.7L7.526,6.781l.393,1.594a.658.658,0,0,1-.249.7.675.675,0,0,1-.753.028L5.509,8.245l-1.414.847a.679.679,0,0,1-.742-.024.665.665,0,0,1-.257-.7l.394-1.6L2.227,5.716a.654.654,0,0,1-.221-.7.665.665,0,0,1,.612-.454l1.649-.113L4.893,2.93a.668.668,0,0,1,1.234,0Z" transform="translate(45.024 143.766)"/><text class="k" transform="translate(18.156 124.734)"><tspan x="0" y="0">TOP RANKED SOLUTION</tspan></text></g></g></svg>