<svg xmlns="http://www.w3.org/2000/svg" xmlns:xlink="http://www.w3.org/1999/xlink" width="228" height="73.265" viewBox="0 0 228 73.265"><defs><style>.a,.h{fill:#fff;}.a{stroke:#bdcffb;}.b{fill:#eef5ff;}.c{fill:#f7cf06;}.d{fill:#f37c6a;}.e{fill:#5690ff;}.f{fill:#4fdc6f;}.g{fill:#766de8;}.i{stroke:none;}.j{fill:none;}.k{filter:url(#c);}.l{filter:url(#a);}</style><filter id="a" x="0" y="0" width="228" height="73.265" filterUnits="userSpaceOnUse"><feOffset dx="-4" dy="4" input="SourceAlpha"/><feGaussianBlur stdDeviation="7" result="b"/><feFlood flood-color="#5690ff" flood-opacity="0.161"/><feComposite operator="in" in2="b"/><feComposite in="SourceGraphic"/></filter><filter id="c" x="0" y="4" width="60" height="61" filterUnits="userSpaceOnUse"><feOffset dy="2" input="SourceAlpha"/><feGaussianBlur stdDeviation="2" result="d"/><feFlood flood-color="#0047ce" flood-opacity="0.2"/><feComposite operator="in" in2="d"/><feComposite in="SourceGraphic"/></filter></defs><g transform="translate(-169 -2487)"><g transform="translate(714.304 5496.265) rotate(180)"><g class="l" transform="matrix(-1, 0, 0, -1, 545.3, 3009.27)"><g class="a" transform="translate(211 48.27) rotate(180)"><rect class="i" width="186" height="31.265" rx="15"/><rect class="j" x="0.5" y="0.5" width="185" height="30.265" rx="14.5"/></g></g><rect class="b" width="166" height="13.445" rx="6.722" transform="translate(344.304 2969.91)"/><path class="c" d="M7,0H33a0,0,0,0,1,0,0V14.261a0,0,0,0,1,0,0H7a7,7,0,0,1-7-7V7A7,7,0,0,1,7,0Z" transform="translate(344.304 2969.502)"/><rect class="d" width="33" height="14.261" transform="translate(377.304 2969.502)"/><rect class="e" width="33" height="14.261" transform="translate(410.304 2969.502)"/><rect class="f" width="33" height="14.261" transform="translate(443.304 2969.502)"/><path class="g" d="M0,0H27a7,7,0,0,1,7,7v.261a7,7,0,0,1-7,7H0a0,0,0,0,1,0,0V0A0,0,0,0,1,0,0Z" transform="translate(476.304 2969.502)"/></g><g class="k" transform="matrix(1, 0, 0, 1, 169, 2487)"><ellipse class="c" cx="24" cy="24.5" rx="24" ry="24.5" transform="translate(6 8)"/></g><g transform="translate(185.158 2505.156)"><path class="h" d="M3,19.645v3.614a.675.675,0,0,0,.687.687H7.3a1.373,1.373,0,0,0,.964-.4l11.6-11.7a.687.687,0,0,0,0-.964L16,7.033a.687.687,0,0,0-.952,0L3.4,18.681A1.373,1.373,0,0,0,3,19.645Z" transform="translate(0 0.786)"/><path class="h" d="M21.768,6.289,18.876,3.4a1.361,1.361,0,0,0-1.927,0L15.5,4.843a.687.687,0,0,0,0,.964l3.855,3.855a.687.687,0,0,0,.964,0l1.446-1.446a1.361,1.361,0,0,0,0-1.927Z" transform="translate(2.518)"/></g></g></svg>