<svg xmlns="http://www.w3.org/2000/svg" xmlns:xlink="http://www.w3.org/1999/xlink" width="61.749" height="61.749" viewBox="0 0 61.749 61.749"><defs><style>.a{fill:#d87624;}.b{fill:#be4f29;}.c{fill:url(#a);}.d{fill:#fff;stroke:rgba(0,0,0,0);}.e{filter:url(#b);}</style><linearGradient id="a" x1="0.5" y1="0.043" x2="0.5" y2="0.933" gradientUnits="objectBoundingBox"><stop offset="0" stop-color="#fc983f"/><stop offset="1" stop-color="#f5835f"/></linearGradient><filter id="b" x="0" y="0" width="61.749" height="61.749" filterUnits="userSpaceOnUse"><feOffset dy="3" input="SourceAlpha"/><feGaussianBlur stdDeviation="4.5" result="c"/><feFlood flood-color="#f6865a" flood-opacity="0.302"/><feComposite operator="in" in2="c"/><feComposite in="SourceGraphic"/></filter></defs><g transform="translate(-1278.672 -303.314)"><rect class="a" width="2" height="1" transform="translate(1292 314)"/><rect class="b" width="2" height="1" transform="translate(1326.8 346.5) rotate(90)"/><g class="e" transform="matrix(1, 0, 0, 1, 1278.67, 303.31)"><path class="c" d="M34.749,16.435V34.749L0,0H18.314Z" transform="translate(13.5 10.5)"/></g><path class="d" d="M8.123,11.755a3.737,3.737,0,0,1-1.451-.935L4.788,8.935,8.935,4.788l1.884,1.884a3.745,3.745,0,0,1,.936,1.451,2.73,2.73,0,0,1,.08,1.531,3.122,3.122,0,0,1-2.18,2.18,2.681,2.681,0,0,1-.621.075A2.844,2.844,0,0,1,8.123,11.755ZM6.535,9.107l.878.877a1.982,1.982,0,0,0,1.339.646h.054a1.747,1.747,0,0,0,1.254-.569,1.732,1.732,0,0,0,.569-1.309,1.974,1.974,0,0,0-.645-1.339l-.877-.878ZM2.843,6.991l1.7-1.7L2.66,3.407l-1.7,1.7L0,4.147,4.147,0l.961.959L3.472,2.6,5.356,4.479,6.991,2.844l.959.959L3.8,7.951Z" transform="translate(1308.313 320.89)"/></g></svg>