<svg xmlns="http://www.w3.org/2000/svg" width="19.424" height="21.005" viewBox="0 0 19.424 21.005"><defs><style>.a{fill:#f5fafe;}</style></defs><g transform="matrix(0.966, -0.259, 0.259, 0.966, -1.912, 4.59)"><g transform="translate(0 7.389)"><g transform="translate(0 0)"><path class="a" d="M1.847,0A1.85,1.85,0,0,0,0,1.847V7.758A1.85,1.85,0,0,0,1.847,9.606H4.064a1.834,1.834,0,0,0,1.108-.374V0Z"/></g></g><g transform="translate(5.911 0)"><g transform="translate(0 0)"><path class="a" d="M11.822,10.16A1.638,1.638,0,0,0,11.341,9a1.834,1.834,0,0,0,.473-1.411A1.91,1.91,0,0,0,9.887,5.911H5.323a10.623,10.623,0,0,0,.588-2.956C5.911,1.353,4.549,0,3.694,0a2.324,2.324,0,0,0-1.34.45.371.371,0,0,0-.138.289V3.244L.089,7.854,0,7.9v7.919a4.841,4.841,0,0,0,1.847.437H8.63A1.7,1.7,0,0,0,10.3,14.965a1.662,1.662,0,0,0-.134-1.11,1.655,1.655,0,0,0,.74-2.217A1.654,1.654,0,0,0,11.822,10.16Z" transform="translate(0)"/></g></g></g></svg>