<svg xmlns="http://www.w3.org/2000/svg" width="20.54" height="22.211" viewBox="0 0 20.54 22.211"><defs><style>.a{fill:#f5fafe;}</style></defs><g transform="matrix(-0.966, -0.259, 0.259, -0.966, 17.911, 22.211)"><g transform="translate(0 0)"><g transform="translate(0 0)"><path class="a" d="M1.953,10.157A1.956,1.956,0,0,1,0,8.2V1.953A1.956,1.956,0,0,1,1.953,0H4.3A1.939,1.939,0,0,1,5.469.4v9.762Z"/></g></g><g transform="translate(6.251 0.781)"><g transform="translate(0 0)"><path class="a" d="M12.5,6.446a1.733,1.733,0,0,1-.509,1.23,1.94,1.94,0,0,1,.5,1.492,2.02,2.02,0,0,1-2.038,1.771H5.629a11.233,11.233,0,0,1,.622,3.125c0,1.695-1.44,3.125-2.344,3.125a2.458,2.458,0,0,1-1.417-.476.393.393,0,0,1-.146-.305V13.758L.094,8.884,0,8.836V.462A5.119,5.119,0,0,1,1.953,0H9.125A1.8,1.8,0,0,1,10.9,1.365a1.758,1.758,0,0,1-.141,1.174,1.75,1.75,0,0,1,.782,2.345A1.749,1.749,0,0,1,12.5,6.446Z"/></g></g></g></svg>