<svg xmlns="http://www.w3.org/2000/svg" width="13.416" height="14.508" viewBox="0 0 13.416 14.508"><defs><style>.a{fill:#f5fafe;}</style></defs><g transform="matrix(0.966, -0.259, 0.259, 0.966, -1.321, 3.17)"><g transform="translate(0 5.103)"><g transform="translate(0 0)"><path class="a" d="M1.276,0A1.278,1.278,0,0,0,0,1.276V5.358A1.278,1.278,0,0,0,1.276,6.634H2.807a1.267,1.267,0,0,0,.766-.258V0Z"/></g></g><g transform="translate(4.083)"><g transform="translate(0)"><path class="a" d="M8.165,7.017a1.132,1.132,0,0,0-.332-.8A1.267,1.267,0,0,0,8.16,5.24,1.319,1.319,0,0,0,6.829,4.083H3.676a7.337,7.337,0,0,0,.406-2.041A2.086,2.086,0,0,0,2.552,0a1.605,1.605,0,0,0-.925.311.256.256,0,0,0-.1.2V2.241L.061,5.425,0,5.456v5.47a3.344,3.344,0,0,0,1.276.3H5.96a1.174,1.174,0,0,0,1.156-.892,1.148,1.148,0,0,0-.092-.767,1.143,1.143,0,0,0,.511-1.532A1.142,1.142,0,0,0,8.165,7.017Z"/></g></g></g></svg>