<svg xmlns="http://www.w3.org/2000/svg" width="16.499" height="17.843" viewBox="0 0 16.499 17.843"><defs><style>.a{fill:#f5fafe;}</style></defs><g transform="matrix(-0.966, -0.259, 0.259, -0.966, 14.388, 17.843)"><g transform="translate(0 0)"><path class="a" d="M1.569,8.159A1.571,1.571,0,0,1,0,6.59V1.569A1.571,1.571,0,0,1,1.569,0H3.452a1.558,1.558,0,0,1,.941.318V8.159Z"/></g><g transform="translate(5.021 0.628)"><g transform="translate(0 0)"><path class="a" d="M10.042,5.178a1.392,1.392,0,0,1-.409.988,1.558,1.558,0,0,1,.4,1.2A1.622,1.622,0,0,1,8.4,8.787H4.522a9.024,9.024,0,0,1,.5,2.511,2.565,2.565,0,0,1-1.883,2.511A1.974,1.974,0,0,1,2,13.426a.315.315,0,0,1-.117-.245V11.052L.075,7.136,0,7.1V.371A4.112,4.112,0,0,1,1.569,0H7.33A1.444,1.444,0,0,1,8.752,1.1a1.412,1.412,0,0,1-.114.943,1.406,1.406,0,0,1,.628,1.884A1.4,1.4,0,0,1,10.042,5.178Z"/></g></g></g></svg>