<svg xmlns="http://www.w3.org/2000/svg" xmlns:xlink="http://www.w3.org/1999/xlink" width="88" height="147" viewBox="0 0 88 147"><defs><style>.a{fill:#fff;stroke:#707070;}.b{clip-path:url(#a);}.c{opacity:0.05;}.d{fill:#b9cfff;}.e{fill:#5690ff;}</style><clipPath id="a"><rect class="a" width="88" height="147" transform="translate(1251.042 5210)"/></clipPath></defs><g class="b" transform="translate(-1251.042 -5210)"><g class="c" transform="translate(1278.38 5199.434) rotate(30)"><g transform="translate(0 0)"><path class="d" d="M30.207,64.083c.291,3.149.068,11.708-8.13,23.609a2.258,2.258,0,0,0,.263,2.879c3.343,3.343,5.412,5.452,6.864,6.928,1.909,1.946,2.78,2.833,4.055,3.989a2.264,2.264,0,0,0,3,.028C50.549,89.082,66.422,63.386,64.125,31.9,62.779,13.418,49.3,0,32.067,0a32.068,32.068,0,0,0-1.86,64.083Z" transform="translate(0 0)"/><path class="d" d="M30.209,64.083c.293,3.14.077,11.692-8.13,23.609a2.261,2.261,0,0,0,.263,2.879c3.336,3.336,5.4,5.443,6.853,6.92,1.915,1.951,2.789,2.84,4.064,4a2.269,2.269,0,0,0,3,.031C50.549,89.085,66.424,63.392,64.132,31.9v0C62.781,13.418,49.3,0,32.067,0a32.068,32.068,0,0,0-1.858,64.083Z" transform="translate(80.238 0)"/></g><g transform="translate(7.367 8.016)"><path class="e" d="M30.207,64.083c.291,3.149.068,11.708-8.13,23.609a2.258,2.258,0,0,0,.263,2.879c3.343,3.343,5.412,5.452,6.864,6.928,1.909,1.946,2.78,2.833,4.055,3.989a2.264,2.264,0,0,0,3,.028C50.549,89.082,66.422,63.386,64.125,31.9,62.779,13.418,49.3,0,32.067,0a32.068,32.068,0,0,0-1.86,64.083Zm1.86-59.564c14.8,0,26.381,11.655,27.553,27.711v0C62.2,67.64,41.157,90.638,34.8,96.728c-.62-.611-1.328-1.33-2.372-2.394-1.257-1.28-2.979-3.032-5.582-5.644C36.8,73.355,34.92,62.428,34.1,60.861a2.34,2.34,0,0,0-2.03-1.244,27.549,27.549,0,0,1,0-55.1Z" transform="translate(0 0)"/><path class="e" d="M30.209,64.083c.293,3.14.077,11.692-8.13,23.609a2.261,2.261,0,0,0,.263,2.879c3.336,3.336,5.4,5.443,6.853,6.92,1.915,1.951,2.789,2.84,4.064,4a2.269,2.269,0,0,0,3,.031C50.549,89.085,66.424,63.392,64.132,31.9v0C62.781,13.418,49.3,0,32.067,0a32.068,32.068,0,0,0-1.858,64.083ZM32.067,4.519c14.793,0,26.386,11.655,27.559,27.713v0C62.2,67.646,41.157,90.64,34.8,96.728c-.622-.611-1.333-1.335-2.379-2.4-1.255-1.28-2.974-3.029-5.573-5.638C36.8,73.352,34.922,62.428,34.1,60.864a2.345,2.345,0,0,0-2.032-1.247,27.549,27.549,0,0,1,0-55.1Z" transform="translate(80.238 0)"/></g></g></g></svg>