<svg xmlns="http://www.w3.org/2000/svg" xmlns:xlink="http://www.w3.org/1999/xlink" width="103" height="147" viewBox="0 0 103 147"><defs><style>.a{fill:#fff;stroke:#707070;}.b{clip-path:url(#a);}.c{opacity:0.05;}.d{fill:#b9cfff;}.e{fill:#5690ff;}</style><clipPath id="a"><rect class="a" width="103" height="147" transform="translate(-0.346 5489)"/></clipPath></defs><g class="b" transform="translate(0.346 -5489)"><g class="c" transform="translate(-17.44 5467.812) rotate(30)"><g transform="translate(0 8.599)"><path class="d" d="M32.4,40.751c.312-3.377.073-12.558-8.721-25.325a2.422,2.422,0,0,1,.282-3.089c3.586-3.586,5.806-5.849,7.363-7.432,2.047-2.088,2.982-3.039,4.35-4.279A2.429,2.429,0,0,1,38.894.595C54.224,13.934,71.25,41.5,68.786,75.269,67.342,95.1,52.879,109.491,34.4,109.491a34.4,34.4,0,0,1-2-68.741Z" transform="translate(0 0)"/><path class="d" d="M32.405,40.75c.315-3.368.083-12.542-8.721-25.325a2.425,2.425,0,0,1,.282-3.089c3.579-3.579,5.8-5.839,7.351-7.422,2.054-2.092,2.992-3.046,4.359-4.289A2.434,2.434,0,0,1,38.894.592c15.329,13.34,32.358,40.9,29.9,74.677v0C67.345,95.1,52.88,109.49,34.4,109.49A34.4,34.4,0,0,1,32.405,40.75Z" transform="translate(86.07 0.001)"/></g><g transform="translate(7.903 0)"><path class="e" d="M32.4,40.751c.312-3.377.073-12.558-8.721-25.325a2.422,2.422,0,0,1,.282-3.089c3.586-3.586,5.806-5.849,7.363-7.432,2.047-2.088,2.982-3.039,4.35-4.279A2.429,2.429,0,0,1,38.894.595C54.224,13.934,71.25,41.5,68.786,75.269,67.342,95.1,52.879,109.491,34.4,109.491a34.4,34.4,0,0,1-2-68.741Zm2,63.893c15.871,0,28.3-12.5,29.555-29.725v0c2.772-37.981-19.8-62.651-26.625-69.183C36.663,6.389,35.9,7.16,34.783,8.3c-1.349,1.373-3.2,3.252-5.988,6.055,10.676,16.45,8.662,28.17,7.779,29.851A2.51,2.51,0,0,1,34.4,45.541a29.551,29.551,0,0,0,0,59.1Z" transform="translate(0 0)"/><path class="e" d="M32.405,40.75c.315-3.368.083-12.542-8.721-25.325a2.425,2.425,0,0,1,.282-3.089c3.579-3.579,5.8-5.839,7.351-7.422,2.054-2.092,2.992-3.046,4.359-4.289A2.434,2.434,0,0,1,38.894.592c15.329,13.34,32.358,40.9,29.9,74.677v0C67.345,95.1,52.88,109.49,34.4,109.49A34.4,34.4,0,0,1,32.405,40.75ZM34.4,104.643c15.869,0,28.3-12.5,29.562-29.728v0c2.764-37.99-19.812-62.655-26.632-69.186-.667.656-1.43,1.432-2.551,2.575-1.347,1.373-3.19,3.25-5.978,6.047C39.474,30.807,37.46,42.525,36.578,44.2a2.516,2.516,0,0,1-2.18,1.337,29.551,29.551,0,0,0,0,59.1Z" transform="translate(86.07 0.001)"/></g></g></g></svg>