<svg xmlns="http://www.w3.org/2000/svg" xmlns:xlink="http://www.w3.org/1999/xlink" width="170" height="197" viewBox="0 0 170 197"><defs><style>.a,.i{fill:#fff;}.a{stroke:#707070;}.b{clip-path:url(#a);}.c,.j{fill:none;stroke:#fff;}.c,.h{opacity:0.4;}.d{opacity:0.6;}.e{fill:#387dff;}.f{fill:#5690ff;}.g{fill:#f5fafe;}.i{opacity:0.5;}.j{stroke-linecap:round;stroke-width:2px;}</style><clipPath id="a"><rect class="a" width="170" height="197" transform="translate(0 5623)"/></clipPath></defs><g class="b" transform="translate(0 -5623)"><path class="c" d="M521.095,4871.876c48.31,42.5,198.137-55.187,208.508,23.785s-25.4,155.132-80,129.536-30.365-77.478,0-84.828,155,57.651,140.881,124.386S600,5125.793,621.3,5166.07" transform="translate(-643 753.93)"/><g class="d" transform="translate(111.524 5686.571) rotate(-30)"><path class="e" d="M6.6,1.28,31.694,0A6.074,6.074,0,0,1,37.8,6.272V32.478a4.992,4.992,0,0,1-4.992,4.992L4.851,37.231C1.771,37.059,0,34.283,0,31.526L1.609,6.272A4.992,4.992,0,0,1,6.6,1.28Z" transform="matrix(0.966, 0.259, -0.259, 0.966, 9.698, 0.095)"/><g transform="matrix(0.966, 0.259, -0.259, 0.966, 9.672, 0)"><rect class="f" width="36.19" height="36.19" rx="4" transform="translate(0 0)"/><path class="g" d="M12.417,5.044H15.19V.214A35.811,35.811,0,0,0,11.15,0c-4,0-6.737,2.515-6.737,7.137v4.254H0v5.4H4.412V30.377h5.41V16.792h4.234l.672-5.4H9.821V7.673c0-1.561.421-2.629,2.6-2.629Z" transform="translate(6.436 5.777)"/></g></g><g class="h" transform="translate(13.572 5724.316)"><ellipse class="e" cx="16.806" cy="16.806" rx="16.806" ry="16.806" transform="translate(1.245 2.49)"/><ellipse class="f" cx="16.806" cy="16.806" rx="16.806" ry="16.806" transform="translate(0)"/><g transform="matrix(-0.966, -0.259, 0.259, -0.966, 23.375, 26.673)"><g transform="translate(0 0)"><g transform="translate(0 0)"><path class="g" d="M1.953,10.157A1.956,1.956,0,0,1,0,8.2V1.953A1.956,1.956,0,0,1,1.953,0H4.3A1.939,1.939,0,0,1,5.469.4v9.762Z"/></g></g><g transform="translate(6.251 0.781)"><g transform="translate(0 0)"><path class="g" d="M12.5,6.446a1.733,1.733,0,0,1-.509,1.23,1.94,1.94,0,0,1,.5,1.492,2.02,2.02,0,0,1-2.038,1.771H5.629a11.233,11.233,0,0,1,.622,3.125c0,1.695-1.44,3.125-2.344,3.125a2.458,2.458,0,0,1-1.417-.476.393.393,0,0,1-.146-.305V13.758L.094,8.884,0,8.836V.462A5.119,5.119,0,0,1,1.953,0H9.125A1.8,1.8,0,0,1,10.9,1.365a1.758,1.758,0,0,1-.141,1.174,1.75,1.75,0,0,1,.782,2.345A1.749,1.749,0,0,1,12.5,6.446Z"/></g></g></g></g><g class="h" transform="translate(95.616 5778.64)"><path class="e" d="M10.977,0A10.977,10.977,0,1,1,0,10.977,10.977,10.977,0,0,1,10.977,0Z" transform="translate(0 1.626)"/><ellipse class="i" cx="10.977" cy="10.977" rx="10.977" ry="10.977" transform="translate(0.813)"/><g transform="matrix(0.966, -0.259, 0.259, 0.966, 4.461, 6.084)"><g transform="translate(0 5.103)"><g transform="translate(0 0)"><path class="g" d="M1.276,0A1.278,1.278,0,0,0,0,1.276V5.358A1.278,1.278,0,0,0,1.276,6.634H2.807a1.267,1.267,0,0,0,.766-.258V0Z"/></g></g><g transform="translate(4.083)"><g transform="translate(0)"><path class="g" d="M8.165,7.017a1.132,1.132,0,0,0-.332-.8A1.267,1.267,0,0,0,8.16,5.24,1.319,1.319,0,0,0,6.829,4.083H3.676a7.337,7.337,0,0,0,.406-2.041A2.086,2.086,0,0,0,2.552,0a1.605,1.605,0,0,0-.925.311.256.256,0,0,0-.1.2V2.241L.061,5.425,0,5.456v5.47a3.344,3.344,0,0,0,1.276.3H5.96a1.174,1.174,0,0,0,1.156-.892,1.148,1.148,0,0,0-.092-.767,1.143,1.143,0,0,0,.511-1.532A1.142,1.142,0,0,0,8.165,7.017Z"/></g></g></g></g><g class="d" transform="translate(31.526 5633.636) rotate(30)"><path class="i" d="M29.076,25.118,13.653,26.739A12.36,12.36,0,1,1,11.069,2.154L30.909.069a12.362,12.362,0,0,1,7.279,23.11l.3,10.161Z" transform="translate(0 0)"/><path class="j" d="M0,3.817C1.146,4.963,2.915,8.67,4.584,8.4s.544-5.456,2.093-5.661,2.566,5.091,4.1,4.844.614-5.6,2.039-5.835,2.116,5.121,3.664,4.888S17.49.982,19.012.819s1.952,5.369,3.556,5.167S23.737.258,25.429.011,28.36,3.75,29.336,5" transform="translate(7.568 13.931)"/><path class="j" d="M0,3.817C1.146,4.963,2.915,8.67,4.584,8.4s.544-5.456,2.093-5.661,2.566,5.091,4.1,4.844.614-5.6,2.039-5.835,2.116,5.121,3.664,4.888S17.49.982,19.012.819s1.952,5.369,3.556,5.167S23.737.258,25.429.011,28.36,3.75,29.336,5" transform="translate(7.288 5.596)"/></g></g></svg>