<svg xmlns="http://www.w3.org/2000/svg" xmlns:xlink="http://www.w3.org/1999/xlink" width="66" height="157" viewBox="0 0 66 157"><defs><style>.a{fill:#fff;stroke:#707070;}.b{clip-path:url(#a);}.c{fill:#4fdc6f;}.d,.e,.g{fill:none;}.d{stroke:#f7cf06;}.e{stroke:#b9cfff;}.f{stroke:none;}</style><clipPath id="a"><rect class="a" width="66" height="157" transform="translate(0 5984)"/></clipPath></defs><g class="b" transform="translate(0 -5984)"><circle class="c" cx="3" cy="3" r="3" transform="translate(24.039 6024.37) rotate(180)"/><g class="d" transform="translate(63.039 6116.37) rotate(180)"><circle class="f" cx="6" cy="6" r="6"/><circle class="g" cx="6" cy="6" r="5.5"/></g><g transform="translate(-49.64 5927.025) rotate(45)"><path class="e" d="M5.267,86.638c1.978,35.509,63.707,29.4,101.676,17.374S165.823,66.9,159.077,46.541,116.609,30.886,79.958,22.563,29.211-10.774,10.538,5.244,3.289,51.129,5.267,86.638Z" transform="translate(174.331 123.311) rotate(180)"/><path class="e" d="M4.869,80.1c1.828,32.83,58.9,27.182,94.006,16.063s54.438-34.31,48.2-53.136-39.264-14.474-73.15-22.168S27.007-9.962,9.743,4.849,3.041,47.272,4.869,80.1Z" transform="translate(159.284 129.033) rotate(180)"/><path class="e" d="M4.869,80.1c1.828,32.83,58.9,27.182,94.006,16.063s54.438-34.31,48.2-53.136-39.264-14.474-73.15-22.168S27.007-9.962,9.743,4.849,3.041,47.272,4.869,80.1Z" transform="translate(148.284 141.033) rotate(180)"/><path class="e" d="M6.187,101.769c2.322,41.71,74.832,34.535,119.432,20.408s69.164-43.589,61.239-67.508S136.974,36.28,93.922,26.5,34.312-12.656,12.378,6.16,3.863,60.059,6.187,101.769Z" transform="translate(188.331 133.215) rotate(180)"/></g></g></svg>