<svg xmlns="http://www.w3.org/2000/svg" xmlns:xlink="http://www.w3.org/1999/xlink" width="159" height="197" viewBox="0 0 159 197"><defs><style>.a,.e{fill:#fff;}.a{stroke:#707070;}.b{clip-path:url(#a);}.c,.g{opacity:0.4;}.d{fill:#387dff;}.e{opacity:0.5;}.f{fill:#f5fafe;}.g,.j{fill:none;stroke:#fff;}.h{opacity:0.6;}.i{fill:#5690ff;}.j{stroke-linecap:round;stroke-width:2px;}</style><clipPath id="a"><rect class="a" width="159" height="197" transform="translate(1207 5623)"/></clipPath></defs><g class="b" transform="translate(-1207 -5623)"><g class="c" transform="translate(1232.518 5643.359)"><path class="d" d="M15.893,0A15.893,15.893,0,1,1,0,15.893,15.893,15.893,0,0,1,15.893,0Z" transform="translate(0 2.355)"/><ellipse class="e" cx="15.893" cy="15.893" rx="15.893" ry="15.893" transform="translate(1.177)"/><g transform="matrix(0.966, -0.259, 0.259, 0.966, 6.459, 8.809)"><g transform="translate(0 7.389)"><g transform="translate(0 0)"><path class="f" d="M1.847,0A1.85,1.85,0,0,0,0,1.847V7.758A1.85,1.85,0,0,0,1.847,9.606H4.064a1.834,1.834,0,0,0,1.108-.374V0Z"/></g></g><g transform="translate(5.911 0)"><g transform="translate(0 0)"><path class="f" d="M11.822,10.16A1.638,1.638,0,0,0,11.341,9a1.834,1.834,0,0,0,.473-1.411A1.91,1.91,0,0,0,9.887,5.911H5.323a10.623,10.623,0,0,0,.588-2.956C5.911,1.353,4.549,0,3.694,0a2.324,2.324,0,0,0-1.34.45.371.371,0,0,0-.138.289V3.244L.089,7.854,0,7.9v7.919a4.841,4.841,0,0,0,1.847.437H8.63A1.7,1.7,0,0,0,10.3,14.965a1.662,1.662,0,0,0-.134-1.11,1.655,1.655,0,0,0,.74-2.217A1.654,1.654,0,0,0,11.822,10.16Z" transform="translate(0)"/></g></g></g></g><path class="g" d="M791.591,4873.212c-48.31,42.5-198.137-55.187-208.508,23.785s25.4,155.132,80,129.536,30.365-77.478,0-84.828-114.462,50.987-94.332,122.374,176.767,41.665,155.474,81.942" transform="translate(705 688)"/><g class="h" transform="translate(1207.376 5755.788)"><path class="d" d="M7.049,1.367,33.848,0a6.487,6.487,0,0,1,6.52,6.7V34.686a5.331,5.331,0,0,1-5.331,5.331L5.181,39.762C1.891,39.578,0,36.613,0,33.669L1.718,6.7A5.331,5.331,0,0,1,7.049,1.367Z" transform="matrix(0.966, 0.259, -0.259, 0.966, 10.357, 0.101)"/><g transform="matrix(0.966, 0.259, -0.259, 0.966, 10.33, 0)"><rect class="i" width="38.65" height="38.65" rx="6"/><path class="f" d="M13.261,5.387h2.962V.228A38.243,38.243,0,0,0,11.907,0c-4.27,0-7.2,2.686-7.2,7.622v4.543H0v5.767H4.712v14.51h5.777V17.933h4.522l.718-5.767H10.488V8.194c0-1.667.45-2.808,2.772-2.808Z" transform="translate(6.874 6.169)"/></g></g><g class="c" transform="translate(1321 5665)"><circle class="d" cx="13.5" cy="13.5" r="13.5" transform="translate(1 2)"/><circle class="i" cx="13.5" cy="13.5" r="13.5" transform="translate(0)"/><g transform="matrix(-0.966, -0.259, 0.259, -0.966, 18.777, 21.427)"><g transform="translate(0 0)"><path class="f" d="M1.569,8.159A1.571,1.571,0,0,1,0,6.59V1.569A1.571,1.571,0,0,1,1.569,0H3.452a1.558,1.558,0,0,1,.941.318V8.159Z"/></g><g transform="translate(5.021 0.628)"><g transform="translate(0 0)"><path class="f" d="M10.042,5.178a1.392,1.392,0,0,1-.409.988,1.558,1.558,0,0,1,.4,1.2A1.622,1.622,0,0,1,8.4,8.787H4.522a9.024,9.024,0,0,1,.5,2.511,2.565,2.565,0,0,1-1.883,2.511A1.974,1.974,0,0,1,2,13.426a.315.315,0,0,1-.117-.245V11.052L.075,7.136,0,7.1V.371A4.112,4.112,0,0,1,1.569,0H7.33A1.444,1.444,0,0,1,8.752,1.1a1.412,1.412,0,0,1-.114.943,1.406,1.406,0,0,1,.628,1.884A1.4,1.4,0,0,1,10.042,5.178Z"/></g></g></g></g><g class="h" transform="translate(1295.187 5713.677) rotate(30)"><path class="e" d="M45.684,27.526l-31,3.258a13.3,13.3,0,0,1-2.78-26.447L52.459.074a13.3,13.3,0,0,1,2.78,26.447L54.5,26.6l.855,8.654Z" transform="translate(0 0)"/><path class="j" d="M0,6.388C1.918,8.306,4.878,14.51,7.671,14.06s.911-9.132,3.5-9.473,4.294,8.521,6.863,8.107,1.027-9.369,3.413-9.765,3.541,8.57,6.132,8.18,1.688-9.466,4.234-9.738,3.266,8.986,5.951,8.648,1.957-9.586,4.789-10,4.9,6.258,6.539,8.344" transform="translate(7.758 8.417)"/></g></g></svg>