<svg xmlns="http://www.w3.org/2000/svg" width="83.729" height="86.877" viewBox="0 0 83.729 86.877"><defs><style>.a{opacity:0.25;}.b{fill:#b9cfff;}</style></defs><g class="a" transform="matrix(0.875, 0.485, -0.485, 0.875, 38.197, -14.821)"><path class="b" d="M252.583,169.431l-5.888-5.888a1.036,1.036,0,0,0-1.466,1.466l4.119,4.119h-14.48V139.92l.356.427c2.454,2.945,5.235,6.282,10.645,6.282a1.036,1.036,0,1,0,0-2.073c-4.439,0-6.68-2.689-9.053-5.536-2.454-2.945-5.235-6.282-10.645-6.282s-8.19,3.336-10.643,6.28a25.027,25.027,0,0,1-3.307,3.5,1.036,1.036,0,1,0,1.307,1.609,26.941,26.941,0,0,0,3.592-3.78c2.372-2.846,4.613-5.534,9.051-5.534a9.008,9.008,0,0,1,6.623,2.823v31.494h-4.291a1.036,1.036,0,1,0,0,2.073h20.843l-4.118,4.118a1.036,1.036,0,0,0,1.466,1.466l5.888-5.888A1.036,1.036,0,0,0,252.583,169.431Z" transform="translate(-182.565 -99.791)"/><path class="b" d="M41.1,69.337H23V46.8c.3.022.6.034.914.034a11.919,11.919,0,0,0,2.189-.2,1.036,1.036,0,1,0-.382-2.037,9.834,9.834,0,0,1-1.807.161c-4.438,0-6.678-2.688-9.05-5.535-1.853-2.223-3.765-4.516-6.762-5.619V20.485L12.217,24.6a1.036,1.036,0,0,0,1.466-1.466L7.794,17.25c-.024-.024-.05-.047-.076-.069l-.036-.027c-.015-.011-.03-.023-.046-.034l-.044-.027-.043-.026L7.5,17.047l-.046-.022-.045-.016-.051-.018-.045-.011-.053-.013-.051-.008-.05-.007c-.03,0-.06,0-.09,0H7.049c-.03,0-.06,0-.09,0l-.05.007-.051.008-.054.013-.045.011-.051.018-.045.016-.046.022-.045.022-.043.026-.044.027c-.016.011-.031.022-.046.034l-.035.026a1.027,1.027,0,0,0-.076.069L.441,23.138A1.036,1.036,0,1,0,1.906,24.6l4.119-4.119V69.337H1.036a1.036,1.036,0,0,0,0,2.073H6.025v6.342a1.036,1.036,0,0,0,2.073,0V71.41H41.1a1.036,1.036,0,0,0,0-2.073ZM8.1,35.864c2.094,1.009,3.6,2.806,5.169,4.693,1.955,2.346,4.12,4.94,7.656,5.9V69.337H8.1Z" transform="translate(0 0)"/><path class="b" d="M247.838,271.638a1.464,1.464,0,0,1-1.086-.448,1.036,1.036,0,1,0-1.536,1.392,3.531,3.531,0,0,0,2.622,1.129,2.564,2.564,0,0,0,2.6-2.008,2.38,2.38,0,0,0-1.784-2.62c-.563-.208-1.092-.432-1.339-.539.009-.032.051-.082.162-.116a1.863,1.863,0,0,1,1.348.341,1.036,1.036,0,0,0,1.225-1.672,3.875,3.875,0,0,0-3.171-.653,2.239,2.239,0,0,0-1.617,1.814,2.059,2.059,0,0,0,.919,2.038,1.037,1.037,0,0,0,.144.078c.031.014.775.345,1.612.654.363.134.466.283.461.311A.564.564,0,0,1,247.838,271.638Z" transform="translate(-211.098 -214.912)"/><path class="b" d="M129.565,437.594a1.036,1.036,0,0,0-.967.667,3.435,3.435,0,1,0,0,6.174,1.036,1.036,0,0,0,2-.369V438.63A1.036,1.036,0,0,0,129.565,437.594Zm-2.472,5.117a1.362,1.362,0,1,1,1.362-1.362A1.364,1.364,0,0,1,127.092,442.711Z" transform="translate(-106.569 -362.519)"/><path class="b" d="M347.811,421.722a3.559,3.559,0,0,0-1.644.4v-1.992a1.036,1.036,0,1,0-2.073,0v7.993a1.036,1.036,0,0,0,1.913.552,3.548,3.548,0,0,0,1.8.484,3.717,3.717,0,1,0,0-7.433Zm0,5.36a1.644,1.644,0,1,1,1.644-1.644A1.645,1.645,0,0,1,347.811,427.082Z" transform="translate(-296.544 -346.571)"/><path class="b" d="M182.7,46.928v4.21a1.036,1.036,0,0,0,2.073,0v-4.2h.159a1.036,1.036,0,1,0,0-2.073h-.159v-.7a1.336,1.336,0,0,1,.334,0,1.036,1.036,0,0,0,.343-2.044,2.735,2.735,0,0,0-2.095.465,1.893,1.893,0,0,0-.655,1.48v.8a1.035,1.035,0,0,0,0,2.054Z" transform="translate(-156.672 -21.663)"/><path class="b" d="M268.074,59.07a1.036,1.036,0,0,0,1.452-.2l1.3-1.719,1.379,1.817a1.036,1.036,0,1,0,1.651-1.253l-1.733-2.283,1.434-1.9a1.036,1.036,0,0,0-1.655-1.248l-1.081,1.434-1.09-1.436a1.036,1.036,0,0,0-1.651,1.253l1.444,1.9-1.649,2.187A1.037,1.037,0,0,0,268.074,59.07Z" transform="translate(-230.673 -30.094)"/><path class="b" d="M230.866,56.842a1.037,1.037,0,0,0,1-1.3,10.126,10.126,0,0,1-.037-5.755,1.036,1.036,0,0,0-1.927-.764,11.93,11.93,0,0,0-.039,7.054A1.037,1.037,0,0,0,230.866,56.842Z" transform="translate(-197.678 -27.079)"/><path class="b" d="M334.015,55.539a1.036,1.036,0,1,0,2,.534,11.93,11.93,0,0,0-.039-7.054,1.036,1.036,0,1,0-1.925.77A10.135,10.135,0,0,1,334.015,55.539Z" transform="translate(-287.827 -27.079)"/></g></svg>