<svg xmlns="http://www.w3.org/2000/svg" width="29.996" height="21.175" viewBox="0 0 29.996 21.175"><defs><style>.a{fill:#b9cfff;}</style></defs><path class="a" d="M6.266,13.294c.06.653.014,2.429-1.687,4.9a.468.468,0,0,0,.054.6c.693.693,1.123,1.131,1.424,1.437.4.4.577.588.841.828a.47.47,0,0,0,.622.006A17.965,17.965,0,0,0,13.3,6.618,6.761,6.761,0,0,0,6.652,0a6.653,6.653,0,0,0-.386,13.294Z" transform="translate(0 0)"/><path class="a" d="M6.267,13.294c.061.651.016,2.426-1.687,4.9a.469.469,0,0,0,.054.6c.692.692,1.121,1.129,1.422,1.435.4.4.579.589.843.829a.471.471,0,0,0,.622.006A17.967,17.967,0,0,0,13.3,6.618h0A6.763,6.763,0,0,0,6.652,0a6.653,6.653,0,0,0-.385,13.294Z" transform="translate(16.645 0)"/></svg>