<svg xmlns="http://www.w3.org/2000/svg" width="144.592" height="102.072" viewBox="0 0 144.592 102.072"><defs><style>.a{fill:#b9cfff;}</style></defs><g transform="translate(0 0)"><path class="a" d="M30.207,64.083c.291,3.149.068,11.708-8.13,23.609a2.258,2.258,0,0,0,.263,2.879c3.343,3.343,5.412,5.452,6.864,6.928,1.909,1.946,2.78,2.833,4.055,3.989a2.264,2.264,0,0,0,3,.028C50.549,89.082,66.422,63.386,64.125,31.9,62.779,13.418,49.3,0,32.067,0a32.068,32.068,0,0,0-1.86,64.083Z" transform="translate(0 0)"/><path class="a" d="M30.209,64.083c.293,3.14.077,11.692-8.13,23.609a2.261,2.261,0,0,0,.263,2.879c3.336,3.336,5.4,5.443,6.853,6.92,1.915,1.951,2.789,2.84,4.064,4a2.269,2.269,0,0,0,3,.031C50.549,89.085,66.424,63.392,64.132,31.9v0C62.781,13.418,49.3,0,32.067,0a32.068,32.068,0,0,0-1.858,64.083Z" transform="translate(80.238 0)"/></g></svg>