<svg xmlns="http://www.w3.org/2000/svg" width="155.102" height="109.491" viewBox="0 0 155.102 109.491"><defs><style>.a{fill:#b9cfff;}</style></defs><g transform="translate(0)"><path class="a" d="M32.4,40.751c.312-3.377.073-12.558-8.721-25.325a2.422,2.422,0,0,1,.282-3.089c3.586-3.586,5.806-5.849,7.363-7.432,2.047-2.088,2.982-3.039,4.35-4.279A2.429,2.429,0,0,1,38.894.595C54.224,13.934,71.25,41.5,68.786,75.269,67.342,95.1,52.879,109.491,34.4,109.491a34.4,34.4,0,0,1-2-68.741Z" transform="translate(0 0)"/><path class="a" d="M32.405,40.75c.315-3.368.083-12.542-8.721-25.325a2.425,2.425,0,0,1,.282-3.089c3.579-3.579,5.8-5.839,7.351-7.422,2.054-2.092,2.992-3.046,4.359-4.289A2.434,2.434,0,0,1,38.894.592c15.329,13.34,32.358,40.9,29.9,74.677v0C67.345,95.1,52.88,109.49,34.4,109.49A34.4,34.4,0,0,1,32.405,40.75Z" transform="translate(86.07 0.001)"/></g></svg>