<svg xmlns="http://www.w3.org/2000/svg" width="29.996" height="21.175" viewBox="0 0 29.996 21.175"><defs><style>.a{fill:#5690ff;}</style></defs><path class="a" d="M6.266,13.294c.06.653.014,2.429-1.687,4.9a.468.468,0,0,0,.054.6c.693.693,1.123,1.131,1.424,1.437.4.4.577.588.841.828a.47.47,0,0,0,.622.006A17.965,17.965,0,0,0,13.3,6.618,6.761,6.761,0,0,0,6.652,0a6.653,6.653,0,0,0-.386,13.294ZM6.652.937a5.844,5.844,0,0,1,5.716,5.749h0a17.131,17.131,0,0,1-5.149,13.38c-.129-.127-.276-.276-.492-.5-.261-.265-.618-.629-1.158-1.171,2.065-3.181,1.675-5.448,1.5-5.773a.485.485,0,0,0-.421-.258,5.715,5.715,0,0,1,0-11.43Z" transform="translate(0 0)"/><path class="a" d="M6.267,13.294c.061.651.016,2.426-1.687,4.9a.469.469,0,0,0,.054.6c.692.692,1.121,1.129,1.422,1.435.4.4.579.589.843.829a.471.471,0,0,0,.622.006A17.967,17.967,0,0,0,13.3,6.618h0A6.763,6.763,0,0,0,6.652,0a6.653,6.653,0,0,0-.385,13.294ZM6.652.937a5.846,5.846,0,0,1,5.717,5.749h0a17.133,17.133,0,0,1-5.151,13.38c-.129-.127-.276-.277-.493-.5-.26-.265-.617-.628-1.156-1.17,2.065-3.182,1.675-5.448,1.5-5.772a.487.487,0,0,0-.422-.259,5.715,5.715,0,0,1,0-11.43Z" transform="translate(16.645 0)"/></svg>