<svg xmlns="http://www.w3.org/2000/svg" width="24.748" height="24.743" viewBox="0 0 24.748 24.743"><defs><style>.a{fill:#fff;}</style></defs><path class="a" d="M8.374,8.4a6.484,6.484,0,0,0,0,9.12,6.373,6.373,0,0,0,9.07,0,6.484,6.484,0,0,0,0-9.12,6.41,6.41,0,0,0-9.033,0ZM18.768,22.306a10.852,10.852,0,0,1-10.011.854,11.013,11.013,0,0,1,0-20.318A10.877,10.877,0,0,1,20.674,5.217a11.05,11.05,0,0,1,1.633,13.475l4.083,4.121a1.237,1.237,0,0,1,0,1.732l-1.831,1.844a1.237,1.237,0,0,1-1.732,0Z" transform="translate(-1.996 -2)"/></svg>