<svg xmlns="http://www.w3.org/2000/svg" width="36.683" height="29.346" viewBox="0 0 36.683 29.346"><defs><style>.a{fill:#766de8;fill-rule:evenodd;}</style></defs><path class="a" d="M35.015,4a3.668,3.668,0,0,1,3.668,3.668v22.01a3.668,3.668,0,0,1-3.668,3.668H5.668A3.668,3.668,0,0,1,2,29.678V7.668A3.668,3.668,0,0,1,5.668,4ZM22.542,30.6V11.337H4.751V29.678a.917.917,0,0,0,.917.917ZM35.932,19.774V11.337H24.743v8.437Zm0,2.2H24.743V30.6H35.015a.917.917,0,0,0,.917-.917Z" transform="translate(-2 -4)"/></svg>