<svg xmlns="http://www.w3.org/2000/svg" width="87.058" height="87.058" viewBox="0 0 87.058 87.058"><defs><style>.a{opacity:0.25;}.b{fill:#b9cfff;}</style></defs><g class="a" transform="translate(31.866) rotate(30)"><g transform="translate(0 0)"><path class="b" d="M76.711,330.3l-.01-.026a1.078,1.078,0,0,0-1-.67h0a1.078,1.078,0,0,0-1,.672l-.008.021-2.453,6.44a.934.934,0,0,0,1.745.665l.382-1h2.652c.254.594.362,1.538,1.251,1.6a.934.934,0,0,0,.873-1.263Zm-1.635,4.233L75.7,332.9l.616,1.631Z" transform="translate(-63.193 -288.579)"/><path class="b" d="M233.032,69.93h-1.9a.934.934,0,0,0-.934.934V77.4a.933.933,0,0,0,.934.934h0s1.744-.008,2.225-.008a2.69,2.69,0,0,0,1.766-4.721,2.432,2.432,0,0,0-2.1-3.671Zm0,1.867a.57.57,0,1,1,0,1.139l-.964,0V71.8Zm.331,4.658-1.3,0V74.806h1.3a.825.825,0,1,1,0,1.65Z" transform="translate(-201.547 -61.225)"/><path class="b" d="M386.178,334.66c-.974-.734-1.465.741-2.658.7a2.333,2.333,0,1,1,1.3-4.267.934.934,0,0,0,1.045-1.547,4.2,4.2,0,1,0-2.349,7.682,3.563,3.563,0,0,0,2.414-.885A1.1,1.1,0,0,0,386.178,334.66Z" transform="translate(-332.105 -287.9)"/><path class="b" d="M53.312,23.727A21.562,21.562,0,0,0,31.866,0a21.557,21.557,0,0,0-21.48,19.743.934.934,0,0,0,1.861.155,19.688,19.688,0,0,1,39.307,1.657c0,.4-.014.8-.037,1.2a21.53,21.53,0,0,0-19.655.5,21.549,21.549,0,1,0,0,37.853A21.553,21.553,0,0,0,53.312,23.727ZM42.176,22.488a19.566,19.566,0,0,1,9.12,2.244A19.723,19.723,0,0,1,42.7,37.984a21.354,21.354,0,0,0-.891-3.191,21.659,21.659,0,0,0-6.834-9.469q-.609-.485-1.253-.926A19.569,19.569,0,0,1,42.176,22.488ZM31.866,41.243q-.455,0-.9-.021l8.086-8.085q.427.823.778,1.691l-6.349,6.349q-.8.065-1.611.066Zm-5.3-.73L37.043,30.031q.547.694,1.031,1.438l-9.5,9.5A19.55,19.55,0,0,1,26.561,40.513Zm-3.669-1.442L34.558,27.405q.656.577,1.26,1.211L24.59,39.844q-.869-.347-1.7-.773Zm.671-3.311a19.789,19.789,0,0,1,8.3-10.347q.629.388,1.227.82ZM40.5,36.8a19.539,19.539,0,0,1,.489,2.2,19.545,19.545,0,0,1-4.35,1.659ZM30,24.4a21.6,21.6,0,0,0-8.969,13.583,19.663,19.663,0,0,1-8.6-13.25A19.637,19.637,0,0,1,30,24.4ZM42.176,61.864a19.709,19.709,0,0,1-8.443-1.9,21.584,21.584,0,0,0,9.288-15.818.934.934,0,1,0-1.859-.169,19.688,19.688,0,1,1-30.442-18.23A21.56,21.56,0,0,0,20.731,40a21.572,21.572,0,0,0,6.745,17.94.934.934,0,0,0,1.274-1.365,19.759,19.759,0,0,1-6.26-14.4c0-.4.014-.8.038-1.2q.9.435,1.847.788A21.558,21.558,0,0,0,53.01,25.746,19.682,19.682,0,0,1,42.176,61.864Z" transform="translate(0 0)"/></g></g></svg>