<svg xmlns="http://www.w3.org/2000/svg" width="22" height="17.75" viewBox="0 0 22 17.75"><defs><style>.a{fill:#387dff;fill-rule:evenodd;opacity:0.5;}</style></defs><path class="a" d="M19.8,3.13c2.12.06,3.2,1.26,3.2,3.63v.48q-.15,3-4.48,8.19-4.49,5.43-7.6,5.44c-1.3,0-2.37-1.11-3.23-3.32l-.91-3-.89-3c-.66-2.2-1.37-3.3-2.12-3.3A7.11,7.11,0,0,0,2,9.13L1,7.9,2.62,6.55l1.6-1.33A8,8,0,0,1,7.47,3.36h.3c1.53,0,2.49,1.1,2.86,3.3.21,1.25.38,2.27.53,3a15.67,15.67,0,0,0,.34,1.65c.5,2.08,1.05,3.12,1.63,3.13s1.14-.68,2.08-2a8.45,8.45,0,0,0,1.47-3.1,2.53,2.53,0,0,0,0-.38c0-.91-.51-1.36-1.5-1.36a4.92,4.92,0,0,0-1.62.31q1.54-4.77,6-4.79Z" transform="translate(-1 -3.12)"/></svg>