<svg xmlns="http://www.w3.org/2000/svg" width="21" height="15" viewBox="0 0 21 15"><defs><style>.a{fill:#387dff;opacity:0.5;}</style></defs><path class="a" d="M14.688,11.8,8.961,14.566a.233.233,0,0,1-.22-.016.224.224,0,0,1-.1-.191V8.687a.224.224,0,0,1,.107-.2.233.233,0,0,1,.227-.009L14.7,11.425a.232.232,0,0,1-.01.375ZM17.637,4H5.362A4.387,4.387,0,0,0,1,8.406v6.187A4.387,4.387,0,0,0,5.362,19H17.637A4.387,4.387,0,0,0,22,14.594V8.406A4.387,4.387,0,0,0,17.637,4Z" transform="translate(-1 -4)"/></svg>