<svg xmlns="http://www.w3.org/2000/svg" xmlns:xlink="http://www.w3.org/1999/xlink" width="82" height="149" viewBox="0 0 82 149"><defs><style>.a{fill:#fff;stroke:#707070;}.b{clip-path:url(#a);}.c{opacity:0.6;}.d{fill:#5690ff;}</style><clipPath id="a"><rect class="a" width="82" height="149"/></clipPath></defs><g class="b"><g class="c" transform="translate(82.091 74.031) rotate(135)"><circle class="d" cx="1" cy="1" r="1" transform="translate(0 170)"/><circle class="d" cx="1" cy="1" r="1" transform="translate(0 102)"/><circle class="d" cx="1" cy="1" r="1" transform="translate(0 136)"/><circle class="d" cx="1" cy="1" r="1" transform="translate(0 68)"/><circle class="d" cx="1" cy="1" r="1" transform="translate(0 17)"/><circle class="d" cx="1" cy="1" r="1" transform="translate(68 170)"/><circle class="d" cx="1" cy="1" r="1" transform="translate(68 102)"/><circle class="d" cx="1" cy="1" r="1" transform="translate(68 136)"/><circle class="d" cx="1" cy="1" r="1" transform="translate(68 68)"/><circle class="d" cx="1" cy="1" r="1" transform="translate(68 17)"/><circle class="d" cx="1" cy="1" r="1" transform="translate(34 170)"/><circle class="d" cx="1" cy="1" r="1" transform="translate(34 102)"/><circle class="d" cx="1" cy="1" r="1" transform="translate(34 136)"/><circle class="d" cx="1" cy="1" r="1" transform="translate(34 68)"/><circle class="d" cx="1" cy="1" r="1" transform="translate(34 17)"/><circle class="d" cx="1" cy="1" r="1" transform="translate(102 170)"/><circle class="d" cx="1" cy="1" r="1" transform="translate(102 102)"/><circle class="d" cx="1" cy="1" r="1" transform="translate(102 136)"/><circle class="d" cx="1" cy="1" r="1" transform="translate(102 68)"/><circle class="d" cx="1" cy="1" r="1" transform="translate(102 17)"/><circle class="d" cx="1" cy="1" r="1" transform="translate(0 153)"/><circle class="d" cx="1" cy="1" r="1" transform="translate(0 85)"/><circle class="d" cx="1" cy="1" r="1" transform="translate(0 34)"/><circle class="d" cx="1" cy="1" r="1" transform="translate(0 119)"/><circle class="d" cx="1" cy="1" r="1" transform="translate(0 51)"/><circle class="d" cx="1" cy="1" r="1" transform="translate(0 0)"/><circle class="d" cx="1" cy="1" r="1" transform="translate(68 153)"/><circle class="d" cx="1" cy="1" r="1" transform="translate(68 85)"/><circle class="d" cx="1" cy="1" r="1" transform="translate(68 34)"/><circle class="d" cx="1" cy="1" r="1" transform="translate(68 119)"/><circle class="d" cx="1" cy="1" r="1" transform="translate(68 51)"/><circle class="d" cx="1" cy="1" r="1" transform="translate(68 0)"/><circle class="d" cx="1" cy="1" r="1" transform="translate(34 153)"/><circle class="d" cx="1" cy="1" r="1" transform="translate(34 85)"/><circle class="d" cx="1" cy="1" r="1" transform="translate(34 34)"/><circle class="d" cx="1" cy="1" r="1" transform="translate(34 119)"/><circle class="d" cx="1" cy="1" r="1" transform="translate(34 51)"/><circle class="d" cx="1" cy="1" r="1" transform="translate(34 0)"/><circle class="d" cx="1" cy="1" r="1" transform="translate(102 153)"/><circle class="d" cx="1" cy="1" r="1" transform="translate(102 85)"/><circle class="d" cx="1" cy="1" r="1" transform="translate(102 34)"/><circle class="d" cx="1" cy="1" r="1" transform="translate(102 119)"/><circle class="d" cx="1" cy="1" r="1" transform="translate(102 51)"/><circle class="d" cx="1" cy="1" r="1" transform="translate(102 0)"/><circle class="d" cx="1" cy="1" r="1" transform="translate(17 170)"/><circle class="d" cx="1" cy="1" r="1" transform="translate(17 102)"/><circle class="d" cx="1" cy="1" r="1" transform="translate(17 136)"/><circle class="d" cx="1" cy="1" r="1" transform="translate(17 68)"/><circle class="d" cx="1" cy="1" r="1" transform="translate(17 17)"/><circle class="d" cx="1" cy="1" r="1" transform="translate(85 170)"/><circle class="d" cx="1" cy="1" r="1" transform="translate(85 102)"/><circle class="d" cx="1" cy="1" r="1" transform="translate(85 136)"/><circle class="d" cx="1" cy="1" r="1" transform="translate(85 68)"/><circle class="d" cx="1" cy="1" r="1" transform="translate(85 17)"/><circle class="d" cx="1" cy="1" r="1" transform="translate(51 170)"/><circle class="d" cx="1" cy="1" r="1" transform="translate(51 102)"/><circle class="d" cx="1" cy="1" r="1" transform="translate(51 136)"/><circle class="d" cx="1" cy="1" r="1" transform="translate(51 68)"/><circle class="d" cx="1" cy="1" r="1" transform="translate(51 17)"/><circle class="d" cx="1" cy="1" r="1" transform="translate(119 170)"/><circle class="d" cx="1" cy="1" r="1" transform="translate(119 102)"/><circle class="d" cx="1" cy="1" r="1" transform="translate(119 136)"/><circle class="d" cx="1" cy="1" r="1" transform="translate(119 68)"/><circle class="d" cx="1" cy="1" r="1" transform="translate(119 17)"/><circle class="d" cx="1" cy="1" r="1" transform="translate(17 153)"/><circle class="d" cx="1" cy="1" r="1" transform="translate(17 85)"/><circle class="d" cx="1" cy="1" r="1" transform="translate(17 34)"/><circle class="d" cx="1" cy="1" r="1" transform="translate(17 119)"/><circle class="d" cx="1" cy="1" r="1" transform="translate(17 51)"/><circle class="d" cx="1" cy="1" r="1" transform="translate(17 0)"/><circle class="d" cx="1" cy="1" r="1" transform="translate(85 153)"/><circle class="d" cx="1" cy="1" r="1" transform="translate(85 85)"/><circle class="d" cx="1" cy="1" r="1" transform="translate(85 34)"/><circle class="d" cx="1" cy="1" r="1" transform="translate(85 119)"/><circle class="d" cx="1" cy="1" r="1" transform="translate(85 51)"/><circle class="d" cx="1" cy="1" r="1" transform="translate(85 0)"/><circle class="d" cx="1" cy="1" r="1" transform="translate(51 153)"/><circle class="d" cx="1" cy="1" r="1" transform="translate(51 85)"/><circle class="d" cx="1" cy="1" r="1" transform="translate(51 34)"/><circle class="d" cx="1" cy="1" r="1" transform="translate(51 119)"/><circle class="d" cx="1" cy="1" r="1" transform="translate(51 51)"/><circle class="d" cx="1" cy="1" r="1" transform="translate(51 0)"/><circle class="d" cx="1" cy="1" r="1" transform="translate(119 153)"/><circle class="d" cx="1" cy="1" r="1" transform="translate(119 85)"/><circle class="d" cx="1" cy="1" r="1" transform="translate(119 34)"/><circle class="d" cx="1" cy="1" r="1" transform="translate(119 119)"/><circle class="d" cx="1" cy="1" r="1" transform="translate(119 51)"/><circle class="d" cx="1" cy="1" r="1" transform="translate(119 0)"/></g></g></svg>