<svg xmlns="http://www.w3.org/2000/svg" xmlns:xlink="http://www.w3.org/1999/xlink" width="82" height="149" viewBox="0 0 82 149"><defs><style>.a{fill:#fff;stroke:#707070;}.b{clip-path:url(#a);}.c{opacity:0.6;}.d{fill:#766de8;}</style><clipPath id="a"><rect class="a" width="82" height="149" transform="translate(427 5837)"/></clipPath></defs><g class="b" transform="translate(-427 -5837)"><g class="c" transform="translate(629.142 5616.875) rotate(45)"><circle class="d" cx="1" cy="1" r="1" transform="translate(65 179)"/><circle class="d" cx="1" cy="1" r="1" transform="translate(65 247)"/><circle class="d" cx="1" cy="1" r="1" transform="translate(65 213)"/><circle class="d" cx="1" cy="1" r="1" transform="translate(65 281)"/><circle class="d" cx="1" cy="1" r="1" transform="translate(65 332)"/><circle class="d" cx="1" cy="1" r="1" transform="translate(133 179)"/><circle class="d" cx="1" cy="1" r="1" transform="translate(133 247)"/><circle class="d" cx="1" cy="1" r="1" transform="translate(133 213)"/><circle class="d" cx="1" cy="1" r="1" transform="translate(133 281)"/><circle class="d" cx="1" cy="1" r="1" transform="translate(133 332)"/><circle class="d" cx="1" cy="1" r="1" transform="translate(99 179)"/><circle class="d" cx="1" cy="1" r="1" transform="translate(99 247)"/><circle class="d" cx="1" cy="1" r="1" transform="translate(99 213)"/><circle class="d" cx="1" cy="1" r="1" transform="translate(99 281)"/><circle class="d" cx="1" cy="1" r="1" transform="translate(99 332)"/><circle class="d" cx="1" cy="1" r="1" transform="translate(167 179)"/><circle class="d" cx="1" cy="1" r="1" transform="translate(167 247)"/><circle class="d" cx="1" cy="1" r="1" transform="translate(167 213)"/><circle class="d" cx="1" cy="1" r="1" transform="translate(167 281)"/><circle class="d" cx="1" cy="1" r="1" transform="translate(167 332)"/><circle class="d" cx="1" cy="1" r="1" transform="translate(65 196)"/><circle class="d" cx="1" cy="1" r="1" transform="translate(65 264)"/><circle class="d" cx="1" cy="1" r="1" transform="translate(65 315)"/><circle class="d" cx="1" cy="1" r="1" transform="translate(65 230)"/><circle class="d" cx="1" cy="1" r="1" transform="translate(65 298)"/><circle class="d" cx="1" cy="1" r="1" transform="translate(65 349)"/><circle class="d" cx="1" cy="1" r="1" transform="translate(133 196)"/><circle class="d" cx="1" cy="1" r="1" transform="translate(133 264)"/><circle class="d" cx="1" cy="1" r="1" transform="translate(133 315)"/><circle class="d" cx="1" cy="1" r="1" transform="translate(133 230)"/><circle class="d" cx="1" cy="1" r="1" transform="translate(133 298)"/><circle class="d" cx="1" cy="1" r="1" transform="translate(133 349)"/><circle class="d" cx="1" cy="1" r="1" transform="translate(99 196)"/><circle class="d" cx="1" cy="1" r="1" transform="translate(99 264)"/><circle class="d" cx="1" cy="1" r="1" transform="translate(99 315)"/><circle class="d" cx="1" cy="1" r="1" transform="translate(99 230)"/><circle class="d" cx="1" cy="1" r="1" transform="translate(99 298)"/><circle class="d" cx="1" cy="1" r="1" transform="translate(99 349)"/><circle class="d" cx="1" cy="1" r="1" transform="translate(167 196)"/><circle class="d" cx="1" cy="1" r="1" transform="translate(167 264)"/><circle class="d" cx="1" cy="1" r="1" transform="translate(167 315)"/><circle class="d" cx="1" cy="1" r="1" transform="translate(167 230)"/><circle class="d" cx="1" cy="1" r="1" transform="translate(167 298)"/><circle class="d" cx="1" cy="1" r="1" transform="translate(167 349)"/><circle class="d" cx="1" cy="1" r="1" transform="translate(82 179)"/><circle class="d" cx="1" cy="1" r="1" transform="translate(82 247)"/><circle class="d" cx="1" cy="1" r="1" transform="translate(82 213)"/><circle class="d" cx="1" cy="1" r="1" transform="translate(82 281)"/><circle class="d" cx="1" cy="1" r="1" transform="translate(82 332)"/><circle class="d" cx="1" cy="1" r="1" transform="translate(150 179)"/><circle class="d" cx="1" cy="1" r="1" transform="translate(150 247)"/><circle class="d" cx="1" cy="1" r="1" transform="translate(150 213)"/><circle class="d" cx="1" cy="1" r="1" transform="translate(150 281)"/><circle class="d" cx="1" cy="1" r="1" transform="translate(150 332)"/><circle class="d" cx="1" cy="1" r="1" transform="translate(116 179)"/><circle class="d" cx="1" cy="1" r="1" transform="translate(116 247)"/><circle class="d" cx="1" cy="1" r="1" transform="translate(116 213)"/><circle class="d" cx="1" cy="1" r="1" transform="translate(116 281)"/><circle class="d" cx="1" cy="1" r="1" transform="translate(116 332)"/><circle class="d" cx="1" cy="1" r="1" transform="translate(184 179)"/><circle class="d" cx="1" cy="1" r="1" transform="translate(184 247)"/><circle class="d" cx="1" cy="1" r="1" transform="translate(184 213)"/><circle class="d" cx="1" cy="1" r="1" transform="translate(184 281)"/><circle class="d" cx="1" cy="1" r="1" transform="translate(184 332)"/><circle class="d" cx="1" cy="1" r="1" transform="translate(82 196)"/><circle class="d" cx="1" cy="1" r="1" transform="translate(82 264)"/><circle class="d" cx="1" cy="1" r="1" transform="translate(82 315)"/><circle class="d" cx="1" cy="1" r="1" transform="translate(82 230)"/><circle class="d" cx="1" cy="1" r="1" transform="translate(82 298)"/><circle class="d" cx="1" cy="1" r="1" transform="translate(82 349)"/><circle class="d" cx="1" cy="1" r="1" transform="translate(150 196)"/><circle class="d" cx="1" cy="1" r="1" transform="translate(150 264)"/><circle class="d" cx="1" cy="1" r="1" transform="translate(150 315)"/><circle class="d" cx="1" cy="1" r="1" transform="translate(150 230)"/><circle class="d" cx="1" cy="1" r="1" transform="translate(150 298)"/><circle class="d" cx="1" cy="1" r="1" transform="translate(150 349)"/><circle class="d" cx="1" cy="1" r="1" transform="translate(116 196)"/><circle class="d" cx="1" cy="1" r="1" transform="translate(116 264)"/><circle class="d" cx="1" cy="1" r="1" transform="translate(116 315)"/><circle class="d" cx="1" cy="1" r="1" transform="translate(116 230)"/><circle class="d" cx="1" cy="1" r="1" transform="translate(116 298)"/><circle class="d" cx="1" cy="1" r="1" transform="translate(116 349)"/><circle class="d" cx="1" cy="1" r="1" transform="translate(184 196)"/><circle class="d" cx="1" cy="1" r="1" transform="translate(184 264)"/><circle class="d" cx="1" cy="1" r="1" transform="translate(184 315)"/><circle class="d" cx="1" cy="1" r="1" transform="translate(184 230)"/><circle class="d" cx="1" cy="1" r="1" transform="translate(184 298)"/><circle class="d" cx="1" cy="1" r="1" transform="translate(184 349)"/></g></g></svg>