<svg xmlns="http://www.w3.org/2000/svg" width="850.101" height="30.827" viewBox="0 0 850.101 30.827"><defs><style>.a,.b{fill:#fff;}.b{fill-rule:evenodd;}.c{fill:#a3bcff;}</style></defs><g transform="translate(-191.778 -645.718)"><g transform="translate(506.307 648.862)"><path class="a" d="M159,643h20.782v19.633H159Zm23.967,19.633V643h20.782v19.633Zm23.967,0V643h20.782v19.633Zm-11.2-10.277a3.127,3.127,0,0,0,1.8-2.824s.279-3.36-4.173-3.776H188.43v14.091h5.66s4.731,0,4.731-3.972a3.668,3.668,0,0,0-3.086-3.519Zm-4.807-4.4h2.03c2.1.113,2.015,1.669,2.015,1.669,0,1.941-2.317,1.971-2.317,1.971h-1.728Zm5.282,7.71c0,2.13-2.649,2-2.649,2h-2.634v-3.851h2.649c2.724-.008,2.649,1.85,2.649,1.85Zm-24.435-3.307a3.127,3.127,0,0,0,1.8-2.824s.279-3.36-4.173-3.776h-4.935V659.85h5.66s4.724.015,4.724-4.01a3.62,3.62,0,0,0-3.074-3.484Zm-4.807-4.4h2.015c2.1.113,2.015,1.669,2.015,1.669,0,1.941-2.317,1.971-2.317,1.971h-1.713Zm5.282,7.71c0,2.13-2.649,2-2.649,2h-2.634v-3.851h2.649c2.724-.008,2.649,1.85,2.649,1.85Zm51.224-8.888a15.079,15.079,0,0,0-3.894-1.072,9.951,9.951,0,0,0-4.143.317,7.024,7.024,0,0,0-1.064,13.305,11.215,11.215,0,0,0,9.221-.581v-2.7a9.167,9.167,0,0,1-5.531,1.752c-5.592-.272-5.4-4.984-5.4-4.984.242-5.142,5.471-5.037,5.471-5.037a11.856,11.856,0,0,1,5.343,1.593Z" transform="translate(-159 -643)"/></g><g transform="translate(770.748 645.719)"><path class="b" d="M90.954,10.031A2.531,2.531,0,1,1,89.21,5.279L103.228.155a2.531,2.531,0,1,1,1.744,4.752Zm0,7.572a2.531,2.531,0,1,1-1.744-4.752l14.01-5.124a2.531,2.531,0,1,1,1.744,4.752Zm0,7.572a2.531,2.531,0,1,1-1.744-4.752L103.22,15.3a2.531,2.531,0,1,1,1.744,4.752ZM0,7.972H8.522v2.312H3.007V12.3H8.3v2.394H3.007v2.077H8.613V19.1H0Zm21.769,0H24.8V19.108H21.769Zm14.1.363-.2,2.385c-2.453-1.415-6.2-.961-6.269,2.72s3.87,4.253,6.36,2.993l.154,2.43c-4.406,1.369-9.667,0-9.649-5.441S31.6,6.712,35.869,8.335ZM44.8,8.162l-.209,2.321c-1.526-.843-4.434-.907-4.434.453,0,1.95,5.17.544,5.17,4.725s-4.915,4.162-8.077,3.2l.227-2.458c2,.907,4.833,1.134,4.833-.481,0-1.814-5.2-.771-5.2-4.752,0-3.265,4.052-4.135,7.713-3.029Zm9.149,0-.2,2.321c-1.526-.843-4.434-.907-4.434.453,0,1.95,5.17.544,5.17,4.725s-4.924,4.162-8.15,3.2l.227-2.458c2,.907,4.833,1.134,4.833-.481,0-1.814-5.2-.771-5.2-4.752,0-3.265,4.043-4.135,7.713-3.029Zm13.964-.19h3.843l3.671,7.182V7.972h2.789V19.108H74.591L70.73,11.79v7.318H67.913Zm-6.987-.263c3.153,0,5.551,1.814,5.551,5.858,0,3.836-2.417,5.813-5.551,5.813S55.42,17.448,55.42,13.6s2.354-5.894,5.507-5.894ZM58.492,13.6c0,1.7.727,3.627,2.426,3.627s2.417-1.913,2.426-3.627c0-1.533-.727-3.627-2.426-3.627S58.492,11.89,58.492,13.6Zm-44.864-.9h1.663a1.252,1.252,0,1,0,0-2.494H13.628Zm-2.9-4.725h5.451c1.481,0,3.552.653,3.552,2.965a2.512,2.512,0,0,1-1.953,2.72,1.715,1.715,0,0,1,1.008,1.124s1.563,4.344,1.581,4.353h-3.2l-1.145-3.346a1.144,1.144,0,0,0-1.1-.852H13.7v4.2H10.73Z"/></g><g transform="translate(615 648.862)"><path class="b" d="M9.625,1.119a10.451,10.451,0,0,1,5.585.5l-1.2.114A9.372,9.372,0,0,0,6.1,8.038a12.337,12.337,0,0,0-.386,2.368,7.8,7.8,0,0,0,.667,2.8A5.808,5.808,0,0,0,9.57,16.115a5.357,5.357,0,0,0,7.2-4.3,5.43,5.43,0,0,0-.875-3.75,5.848,5.848,0,0,0-3.48-2.15,3.876,3.876,0,0,1,.761-2.6,4.513,4.513,0,0,1,2.365-1.579,10.164,10.164,0,0,1,6.534,8.435,11.454,11.454,0,0,1-.146,2.95A10.154,10.154,0,0,1,18.347,19a10.73,10.73,0,0,1-5.523,2.3H10.115A11.168,11.168,0,0,1,4.9,19.09a10.22,10.22,0,0,1-3.949-8.3A10.2,10.2,0,0,1,3.04,5.108,10.759,10.759,0,0,1,9.625,1.119ZM78.681,3.1a4.554,4.554,0,0,1,3.366-.841V4.516a1.912,1.912,0,0,0-1.167.2A2.352,2.352,0,0,0,80.536,6.5h1.521V8.817H80.515V16.39H77.962V8.827H76.837a12.965,12.965,0,0,1-.073-2.181c.344-.249.792-.125,1.188-.156C77.993,5.347,77.806,4,78.681,3.1ZM60.352,3.031a.86.86,0,0,1,.146-.519h2.459v13.94H60.414q-.052-.374-.083-.738a5.616,5.616,0,0,1-2.063.821,7.505,7.505,0,0,1-1.646,0,5.128,5.128,0,0,1-3.209-2.078,5.233,5.233,0,0,1-.875-3.428,5.038,5.038,0,0,1,5.387-4.675,6.2,6.2,0,0,1,2.428.925Zm-3.23,5.911a2.753,2.753,0,0,0-1.98,2.8A2.753,2.753,0,0,0,56.59,13.9a2.612,2.612,0,0,0,2.72-.2,2.888,2.888,0,0,0,1.115-1.569,6.038,6.038,0,0,0,0-1.226A2.919,2.919,0,0,0,59.31,9.263a2.863,2.863,0,0,0-2.178-.353ZM40.553,9.9a5.418,5.418,0,0,1,5.356-3.615,4.085,4.085,0,0,1,1.448.291,7.948,7.948,0,0,0-2.251.675A4.617,4.617,0,0,0,42.96,9.7a3.667,3.667,0,0,0-.146,2.078,2.865,2.865,0,0,0,3.553,2.3A2.684,2.684,0,0,0,48.2,12.151a2.642,2.642,0,0,0-.261-2.078,2.95,2.95,0,0,0-1.886-1.226,2.078,2.078,0,0,1,1.5-2.078,1.65,1.65,0,0,1,.907.312,5.267,5.267,0,0,1,2.511,3.573,6.649,6.649,0,0,1-.135,2.192A5.378,5.378,0,0,1,47.482,16.3a6.166,6.166,0,0,1-2.845.208,5.408,5.408,0,0,1-3.553-2.452A4.993,4.993,0,0,1,40.553,9.9ZM86.225,6.614a5.449,5.449,0,0,1,6.252,2.078,4.932,4.932,0,0,1,.771,3.688,5.269,5.269,0,0,1-2.907,3.72,6.582,6.582,0,0,1-2.438.551,7.774,7.774,0,0,1-1.667-.322,6.8,6.8,0,0,0,2.709-.9,4.685,4.685,0,0,0,1.865-2.618,3.522,3.522,0,0,0-.417-2.763,2.788,2.788,0,0,0-4.168-.53,2.695,2.695,0,0,0,0,3.906,2.9,2.9,0,0,0,1.4.675,2.161,2.161,0,0,1-1.553,2.15,5.2,5.2,0,0,1-3.345-3.864,5.193,5.193,0,0,1,3.5-5.771ZM68.448,6.521a4.91,4.91,0,0,1,4.064.758V6.562a14.508,14.508,0,0,1,2.553,0v9.92H72.5v-.758a6,6,0,0,1-1.782.8,5.037,5.037,0,0,1-3.355-.447A5.16,5.16,0,0,1,65.6,8.515a4.981,4.981,0,0,1,2.813-1.943Zm.813,2.452a2.654,2.654,0,0,0-1.813,1.621,2.838,2.838,0,0,0-.146,1.413,2.677,2.677,0,1,0,1.959-3.023Zm28.26-1.621a4.691,4.691,0,0,1,4.512-.727A3.2,3.2,0,0,1,103.992,8.8a14.879,14.879,0,0,1,.125,2.67v4.924a19.025,19.025,0,0,1-2.626,0V10.749A2.24,2.24,0,0,0,100.9,9.18a2.088,2.088,0,0,0-3.126.634,1.689,1.689,0,0,0-.2.821v5.786H94.926V6.49h2.553a8.22,8.22,0,0,1,.042.862ZM106.3,9.461a5.216,5.216,0,0,1,6.4-2.847,5.038,5.038,0,0,1,2.97,2.711,5.3,5.3,0,0,1,.417,2.909H108.6a2.243,2.243,0,0,0,1.042,1.756,2.591,2.591,0,0,0,2.782,0,7.9,7.9,0,0,0,.729-.717h2.7a4.776,4.776,0,0,1-3.126,3.023,6.114,6.114,0,0,1-2.522.187,5.147,5.147,0,0,1-3.741-2.618,5.045,5.045,0,0,1-.177-4.446Zm4.064-.841a2.247,2.247,0,0,0-1.667,1.683h4.647a2.325,2.325,0,0,0-2.97-1.641ZM29.622,6.49h2.7c.219,0,.281.229.365.374.729,2.078,1.49,4.228,2.23,6.347a5.919,5.919,0,0,0,.427-1.257c.584-1.662,1.167-3.335,1.73-5.007.073-.177.135-.467.375-.447H40.1c-.938,2.68-1.98,5.329-2.949,8a14.081,14.081,0,0,1-.771,1.932H33.16c-.823-2.327-1.709-4.623-2.543-6.949C30.331,8.463,29.882,7.508,29.622,6.49Z" transform="translate(-0.953 -0.946)"/></g><g transform="translate(363.757 654.557)"><path class="c" d="M70.193,12.36,77.459,0H101.8V2.04H83.545l-1.8,3.117h9.639L90.219,7.2H80.526L78.67,10.312h9.692L87.151,12.36ZM52.718,9.142h7.306c-.245.355-.355.714-.2.938.265.4,1.2.2,1.448.122a1.651,1.651,0,0,0,.987-.865L63.479,7.2H56.03c-1.558,0-1.611-.926-.979-2.04l2.293-3.892A2.755,2.755,0,0,1,60.114,0H73.065c1.314,0,1.314,1.069.783,2.04l-.734,1.314H65.767a1,1,0,0,0,.061-1.04c-.286-.388-1.04-.306-1.436-.1a2.417,2.417,0,0,0-.865.946l-1.171,2h7.2c1.517,0,1.754,1.11,1.273,2.04l-2.191,3.659a3.176,3.176,0,0,1-2.782,1.509H53c-1.265,0-1.7-.836-1.163-1.754ZM37.331,2.04C38.5,0,40.447,0,41.957,0H52.963c1.163,0,2.142.967,1.509,2.04l-4.863,8.273c-1.028,1.652-1.856,2.048-3.17,2.048H33.631c-1.265,0-1.844-.926-1.163-2.048Zm6.388,1.118L40.011,9.333a.7.7,0,0,0-.1.591c.233.51,1.673.416,2.17.314a1.542,1.542,0,0,0,1.048-.906l3.659-6.176c.253-.436.224-.722,0-.9a2.884,2.884,0,0,0-1.876-.122,1.974,1.974,0,0,0-1.193,1.023ZM19.561,0H33.684a1.412,1.412,0,0,1,1.265,2.244L33.492,4.72a3.067,3.067,0,0,1-2.484,1.652,1.263,1.263,0,0,1,.388,1.9L29.94,10.809a2.771,2.771,0,0,1-2.77,1.558H.026v-2.05H13.475ZM23.8,5.156h3.6a1.377,1.377,0,0,0,1.367-.824L29.5,3.161c.294-.53.294-1.122-.335-1.122H25.648Zm-3.068,5.156h3.6A1.377,1.377,0,0,0,25.7,9.488l.734-1.171c.294-.538.294-1.122-.347-1.122h-3.5Zm80.121-5.8a1.024,1.024,0,1,1,1.024-1.024A1.024,1.024,0,0,1,100.853,4.512Zm-.832-1.032a.831.831,0,1,0,1.66,0,.831.831,0,1,0-1.66,0Zm.62.082v.51h-.184V2.892h.449c.286,0,.416.1.416.335a.306.306,0,0,1-.306.326l.335.518h-.2l-.306-.51Zm0-.151h.212c.151,0,.286-.008.286-.192,0-.143-.135-.171-.253-.171h-.245Z" transform="translate(-0.026)"/></g><g transform="translate(363.757 654.557)"><path class="a" d="M70.193,12.36,77.459,0H101.8V2.04H83.545l-1.8,3.117h9.639L90.219,7.2H80.526L78.67,10.312h9.692L87.151,12.36ZM52.718,9.142h7.306c-.245.355-.355.714-.2.938.265.4,1.2.2,1.448.122a1.651,1.651,0,0,0,.987-.865L63.479,7.2H56.03c-1.558,0-1.611-.926-.979-2.04l2.293-3.892A2.755,2.755,0,0,1,60.114,0H73.065c1.314,0,1.314,1.069.783,2.04l-.734,1.314H65.767a1,1,0,0,0,.061-1.04c-.286-.388-1.04-.306-1.436-.1a2.417,2.417,0,0,0-.865.946l-1.171,2h7.2c1.517,0,1.754,1.11,1.273,2.04l-2.191,3.659a3.176,3.176,0,0,1-2.782,1.509H53c-1.265,0-1.7-.836-1.163-1.754ZM37.331,2.04C38.5,0,40.447,0,41.957,0H52.963c1.163,0,2.142.967,1.509,2.04l-4.863,8.273c-1.028,1.652-1.856,2.048-3.17,2.048H33.631c-1.265,0-1.844-.926-1.163-2.048Zm6.388,1.118L40.011,9.333a.7.7,0,0,0-.1.591c.233.51,1.673.416,2.17.314a1.542,1.542,0,0,0,1.048-.906l3.659-6.176c.253-.436.224-.722,0-.9a2.884,2.884,0,0,0-1.876-.122,1.974,1.974,0,0,0-1.193,1.023ZM19.561,0H33.684a1.412,1.412,0,0,1,1.265,2.244L33.492,4.72a3.067,3.067,0,0,1-2.484,1.652,1.263,1.263,0,0,1,.388,1.9L29.94,10.809a2.771,2.771,0,0,1-2.77,1.558H.026v-2.05H13.475ZM23.8,5.156h3.6a1.377,1.377,0,0,0,1.367-.824L29.5,3.161c.294-.53.294-1.122-.335-1.122H25.648Zm-3.068,5.156h3.6A1.377,1.377,0,0,0,25.7,9.488l.734-1.171c.294-.538.294-1.122-.347-1.122h-3.5Zm80.121-5.8a1.024,1.024,0,1,1,1.024-1.024A1.024,1.024,0,0,1,100.853,4.512Zm-.832-1.032a.831.831,0,1,0,1.66,0,.831.831,0,1,0-1.66,0Zm.62.082v.51h-.184V2.892h.449c.286,0,.416.1.416.335a.306.306,0,0,1-.306.326l.335.518h-.2l-.306-.51Zm0-.151h.212c.151,0,.286-.008.286-.192,0-.143-.135-.171-.253-.171h-.245Z" transform="translate(-0.026)"/></g><g transform="translate(191.778 648.935)"><path class="b" d="M39.69,1.349l.6,3.049-.8.155a4.324,4.324,0,0,0-4.377-3.336c-2.652,0-4.642,2.342-4.642,5.5,0,3.247,2.056,5.633,4.885,5.633a4.334,4.334,0,0,0,4.4-3.6l.8.11-.335,2.94a10.7,10.7,0,0,1-5.3,1.5c-4.155,0-6.985-2.7-6.985-6.671,0-3.822,2.741-6.384,6.852-6.384a10.787,10.787,0,0,1,4.553.972A2.568,2.568,0,0,1,39.69,1.349ZM55.631,2.408c.376.817.508,1.1.995,2.032.42.839.685,1.37.8,1.613L58.063,7.4,58.7,8.682l.221.464c.376-.707.508-.972.884-1.811l.707-1.546.729-1.613.6-1.37.177-.4h3.669v.486a2.7,2.7,0,0,0-.486-.066c-1.017.022-1.194.376-1.194,2.3V8.969c0,1.856.221,2.3,1.171,2.3a3.718,3.718,0,0,0,.6-.066v.486H60.516V11.2a1.5,1.5,0,0,0,.42.066c.884,0,1.1-.464,1.1-2.3V4.242c-.111.243-.2.4-.265.53-.044.088-.265.552-.663,1.414l-.729,1.591-.8,1.811c-.42.928-.641,1.458-.707,1.591-.044.088-.088.221-.177.42h-.6l-.2-.464c-.752-1.679-.884-1.944-1.437-3.093L55.72,6.495c-.4-.8-.641-1.3-.752-1.524-.066-.155-.2-.376-.354-.663v5.1c0,1.392.309,1.834,1.282,1.834a1.252,1.252,0,0,0,.4-.066v.486H52.227v-.486a1.788,1.788,0,0,0,.442.066c.928,0,1.127-.42,1.127-2.3V4.661c0-1.48-.221-1.834-1.1-1.834a1.288,1.288,0,0,0-.42.066V2.408ZM94.491,11.2v.486h-6.1V11.2a4.689,4.689,0,0,0,.729.066c1.105,0,1.326-.376,1.326-2.3V5.125c0-1.922-.2-2.275-1.348-2.275a1.772,1.772,0,0,0-.6.066V2.43h5.924v.486a3.6,3.6,0,0,0-.685-.066c-1.149,0-1.37.353-1.37,2.275V8.969c0,1.9.221,2.3,1.348,2.3a4.574,4.574,0,0,0,.776-.069Zm22.436-8.564L117.391,5l-.685.133c-.6-1.657-1.547-2.408-3.05-2.408-2.166,0-3.6,1.613-3.6,4.065,0,2.607,1.614,4.44,3.868,4.44a3.927,3.927,0,0,0,1.5-.265V8.423c0-.729-.243-.994-.884-.994a2.042,2.042,0,0,0-.332.022H114.1V6.9h4.642v.552h-.155l-.2-.022h-.066c-.84,0-1.017.243-1.017,1.392,0,.663.022,1.635.044,2.43-.553.11-1.149.221-1.614.331a10.935,10.935,0,0,1-2.763.376,4.635,4.635,0,0,1-4.951-4.794c0-3.026,2.034-4.9,5.283-4.9a10.327,10.327,0,0,1,1.79.155l.8.133.729.088Zm10.583-.228.354,2.01-.553.11C127.068,3.336,126.493,3,124.636,3a7.238,7.238,0,0,0-1.5.155V6.407h1.636c.906,0,1.171-.2,1.171-.906a2.289,2.289,0,0,0-.022-.353h.553V8.306h-.553c.022-.287.022-.331.022-.442,0-.619-.309-.817-1.171-.817h-1.636v3.822h2.011c1.547,0,2.056-.309,2.63-1.657.022-.044.066-.133.111-.243l.6.2-.884,2.5H119.16v-.486a4.319,4.319,0,0,0,.752.066c1.083,0,1.326-.42,1.326-2.3V5.1c0-1.922-.221-2.275-1.348-2.275a2.41,2.41,0,0,0-.575.066V2.408ZM28.656,16.646v-.309h3.316v.309l-.088-.022-.265-.044h-.044c-.442,0-.685.309-.685.862V19.96c0,1.37.53,1.988,1.746,1.988a1.619,1.619,0,0,0,1.724-1.657V17.817c0-.906-.177-1.193-.729-1.193h-.044l-.133.022-.177.022-.066.022v-.353H36.04v.309l-.066-.022-.309-.044h-.044c-.575,0-.752.287-.752,1.193v2.165c0,1.745-.8,2.54-2.608,2.54-1.614,0-2.586-.8-2.586-2.121V17.773l-.022-.353q-.033-.862-.663-.862a1.455,1.455,0,0,1-.334.088Zm10.156-.312.155.2.575.773.707.884.663.839c.243.287.442.552.6.729.309.376.486.6.553.663.044.044.088.133.177.221V17.814c0-.862-.2-1.193-.774-1.193a.584.584,0,0,0-.155.022l-.133.022-.066.022v-.353h2.7v.309a1.719,1.719,0,0,0-.354-.044c-.575,0-.774.331-.774,1.193v4.44c-.111.066-.111.066-.265.155-.133.066-.155.088-.287.155a2.448,2.448,0,0,1-.155-.2c-.088-.11-.309-.4-.685-.884-.221-.287-.442-.552-.619-.8-.243-.309-.4-.486-.464-.6a2.269,2.269,0,0,1-.155-.221L38.2,17.517v3.667c.022.552.265.817.752.817a.656.656,0,0,0,.309-.044V22.3h-2.7v-.331a1.983,1.983,0,0,0,.4.044c.553,0,.752-.287.752-1.193v-3c0-.884-.2-1.193-.8-1.193H36.89l-.177.022-.155.022-.066.022V16.34Zm9.645,5.71v.331H44.479v-.331a2.816,2.816,0,0,0,.486.044.717.717,0,0,0,.818-.817v-3.8a.742.742,0,0,0-.818-.839.972.972,0,0,0-.2.022l-.133.022-.066.022v-.309h3.846V16.7l-.088-.022-.177-.022a1.462,1.462,0,0,0-.243-.022c-.641,0-.84.287-.84,1.193V20.9c0,.928.2,1.193.84,1.193a3.728,3.728,0,0,0,.554-.047Zm7.082-5.71v.309l-.111-.022a.622.622,0,0,0-.177-.022.8.8,0,0,0-.818.574l-.177.42-.221.574-.2.508-.088.243L52.4,22.52H52c-.133-.353-.177-.442-.376-.95-.243-.641-.332-.906-.641-1.657l-.42-1.06c-.155-.376-.265-.685-.376-.95-.155-.376-.265-.6-.265-.641-.2-.508-.42-.685-.84-.685a2.228,2.228,0,0,0-.42.044v-.287H52v.309l-.111-.022-.133-.022-.088-.022h-.044c-.265,0-.464.133-.464.331a.544.544,0,0,0,.066.265.975.975,0,0,0,.066.177.314.314,0,0,1,.044.133l1.2,3.117,1.26-3.336.088-.221.022-.088v-.088c0-.243-.155-.331-.486-.331a.328.328,0,0,0-.155.022l-.111.088h-.066v-.309Zm5.626,0,.221,1.3-.354.066c-.133-.773-.53-.994-1.768-.994a5.747,5.747,0,0,0-.774.066l-.177.022v2.1H59.53c.42,0,.619-.177.619-.574a1.188,1.188,0,0,0-.022-.243h.354v2.054h-.354a2.05,2.05,0,0,0,.022-.287c0-.331-.221-.53-.6-.53H58.314v2.474h1.3a1.512,1.512,0,0,0,1.768-1.237l.376.133L61.2,22.319H55.728v-.331a2.816,2.816,0,0,0,.486.044c.641,0,.84-.287.84-1.193V17.814c0-.884-.221-1.193-.818-1.193a1.135,1.135,0,0,0-.221.022l-.133.022-.066.022v-.353Zm13.3.121V18h-.354c-.133-.972-.575-1.392-1.415-1.392-.641,0-1.105.376-1.105.862,0,.4.243.663.906.972l.663.309c1.194.574,1.614,1.038,1.614,1.856,0,1.1-1.017,1.878-2.5,1.878a5.451,5.451,0,0,1-1.37-.2,3.707,3.707,0,0,0-.4-.066l.044-1.767h.376A1.508,1.508,0,0,0,72.4,22.043a1.083,1.083,0,0,0,1.149-1.06c0-.53-.221-.751-1.481-1.392C70.835,18.95,70.5,18.6,70.5,17.868c0-.994.884-1.657,2.188-1.657a5.206,5.206,0,0,1,1.216.177,1.423,1.423,0,0,0,.464.066Zm5.5,5.589v.331H76.017v-.331a3.106,3.106,0,0,0,.508.044c.641,0,.84-.265.84-1.193V17.824c0-.906-.2-1.193-.84-1.193a.972.972,0,0,0-.2.022l-.133.022-.111-.022v-.309h3.846v.309l-.088-.022-.177-.022a1.652,1.652,0,0,0-.243-.022.742.742,0,0,0-.818.839V21.2a.741.741,0,0,0,.84.817,1.1,1.1,0,0,0,.532.027Zm5.835-5.71.155,1.635h-.376l-.022-.155c-.111-.817-.243-.994-.752-1.016h-.95v4.087c0,.906.177,1.215.729,1.215a1.5,1.5,0,0,0,.332-.044v.331H81.5v-.331a1.936,1.936,0,0,0,.354.044c.442,0,.707-.309.707-.862V16.8h-.906c-.575,0-.752.243-.818,1.193h-.376l.155-1.635H85.81Zm7.535,0v.309A.86.86,0,0,0,93,16.6a.871.871,0,0,0-.729.353l-.354.53-.111.177-1.3,1.988v1.591c.022.552.265.862.707.862a2.179,2.179,0,0,0,.376-.044v.331H88.17v-.331a1.947,1.947,0,0,0,.376.044c.442,0,.707-.309.729-.862V19.692l-1.017-1.48-.464-.663-.287-.4a.952.952,0,0,0-.906-.53,1.946,1.946,0,0,0-.309.022l-.111.022v-.331H89.5v.309h-.088l-.111-.022a.781.781,0,0,1-.133-.022c-.2,0-.354.11-.354.287,0,.088.022.133.11.265L90.27,19.14l1.083-1.679.066-.133.111-.155a.658.658,0,0,0,.111-.309c0-.155-.155-.265-.4-.265a.389.389,0,0,0-.133.022L91,16.643l-.066.022v-.331Zm22.253,0,.221,1.3-.354.066c-.111-.751-.53-.994-1.768-.994a5.222,5.222,0,0,0-.774.066l-.177.022v2.1h1.216c.42,0,.619-.177.619-.53v-.287h.354v2.054h-.354v-.11l.022-.155v-.044c0-.309-.221-.508-.6-.508h-1.238v2.474h1.3c1.017,0,1.326-.2,1.7-1.082a1.076,1.076,0,0,0,.066-.155l.376.133-.553,1.635H110.18v-.331a2.816,2.816,0,0,0,.486.044.735.735,0,0,0,.818-.817V17.461a.761.761,0,0,0-.818-.839,1.285,1.285,0,0,0-.221.022l-.155.022-.066.022v-.353Zm5.865.121V18h-.332c-.133-.95-.575-1.392-1.415-1.392-.641,0-1.105.376-1.105.862,0,.4.243.685.884.972l.663.309c1.216.574,1.614,1.038,1.614,1.856,0,1.127-1.017,1.878-2.5,1.878a6.528,6.528,0,0,1-1.37-.2,3.707,3.707,0,0,0-.4-.066l.066-1.767h.376c.088,1.016.641,1.591,1.481,1.591a1.117,1.117,0,0,0,1.171-1.06c0-.53-.265-.773-1.481-1.392-1.238-.641-1.569-.994-1.569-1.723,0-1.016.862-1.679,2.188-1.679a4.252,4.252,0,0,1,1.216.177,1.423,1.423,0,0,0,.464.066Zm5.723,0V18h-.354c-.133-.972-.575-1.392-1.415-1.392a.994.994,0,0,0-1.105.862c0,.4.243.663.906.972l.641.309c1.238.6,1.636,1.038,1.636,1.856,0,1.127-1.017,1.878-2.5,1.878a5.73,5.73,0,0,1-1.393-.2,3.708,3.708,0,0,0-.4-.066l.044-1.767h.376a1.508,1.508,0,0,0,1.481,1.591,1.083,1.083,0,0,0,1.149-1.06c0-.53-.221-.729-1.481-1.37-1.238-.641-1.569-.994-1.569-1.723,0-1.016.862-1.679,2.188-1.679a4.9,4.9,0,0,1,1.216.177,1.357,1.357,0,0,0,.464.066ZM46.557,1.852l1.68,4.219.088.243c1.7,4.33,2.1,4.948,3.072,4.948a1.5,1.5,0,0,0,.42-.066v.486H46.69V11.2a1.4,1.4,0,0,0,.508.066c.53,0,.774-.2.774-.574a1.687,1.687,0,0,0-.111-.464l-.553-1.48h-3.16l-.442,1.127-.088.221-.088.265a1.7,1.7,0,0,0-.044.331c0,.376.332.6.862.6a3.287,3.287,0,0,0,.553-.066V11.7H40.833v-.5a1.788,1.788,0,0,0,.442.066c.752,0,1.1-.4,1.724-1.878l.243-.574.133-.331,2.763-6.627ZM45.651,4.79,44.413,8.06l2.52.044c.022-.022-1.282-3.313-1.282-3.313ZM66.844,2.915V2.429H70.16c.287,0,.8-.022,1.614-.044.4-.022.707-.022.906-.022,1.7,0,2.7.729,2.7,1.966,0,1.193-.8,1.966-2.365,2.32,1.857.133,2.741.862,2.741,2.3,0,1.811-1.415,2.806-4.045,2.806-.2,0-.486,0-.884-.022l-.906-.022H66.689v-.486a4.263,4.263,0,0,0,.729.066c1.105,0,1.326-.376,1.326-2.3V5.147c0-1.944-.2-2.275-1.348-2.275a1.179,1.179,0,0,0-.552.043ZM70.6,6.428a3.876,3.876,0,0,0,.729.088,2.088,2.088,0,0,0,2.19-2.076,1.7,1.7,0,0,0-1.857-1.613,2.992,2.992,0,0,0-1.061.221Zm0,4.551a5.174,5.174,0,0,0,1.105.133A2.058,2.058,0,0,0,73.763,8.88C73.763,7.687,72.9,7,71.375,7a4.094,4.094,0,0,0-.774.088Zm6.681-8.063V2.429h3.05l.685-.022.707-.022c.6-.022.818-.022.973-.022,2.1,0,3.139.729,3.139,2.231,0,1.37-.818,2.187-2.409,2.364a4.053,4.053,0,0,1,1.945,2.1c.906,1.679,1.415,2.187,2.144,2.187a2.407,2.407,0,0,0,.42-.044v.486h-1.3l-.442.022h-.4c-.906,0-1.3-.287-1.9-1.414l-.376-.707c-.973-1.856-1.415-2.231-2.5-2.231V8.968c0,1.922.221,2.3,1.326,2.3a3.509,3.509,0,0,0,.641-.066v.486H77.151V11.2a4.688,4.688,0,0,0,.729.066c1.017,0,1.326-.442,1.326-1.834V4.7c0-1.414-.309-1.834-1.326-1.834a1.818,1.818,0,0,0-.6.049Zm3.736,3.91c.287.022.4.022.619.022A1.978,1.978,0,0,0,83.892,4.7a1.776,1.776,0,0,0-1.835-1.922,3.282,3.282,0,0,0-1.017.177V6.826ZM95.55,2.915V2.429h3.227l.663-.022.8-.022c.553-.022.928-.022,1.127-.022,3.249,0,4.951,1.436,4.951,4.153,0,3.181-2.255,5.213-5.725,5.213l-1.039-.022H95.461v-.486a4.725,4.725,0,0,0,.752.066c1.105,0,1.348-.4,1.348-2.3V5.147c0-1.922-.221-2.275-1.37-2.275a1.578,1.578,0,0,0-.641.043Zm3.912,8a4.266,4.266,0,0,0,1.459.265c2.034,0,3.316-1.745,3.316-4.484,0-2.408-1.238-3.8-3.36-3.8a4.357,4.357,0,0,0-1.437.243c.022,0,.022,7.773.022,7.773ZM62.611,16.646v-.309h2.431l.464-.022c.243,0,.486-.022.619-.022,1.393,0,2.056.464,2.056,1.458,0,.884-.53,1.414-1.569,1.546a2.755,2.755,0,0,1,1.26,1.37c.663,1.215.884,1.414,1.481,1.414a.622.622,0,0,0,.177-.022v.331H68.2c-.663,0-.906-.177-1.3-.906a5.038,5.038,0,0,1-.243-.464c-.619-1.171-.906-1.436-1.636-1.458V20.91c0,.906.2,1.193.84,1.193a2.036,2.036,0,0,0,.42-.044v.331H62.5v-.331a2.816,2.816,0,0,0,.486.044c.641,0,.84-.287.84-1.193V17.817c0-.884-.221-1.193-.818-1.193a.972.972,0,0,0-.2.022l-.155.022Zm2.409,2.563a3.273,3.273,0,0,0,.442.022,1.259,1.259,0,0,0,1.415-1.37A1.144,1.144,0,0,0,65.683,16.6a2.594,2.594,0,0,0-.663.11Zm33.887.4v1.635c.022.574.287.862.818.862a2.036,2.036,0,0,0,.42-.044v.331H96.52V22.06a2.036,2.036,0,0,0,.42.044c.619,0,.818-.309.818-1.215V17.818c0-.884-.221-1.215-.818-1.215a1.015,1.015,0,0,0-.221.022l-.155.022-.088.022V16.36h2.365l.508-.022c.265,0,.486-.022.6-.022,1.459,0,2.1.464,2.1,1.524,0,1.1-.928,1.856-2.277,1.856h-.088l-.354-.022a4.008,4.008,0,0,0-.423-.066Zm0-.42a2.435,2.435,0,0,0,.53.044,1.249,1.249,0,0,0,1.348-1.37A1.144,1.144,0,0,0,99.592,16.6a1.864,1.864,0,0,0-.663.133v2.452Zm4.021-2.542v-.309h2.431l.464-.022c.243,0,.486-.022.619-.022,1.393,0,2.056.464,2.056,1.458,0,.884-.53,1.414-1.569,1.524a2.664,2.664,0,0,1,1.26,1.37c.663,1.215.884,1.414,1.481,1.414a.622.622,0,0,0,.177-.022v.331H108.52c-.663,0-.906-.177-1.3-.906a5.041,5.041,0,0,1-.243-.464c-.619-1.171-.906-1.436-1.636-1.458v1.348c0,.906.2,1.193.84,1.193a2.722,2.722,0,0,0,.442-.044v.331h-3.78v-.331a3.106,3.106,0,0,0,.508.044c.641,0,.84-.287.84-1.193V17.817c0-.884-.221-1.193-.818-1.193a.972.972,0,0,0-.2.022l-.155.022Zm2.431,2.563a3.131,3.131,0,0,0,.42.022,1.266,1.266,0,0,0,1.437-1.37,1.144,1.144,0,0,0-1.194-1.259,2.316,2.316,0,0,0-.663.11Z" transform="translate(2.326 0.02)"/><path class="a" d="M0,0Q11.9.2,23.806,0c0,.044.022.11.022.155-.044,1.856-.088,3.711-.111,5.567-.022,3.115,0,6.208,0,9.322a14.01,14.01,0,0,1-.553,4.286,7.653,7.653,0,0,1-2.829,3.778,29.843,29.843,0,0,1-4.819,2.761c-1.127.552-2.255,1.127-3.382,1.679-.088.044-.243.088-.309.044-2.078-1.038-4.155-2.077-6.211-3.137a12.453,12.453,0,0,1-3.426-2.54,7.1,7.1,0,0,1-1.9-4.352C.177,16.524.133,15.486.111,14.447.088,10.206.088,5.965.088,1.745.088,1.171.022.574,0,0ZM9.394.376V9.543H.42v4.948h9V25.78a.389.389,0,0,0,.265.42c.685.331,1.37.685,2.034,1.038a.4.4,0,0,0,.442,0c.663-.353,1.326-.685,2.011-1.016a.416.416,0,0,0,.287-.442V14.47h9V9.521H14.434V.353C12.732.376,11.074.376,9.394.376Zm-1.5,1.436c-.4-.2-.774-.376-1.149-.552a5.247,5.247,0,0,1,1.013.24c.2.066.376.066.442-.133.044-.133-.066-.309-.088-.464-.022,0-.044.022-.066.022-.044.42-.044.42-.464.287A8.532,8.532,0,0,0,6.322.95a.866.866,0,0,0-.862.486.94.94,0,0,0,.022,1.016,1.891,1.891,0,0,0,1,.707c.42.177.862.309,1.282.508.177.066.354.2.287.42-.066.2-.265.243-.464.221-.4-.066-.818-.155-1.216-.2a2.244,2.244,0,0,0-1.857.442c-.066.066-.2.066-.287.11a3.842,3.842,0,0,0-.42.221.964.964,0,0,0-.177.221c-.177-.265-.354-.486-.53-.751A3.216,3.216,0,0,1,3.293,4c.088.243.155.464.221.685h.111c.066-.2.155-.4.221-.6l.265.331a.483.483,0,0,0,.111-.066c.022-.155.044-.331.066-.464.133.044.243.11.42.177-.133-.331-.177-.619-.575-.486A7.087,7.087,0,0,0,4.354,2.8c.044-.265.066-.53.088-.8H4.53c.022.11.022.221.044.376.287-.2.332-.4.177-.641-.133-.2-.265-.376-.42-.6-.111.088-.243.2-.42.353.044-.309.044-.552-.265-.663-.111.2-.221.376-.309.53-.111-.066-.221-.155-.376-.265-.044.221-.066.4-.088.486-.155.066-.354.066-.4.155-.088.243.044.464.265.663v-.42A.081.081,0,0,0,2.8,1.956c.155.53.287,1.038.442,1.568-.265-.11-.309.044-.309.309A3.724,3.724,0,0,0,3.183,5.39a1.1,1.1,0,0,1-.022.751A3.022,3.022,0,0,1,1.724,7.577a.616.616,0,0,0-.4.8c.354-.287.663-.53.973-.773-.066.243-.155.486.2.685.133-.42.243-.817.354-1.193.133.221.221.221.354-.044a3.894,3.894,0,0,0,.155-.6c.066.11.111.2.155.287a.2.2,0,0,1,.111.022c.088-.243.155-.486.243-.751.066.066.088.11.133.155.133-.11.287-.2.088-.42a.472.472,0,0,1-.022-.309A4.673,4.673,0,0,1,4.31,4.97c0-.022.044-.022.088-.044.022.088.022.155.044.243.133-.044.243-.088.354-.133a4.416,4.416,0,0,1,.575-.11A1.077,1.077,0,0,1,5.636,4.9c-.022-.088-.022-.177-.044-.265a.188.188,0,0,0-.066-.11c.022-.022.044-.022.044-.044a1.333,1.333,0,0,1,.177.177c.464.729.884,1.5,1.835,1.745a.328.328,0,0,1,.177.486c-.111.243-.265.442-.4.685a6.36,6.36,0,0,0-.287.685c.6.11.508-.309.6-.641.155.221.287.4.4.552a.374.374,0,0,1,.111-.044c-.066-.331-.133-.663-.2-1.016.066.022.111.022.177.044.2-.331-.066-.53-.243-.817.133,0,.221.022.309.022L8.289,6.3C8.2,6.163,8.09,5.92,8,5.92c-.508.022-.729-.287-.84-.707a1.191,1.191,0,0,0-.84-.928c.133,0,.177-.022.221,0,.354.066.685.155,1.039.221.442.066.752-.2.707-.6a1.041,1.041,0,0,0-.553-.8c-.044.066-.066.133-.111.2-.243-.265-.332-.707-.818-.6.044.11.066.221.133.4-.376-.287-.553-.751-1.017-.817.022.11.044.2.066.287a.9.9,0,0,1-.332-.309A.629.629,0,0,1,5.681,1.5a.853.853,0,0,1,.8-.088,3.627,3.627,0,0,1,.641.353.665.665,0,0,0,.769.046ZM22.767.928c-.044,0-.066.022-.111.022-.022.42-.044.42-.442.309a8.532,8.532,0,0,0-1.26-.265.9.9,0,0,0-.884.486.9.9,0,0,0,.044,1.02,2.2,2.2,0,0,0,1.149.729c.376.155.752.287,1.127.442a.351.351,0,0,1,.265.442c-.066.221-.265.243-.464.2-.4-.066-.818-.155-1.216-.2a2.182,2.182,0,0,0-1.857.464c-.066.044-.155.11-.243.088a.462.462,0,0,0-.508.287c-.022.066-.111.11-.155.155-.177-.265-.332-.486-.508-.729.044-.088.133-.221.2-.353.088.243.155.464.221.663h.111c.066-.2.155-.4.221-.6a3.669,3.669,0,0,1,.287.309c.022,0,.066-.022.088-.022.022-.155.044-.331.066-.486.133.044.243.11.354.155.022-.022.022-.044.044-.088-.111-.2-.133-.53-.508-.4.111-.53.221-1.06.309-1.568h.044c.022.11.044.221.066.353.265-.2.354-.53.155-.619-.265-.11-.287-.353-.354-.619-.177.133-.309.243-.4.309-.088-.2-.177-.4-.243-.6a.2.2,0,0,0-.111.022c-.111.177-.221.353-.309.53-.111-.066-.221-.155-.376-.243-.044.221-.066.4-.088.486-.155.066-.376.088-.4.155-.088.243.044.442.287.663V1.988h.066c.155.53.309,1.038.442,1.568-.243-.11-.309.022-.309.265a3.062,3.062,0,0,0,.2,1.414,1.08,1.08,0,0,1-.133,1.171A3.445,3.445,0,0,1,16.29,7.577a.591.591,0,0,0-.376.707,2.5,2.5,0,0,0,.486-.243,5.063,5.063,0,0,0,.464-.508c0,.265-.088.508.265.707.133-.42.243-.817.354-1.215.022.044.066.11.111.2.376-.155.332-.486.354-.862a2.222,2.222,0,0,0,.2.353.2.2,0,0,1,.111.022c.088-.243.155-.486.243-.751.066.066.088.11.133.155.155-.133.287-.221.088-.42a.324.324,0,0,1,0-.287,4.673,4.673,0,0,1,.243-.464c.022-.022.044-.022.088-.044.022.088.022.155.044.243a1.946,1.946,0,0,1,.332-.11,4.308,4.308,0,0,1,.508-.133,1.891,1.891,0,0,1,.354,0c-.044-.133-.066-.243-.111-.376a.653.653,0,0,0,.066-.088c.111.155.221.287.309.42a2.951,2.951,0,0,0,1.636,1.5.358.358,0,0,1,.221.552c-.111.221-.243.442-.376.663a.916.916,0,0,0-.221.685c.553.133.42-.331.53-.641.155.221.287.4.4.574a.374.374,0,0,1,.111-.044c-.066-.331-.133-.663-.2-1.016a.684.684,0,0,1,.177.044c.2-.331-.066-.552-.265-.817.155.022.221.044.354.066-.022-.177-.066-.309-.088-.464a.757.757,0,0,1-.973-.641,1.215,1.215,0,0,0-.774-.972.262.262,0,0,1,.177-.022c.332.066.663.177,1.017.221.53.088.84-.265.663-.751a2.662,2.662,0,0,0-.42-.6c-.022-.022-.044-.022-.088-.044a2.052,2.052,0,0,0-.111.221c-.243-.287-.332-.707-.818-.619.044.133.088.221.111.309-.376-.2-.53-.663-1-.729a1.108,1.108,0,0,1,.044.265.848.848,0,0,1-.332-.287.663.663,0,0,1,0-.773.644.644,0,0,1,.752-.155,3.627,3.627,0,0,1,.641.353.706.706,0,0,0,.774.066c-.4-.177-.774-.376-1.149-.552a5.247,5.247,0,0,1,1.017.243c.177.044.354.11.42-.088C22.855,1.281,22.767,1.1,22.767.928ZM4.487,16.171c-.022-.11-.044-.287-.066-.486-.177.11-.309.221-.442.309-.088-.2-.177-.376-.243-.552H3.647c-.066.177-.155.376-.221.552-.133-.088-.243-.155-.4-.265-.044.221-.066.376-.088.464-.155.066-.332.088-.4.177-.088.133.111.464.332.574v-.309c.287.464.111,1.1.707,1.5-.486-.066-.53-.044-.508.353A1.331,1.331,0,0,0,3.6,19.5a3.032,3.032,0,0,1,.4.353c.309.331.265.619-.111.839a1.935,1.935,0,0,1-.486.221.608.608,0,0,0-.486.574c.442.265.508-.331.818-.376.022.243.022.486.044.729.044,0,.088.022.155.022.111-.331.243-.663.354-1.016.022.022.111.044.221.11a4.544,4.544,0,0,1,.066-.464,1.321,1.321,0,0,0,.354-.177c.155-.155,0-.243-.088-.331a.513.513,0,0,1,.066-.751c-.044.376-.044.353.309.243a4.383,4.383,0,0,1,.8-.088c0-.022-.022-.088-.044-.177.044-.022.066-.022.111-.044.111.265.265.53.354.817a1.6,1.6,0,0,0,.84,1.082.687.687,0,0,1,.42.773c-.088.486-.2.95-.309,1.436a1.238,1.238,0,0,0,.111.928c.42-.265.309-.641.265-1.082.177.133.265.221.376.309.044-.022.066-.022.111-.044-.088-.287-.155-.6-.243-.906.044,0,.111.022.287.044-.111-.309-.2-.552-.287-.817a1.085,1.085,0,0,1,.243.022v-.707a.693.693,0,0,1-.752-.619c-.111-.486-.111-1.038-.663-1.3a5.509,5.509,0,0,1,.707.177.738.738,0,0,0,.95-.442.913.913,0,0,0-.575-1.016v.265c-.243-.309-.42-.619-.84-.552.044.133.088.2.111.287a.864.864,0,0,1-.111.088c-.243-.221-.442-.53-.862-.53.044.11.066.177.111.265l-.066.066a5.231,5.231,0,0,1-.6-.619.519.519,0,0,1,.066-.707.508.508,0,0,1,.663-.066,5.914,5.914,0,0,1,.619.4.9.9,0,0,0,.752.155c-.442-.287-.84-.574-1.26-.862.022-.022.022-.044.044-.066a8.22,8.22,0,0,0,.752.42,1.565,1.565,0,0,0,.685.221c.354.022.486-.243.309-.574-.133.4-.243.42-.619.221-.265-.133-.53-.309-.818-.42a1.049,1.049,0,0,0-.973,1.856c.42.177.862.309,1.282.464a4.871,4.871,0,0,1,.8.287.5.5,0,0,1,.177.42c-.022.11-.221.221-.354.243a2.153,2.153,0,0,1-.53-.044,10.788,10.788,0,0,0-1.216-.265,1.631,1.631,0,0,0-1.636.464.243.243,0,0,1-.221.088c-.2-.133-.376-.243-.6-.088-.022.022-.088-.022-.111-.066a.828.828,0,0,1-.155-.8.373.373,0,0,1,.044.11c.066.133.133.243.2.376a3.846,3.846,0,0,1,.265-.309c0-.022.022,0,.044-.022a.483.483,0,0,1,.066.11A3.371,3.371,0,0,1,4.178,19l.133-.4a.022.022,0,0,1,.022-.022c.111.044.243.088.354.133.022-.022.022-.044.044-.066-.111-.2-.221-.4-.332-.574-.111.022-.2.044-.287.066-.022-.022-.022-.044-.044-.066.508-.353.221-.972.508-1.436.022.133.022.243.044.331a.133.133,0,0,1,.088.022,1.73,1.73,0,0,0,.088-.574C4.841,16.3,4.642,16.259,4.487,16.171ZM17.617,18c-.088.066-.265.133-.287.2a9.056,9.056,0,0,0-.066,1.546c.066.641-.088,1.06-.619,1.281a3.055,3.055,0,0,1-.6.177.645.645,0,0,0-.508.707c.287-.155.553-.287.8-.42v.552c.022,0,.044.022.066.022.133-.221.243-.442.376-.685.221.11.354-.022.442-.464.287.11.332.044.354-.552a2.426,2.426,0,0,0,.243.265c.066-.155.221-.309.177-.376-.221-.353.066-.552.155-.862.044.155.044.243.088.376a4.009,4.009,0,0,1,.774-.353,3.17,3.17,0,0,1,.8-.022.785.785,0,0,0-.044-.221,1.844,1.844,0,0,1,.265.353.876.876,0,0,0,.641.464c.332.066.4.221.243.53a1.01,1.01,0,0,1-.332.353c-.4.287-.442.376-.287.972l.508-.729c.022.155.066.287.088.42a.133.133,0,0,1,.088.022c.088-.287.177-.6.243-.884,0,0,.088.022.2.044-.022-.2-.022-.353-.044-.53.265.155.309-.022.332-.221-.685.044-.774-.663-1.216-.928a1.707,1.707,0,0,1,.332.044,6.2,6.2,0,0,0,.685.2.719.719,0,0,0,.884-.442.8.8,0,0,0-.42-.906c-.022.066-.022.133-.044.2a1.008,1.008,0,0,0-.8-.685c.022.11.066.2.088.309-.066-.022-.088-.044-.111-.044-.2-.133-.287-.574-.663-.265a.109.109,0,0,1-.066-.022.787.787,0,0,1-.354-.884.574.574,0,0,1,.818-.265c.221.11.442.265.663.4a.638.638,0,0,0,.729.044c-.42-.221-.84-.442-1.282-.685.044-.044.088-.044.111-.022.376.155.774.287,1.149.442a.3.3,0,0,0,.442-.11,1.08,1.08,0,0,0,.022-.464h-.066c-.066.331-.133.376-.486.265s-.707-.243-1.061-.331a1.088,1.088,0,0,0-1.238.619.933.933,0,0,0,.42,1.215,8.888,8.888,0,0,0,1.039.486,3.933,3.933,0,0,1,.663.376.366.366,0,0,1,.133.353c-.022.088-.2.177-.332.2a1.225,1.225,0,0,1-.4-.044c-.265-.066-.53-.133-.8-.221a2.041,2.041,0,0,0-2.078.376c-.044.044-.133.066-.155.044-.265-.133-.42,0-.575.2a.814.814,0,0,1-.221-1.038c.044.177.111.376.177.574h.111c.066-.155.133-.309.221-.486.088.177.177.309.287.53.066-.221.133-.376.155-.486a2.7,2.7,0,0,0,.376.155c.022-.022.022-.044.044-.088-.2-.177-.088-.663-.508-.552.155-.442.332-.906.486-1.392a.077.077,0,0,1,.044.022c0,.088.022.2.022.287a.4.4,0,0,0,.221-.508c-.044-.11-.177-.177-.287-.287-.022-.11-.066-.265-.111-.464-.177.11-.309.221-.42.287-.066-.221-.133-.42-.2-.619H18.03c-.088.2-.155.4-.243.6-.111-.088-.2-.2-.354-.309-.066.221-.111.4-.133.508-.177.044-.4.044-.42.133-.111.243.044.442.265.6,0-.11.022-.221.022-.309a3.757,3.757,0,0,1,.221.707,4.958,4.958,0,0,0,.229.715Zm.265,4.86c.111.066.177.11.287.177.111-.221.2-.4.287-.6l.177.265c.088-.221.177-.4.243-.574.155.331.243.088.332-.044a.34.34,0,0,0-.044-.243.886.886,0,0,1,.022-.906c.111-.2.265-.376.376-.574a2.456,2.456,0,0,0,.177-.464,1.573,1.573,0,0,1-.332-.155c-.133-.088-.243-.11-.332.066a2.026,2.026,0,0,1-.287.464.768.768,0,0,0-.243.95.794.794,0,0,1-.376,1.06c-.486.331-1.017.641-1.525.95a.611.611,0,0,0-.309.707c.066-.022.111-.066.155-.066a.615.615,0,0,0,.619-.486c.022-.088.155-.177.265-.287v.552c.375-.1.508-.368.508-.788ZM16.047,2.916c-.044.022-.066.044-.111.066-.155-.177-.177-.552-.6-.331.221.309.42.619.641.928-.066.022-.155.022-.332.066.221.287.4.53.6.8a.973.973,0,0,0-.221.044c.022.486.376.663.752.862-.111.022-.2.066-.354.088.111.177.2.309.287.464.133-.133.221-.265.332-.353a2.635,2.635,0,0,1,.442-.177c-.022-.221-.066-.464-.088-.729-.42.4-.729.331-.928-.155a1.539,1.539,0,0,1-.133-.42l-.066-1.723A1.118,1.118,0,0,0,15.8,1.44a6.111,6.111,0,0,0-.022.884,2.255,2.255,0,0,0,.265.592Zm-14.61,0c-.044.022-.066.022-.111.044-.265-.442-.265-.442-.575-.331.2.309.4.6.619.906-.044.022-.133.022-.332.066.221.287.4.552.575.8a2.718,2.718,0,0,1-.287.044,2.4,2.4,0,0,0,.309.53,3.028,3.028,0,0,0,.553.331c-.155.044-.265.066-.42.11q.166.265.265.4c.287-.2.53-.353.818-.552-.022-.177-.044-.4-.088-.685-.4.4-.729.353-.928-.133a2.761,2.761,0,0,1-.2-.817c-.022-.442,0-.884-.022-1.325a.935.935,0,0,0-.486-.884,5.877,5.877,0,0,0,0,.884c.089.214.221.413.31.612ZM4.155,8.284a.785.785,0,0,0,.752-.221,1.159,1.159,0,0,1,.4-.221c-.066.221-.111.42-.155.6.022,0,.044.022.088.022.221-.265.575-.42.464-.906.133.066.2.11.243.133.376-.177.155-.486.133-.773.133.066.2.11.287.155L6.5,6.8c-.4-.265-.486-.464-.354-.8.111-.287-.111-.442-.2-.641a.237.237,0,0,0-.133-.044c-.2.044-.486.42-.42.619a5.144,5.144,0,0,0,.309.729c.177.4.111.685-.309.862a3.985,3.985,0,0,1-.729.221C4.421,7.842,4.178,7.953,4.155,8.284ZM21.087,6.8c-.4-.265-.4-.376-.332-.862.022-.2-.133-.4-.2-.619,0-.022-.088-.022-.133-.022a.554.554,0,0,0-.354.8c.088.221.221.42.309.641a.481.481,0,0,1-.133.619,1.59,1.59,0,0,1-.464.265c-.221.088-.464.11-.685.2a.422.422,0,0,0-.332.464.748.748,0,0,0,.752-.243,1.159,1.159,0,0,1,.4-.221c-.066.221-.111.42-.177.6.022,0,.066.022.088.022.2-.265.575-.42.442-.906.133.088.2.133.243.155.376-.177.133-.486.155-.8C20.976,7.157,21.043,7,21.087,6.8ZM15.87,17.717c-.42.221.022.464.022.707h-.177c-.066.376.155.574.486.751-.177.044-.287.044-.4.066.066.177.111.309.133.376.4-.044.729-.088,1.083-.155.022-.177.044-.4.066-.619-.53.265-.884.11-.928-.442a6.643,6.643,0,0,1,.022-1.325c.044-.442.177-.906-.332-1.193a1.187,1.187,0,0,0,.133,1.082,4.828,4.828,0,0,1-.464-.177c-.022.022-.044.066-.066.088C15.583,17.165,15.716,17.43,15.87,17.717ZM1.77,18.6c-.155.243-.111.309.619.685-.066.044-.133.11-.221.177.088.088.155.2.221.265.265-.133.508-.243.729-.353-.066-.221-.133-.42-.2-.641-.309.265-.53.243-.774-.11a1.992,1.992,0,0,1-.287-1.789.657.657,0,0,0-.42-.862c.022.376.044.707.066,1.038-.133-.044-.287-.11-.42-.155-.022.022-.044.066-.088.088l.53.8a.857.857,0,0,1-.243.066c.177.305.332.548.486.79Zm4.907,3.115c-.088-.265-.155-.442-.2-.619-.088-.331-.177-.685-.265-1.016-.022-.088-.111-.221-.155-.2a.53.53,0,0,0-.265.155.613.613,0,0,0-.066.4,2.231,2.231,0,0,0,.155.508c.309.773.265,1.038-.508,1.259a.713.713,0,0,0-.486.773c.243-.177.442-.331.619-.464.044.2.066.4.111.6h.111c.111-.287.243-.574.354-.862.42.088.221-.309.332-.508a2.039,2.039,0,0,0,.177.11Zm-.022,1.745c.376-.088.685-.243.641-.729-.311.176-.687.243-.643.729ZM15.848,7c.442.42.619.442.906.066C16.445,7,16.18,6.782,15.848,7Zm-13.7.088C1.835,7,1.569,6.782,1.238,7c.4.423.574.445.906.091ZM16.758,23.06c.265-.155.508-.287.8-.464-.558-.107-.8.047-.8.467ZM5.551,21.96c-.486-.243-.6-.243-.8,0,.267.286.532.153.8,0Zm10.941-.994c-.354-.309-.486-.331-.774-.2.282.353.373.375.771.2ZM19.584,7.511a.5.5,0,0,0-.707-.221C19.164,7.666,19.208,7.666,19.584,7.511ZM4.266,7.29c.309.376.4.4.707.2a.521.521,0,0,0-.707-.2ZM2.918,20.545c.287.331.287.353.619.155C3.271,20.346,3.227,20.346,2.918,20.545Zm17.749.221c-.464-.11-.6-.066-.729.376.262-.134.462-.242.729-.377ZM21.9,7.378c-.309-.044-.42.022-.464.309C21.816,7.71,21.86,7.688,21.9,7.378Zm-14.588,0c-.332-.044-.42.022-.464.309.358.023.424,0,.468-.309Zm9.107-4.087c.332-.265.332-.486.044-.729-.018.244-.018.464-.04.73ZM1.857,2.54v.729a.433.433,0,0,0,0-.729ZM1.99,17.01c-.022.243-.044.442-.066.619.331-.31.331-.376.065-.619Z"/><path class="a" d="M14,13.287h-.73v1.524h-.928V13.287H10.087v1.524H9.18V13.287H8.407V9.222h.442a.514.514,0,0,0,.508-.2A.422.422,0,0,1,10,9.068a.665.665,0,0,0,.818.022.484.484,0,0,1,.729,0,.6.6,0,0,0,.774,0c.177-.2.42-.265.6-.066a.843.843,0,0,0,.707.2h.354C14,10.57,14,11.917,14,13.287ZM12.341,11.5a1.517,1.517,0,0,0-2.321,0,1.462,1.462,0,0,0,2.321,0ZM11.015,9.708a.9.9,0,0,0,0,.243c.022.088.111.221.155.221a.319.319,0,0,0,.243-.155,2.893,2.893,0,0,0,0-.619c0-.066-.155-.133-.243-.155-.044,0-.111.133-.155.2A1.064,1.064,0,0,0,11.015,9.708Zm-1.547,0h0a.606.606,0,0,0,0,.2c.044.088.111.177.155.265.088-.066.221-.133.243-.243a1.076,1.076,0,0,0,0-.53c-.022-.088-.155-.133-.243-.2-.044.088-.111.155-.155.243A1.047,1.047,0,0,0,9.468,9.708Zm3.4,0h0a.606.606,0,0,0,0-.2c-.044-.088-.111-.177-.155-.265-.088.066-.221.133-.243.221a1.2,1.2,0,0,0,0,.486c.022.088.133.155.221.221a1.686,1.686,0,0,0,.177-.243.74.74,0,0,0,0-.22Zm-.354,4.507h.442v-.552h-.442Zm-3.161-.574v.552h.4v-.552Zm3.625.862v-.088c-.155,0-.287-.022-.442-.022a.449.449,0,0,0-.022.11c.111.022.243.044.354.066a.188.188,0,0,0,.114-.069Zm-3.426.088a1.944,1.944,0,0,0,.221-.133.467.467,0,0,0-.221-.088c-.066,0-.133.066-.2.088Z" transform="translate(0.7 0.741)"/><path class="b" d="M9.1,7.617c.575-.641.707-1.3.4-1.723.088-.088.155-.177.243-.265a2.521,2.521,0,0,0,.243.243,1.412,1.412,0,0,0,.42,1.723H9.918a4.522,4.522,0,0,0-.111.53H9.719a3.742,3.742,0,0,1-.111-.53,3.749,3.749,0,0,1-.508.022Z" transform="translate(0.758 0.469)"/><path class="b" d="M9.7,19.137l-.133-.53c-.155.022-.309.022-.486.044.575-.751.707-1.348.4-1.745a2.649,2.649,0,0,1,.243-.265c.088.088.155.177.243.265-.309.42-.177,1.016.4,1.745-.177-.022-.309-.022-.486-.044a4.522,4.522,0,0,0-.111.53Z" transform="translate(0.756 1.385)"/><path class="b" d="M5.036,11.163H4.572a4.522,4.522,0,0,0-.111.53H4.373c-.044-.177-.088-.331-.133-.53H3.754A1.569,1.569,0,0,0,4.2,9.4l.2-.2c.088.088.155.177.2.221a1.544,1.544,0,0,0,.436,1.742Z" transform="translate(0.313 0.766)"/><path class="b" d="M15.14,11.143c-.044.2-.088.376-.111.552h-.088l-.133-.53h-.464A1.6,1.6,0,0,0,14.787,9.4a2.762,2.762,0,0,0,.2-.221,2.648,2.648,0,0,1,.243.265c-.332.4-.177,1.1.376,1.679a3.425,3.425,0,0,1-.466.02Z" transform="translate(1.194 0.764)"/><path class="b" d="M2.831,10.987a1.548,1.548,0,0,1,.2-.2c.066.088.155.2.221.287-.287.42-.155,1.038.376,1.679H3.185c-.044.2-.088.353-.111.53H2.986l-.133-.53H2.367a1.559,1.559,0,0,0,.464-1.766Z" transform="translate(0.197 0.898)"/><path class="b" d="M10.408,23.4c-.221-.022-.354-.022-.508-.044-.044.177-.066.353-.111.53H9.7l-.133-.53c-.155.022-.287.022-.508.044a1.552,1.552,0,0,0,.464-1.767c.044-.044.111-.133.2-.221.088.088.155.177.2.221a1.57,1.57,0,0,0,.485,1.767Z" transform="translate(0.754 1.783)"/><path class="b" d="M9.492,1.366c.088-.088.155-.177.243-.265a2.521,2.521,0,0,1,.243.243c-.309.442-.177,1.06.376,1.7H9.889c-.044.177-.066.353-.111.53H9.713l-.133-.53h-.4a5.584,5.584,0,0,0,.4-.817A.741.741,0,0,0,9.492,1.366Z" transform="translate(0.765 0.092)"/><path class="b" d="M5.6,12.754H5.224a5.583,5.583,0,0,0,.4-.817c.088-.287.2-.619-.088-.884.088-.088.155-.177.243-.265l.243.243c-.309.464-.2,1.038.354,1.723H5.931l-.133.53H5.71C5.688,13.107,5.644,12.953,5.6,12.754Z" transform="translate(0.435 0.898)"/><path class="b" d="M16.152,10.987l.2-.2a2.521,2.521,0,0,0,.243.243c-.332.376-.111,1.281.4,1.723h-.464c-.044.2-.066.376-.111.53h-.088l-.133-.53h-.464A1.626,1.626,0,0,0,16.152,10.987Z" transform="translate(1.31 0.898)"/><path class="b" d="M7.747,11.143c-.155.022-.354,0-.442.088s-.066.309-.111.464H7.106l-.133-.53H6.509A1.6,1.6,0,0,0,6.951,9.4c.022-.022.088-.11.177-.221a2.521,2.521,0,0,0,.243.243C7.062,9.884,7.194,10.5,7.747,11.143Z" transform="translate(0.542 0.764)"/><path class="b" d="M1.02,11.185c.553-.641.707-1.325.376-1.723A2.648,2.648,0,0,1,1.639,9.2a2.648,2.648,0,0,1,.243.265c-.309.4-.155,1.038.376,1.7H1.816a4.522,4.522,0,0,0-.111.53C1.529,11.45,1.6,10.964,1.02,11.185Z" transform="translate(0.085 0.766)"/><path class="b" d="M12.576,16.93c-.309.376-.2.862.4,1.723a3.641,3.641,0,0,0-.464-.044c-.044.177-.066.353-.111.53h-.088c-.044-.177-.066-.331-.111-.53-.155.022-.287.022-.508.044a1.534,1.534,0,0,0,.442-1.789c-.022.044-.022.022,0,0,.066-.066.111-.133.221-.243C12.421,16.731,12.51,16.819,12.576,16.93Z" transform="translate(0.973 1.384)"/><path class="b" d="M12.088,21.635a3.306,3.306,0,0,1,.287-.243c.066.088.133.155.2.243a1.442,1.442,0,0,0,.4,1.745,3.922,3.922,0,0,0-.486-.022c-.022.177-.066.353-.088.508a.133.133,0,0,0-.088.022c-.044-.177-.066-.353-.111-.53-.155,0-.309.022-.486.022C12.309,22.629,12.442,22.033,12.088,21.635Z" transform="translate(0.975 1.781)"/><path class="b" d="M18.381,11.233c-.619-.243-.575.2-.641.486-.022,0-.044-.022-.066-.022-.044-.177-.088-.353-.133-.552H17.1c.553-.619.685-1.325.376-1.7.066-.088.155-.177.243-.287a2.521,2.521,0,0,0,.243.243C17.63,9.885,17.762,10.5,18.381,11.233Z" transform="translate(1.424 0.762)"/><path class="b" d="M12.333,5.608a2.888,2.888,0,0,0,.243.265A1.407,1.407,0,0,0,13,7.6h-.49c-.044.2-.066.353-.111.53h-.088c-.044-.177-.066-.331-.111-.53h-.508a1.342,1.342,0,0,0,.42-1.7C12.178,5.807,12.244,5.741,12.333,5.608Z" transform="translate(0.973 0.467)"/><path class="b" d="M12.083,1.368a3.137,3.137,0,0,1,.265-.287c.088.088.155.177.243.265-.332.42-.177,1.06.376,1.7H12.5c-.044.177-.066.353-.111.53H12.3c-.044-.177-.066-.331-.111-.53h-.42a5.7,5.7,0,0,0,.42-.817C12.26,1.987,12.459,1.655,12.083,1.368Z" transform="translate(0.98 0.09)"/><path class="b" d="M11.047,18.986c.088.11.155.2.221.287a1.3,1.3,0,0,0,.42,1.679c-.177.022-.4-.022-.486.088-.088.088-.066.309-.111.464H11c-.044-.177-.066-.331-.111-.508H10.4a1.56,1.56,0,0,0,.442-1.767C10.871,19.185,10.959,19.1,11.047,18.986Z" transform="translate(0.866 1.581)"/><path class="b" d="M11.2,16.28c-.044.2-.066.353-.111.53H11c-.044-.177-.066-.353-.111-.53h-.4a5.343,5.343,0,0,0,.4-.8c.088-.287.221-.619-.111-.884.088-.088.155-.177.243-.265l.243.243c-.332.376-.111,1.259.4,1.723a3.266,3.266,0,0,0-.464-.017Z" transform="translate(0.873 1.194)"/><path class="b" d="M19.723,12.756h-.508c-.044.177-.066.353-.111.53h-.088c-.044-.177-.066-.353-.111-.53h-.4a3.988,3.988,0,0,0,.4-.817c.088-.287.221-.619-.111-.884a3.305,3.305,0,0,0,.243-.287c.088.088.155.177.221.243A1.489,1.489,0,0,0,19.723,12.756Z" transform="translate(1.541 0.896)"/><path class="b" d="M20.454,9.177a1.443,1.443,0,0,0,.243.265c-.354.309-.088,1.3.4,1.7h-.486c-.044.2-.066.376-.111.552h-.09c-.044-.155-.066-.331-.111-.508h-.486a1.6,1.6,0,0,0,.442-1.767,1.168,1.168,0,0,1,.2-.242Z" transform="translate(1.65 0.764)"/><path class="b" d="M10.8,3.63c.088-.088.155-.177.243-.265a2.34,2.34,0,0,1,.221.265,1.374,1.374,0,0,0,.376,1.679c-.155.022-.376.022-.464.11s-.066.287-.088.442H11a4.522,4.522,0,0,1-.111-.53h-.4a5.706,5.706,0,0,0,.42-.817C10.974,4.248,11.107,3.917,10.8,3.63Z" transform="translate(0.873 0.28)"/><path class="a" d="M2.938,2.494c.377-.024.653-.047.93-.047.05,0,.176.165.151.236a4.673,4.673,0,0,1-.327.732c-.1.165-.251.142-.327,0C3.215,3.132,3.089,2.8,2.938,2.494Zm.377.26c.05.212.075.378.126.567.226-.094.327-.449.2-.567Z" transform="translate(0.245 0.204)"/><path class="b" d="M2.865,1.57c.155.155.486.177.464.508,0,.066-.044.11-.066.177a.444.444,0,0,1-.177-.088l-.332-.53C2.8,1.614,2.821,1.592,2.865,1.57Z" transform="translate(0.229 0.131)"/><path class="b" d="M3.662,2.362c-.221-.508-.177-.574.4-.751C3.927,1.854,3.8,2.075,3.662,2.362Z" transform="translate(0.295 0.134)"/><path class="a" d="M16.446,2.5a6.276,6.276,0,0,1,.88-.048c.075,0,.226.143.2.215a3.068,3.068,0,0,1-.251.667c-.126.238-.352.262-.453.048C16.672,3.092,16.572,2.782,16.446,2.5Zm.377.286a4.915,4.915,0,0,1,.1.6c.377-.143.226-.381.251-.6Z" transform="translate(1.369 0.203)"/><path class="b" d="M16.7,2.3a.873.873,0,0,1-.42-.729C16.88,1.857,16.9,1.946,16.7,2.3Z" transform="translate(1.356 0.131)"/><path class="b" d="M17.527,1.591c-.133.265-.243.486-.376.729C16.886,1.922,16.953,1.789,17.527,1.591Z" transform="translate(1.416 0.132)"/><path class="a" d="M4.13,15.946c.084.181-.225.963-.45,1.023a.5.5,0,0,1-.2-.06,1.747,1.747,0,0,1-.422-1.023C3.4,15.916,3.736,15.916,4.13,15.946Zm-.563.873H3.68c.056-.181.084-.391.141-.6a2.711,2.711,0,0,1-.479.03,3.041,3.041,0,0,1,.225.57Z" transform="translate(0.255 1.323)"/><path class="b" d="M3.255,15.725c-.133-.177-.243-.353-.4-.552.508.022.553.088.486.508A.168.168,0,0,0,3.255,15.725Z" transform="translate(0.238 1.263)"/><path class="b" d="M3.656,15.747c-.088-.442-.088-.442.4-.574C3.943,15.349,3.811,15.5,3.656,15.747Z" transform="translate(0.301 1.263)"/><path class="a" d="M16.286,15.884c.32-.03.61-.059.872-.059.087,0,.2.236.2.3a5.978,5.978,0,0,1-.407.739c-.029.059-.2.059-.261.03A1.292,1.292,0,0,1,16.286,15.884Zm.349.827c.087,0,.145.03.232.03a3.328,3.328,0,0,0,.058-.561,1.611,1.611,0,0,0-.2-.03c-.033.177-.062.384-.091.561Z" transform="translate(1.355 1.318)"/><path class="b" d="M16.793,15.663v-.376a3.686,3.686,0,0,0,.442-.177c.022.022.044.044.044.066-.133.177-.287.353-.42.53C16.837,15.708,16.815,15.686,16.793,15.663Z" transform="translate(1.398 1.258)"/><path class="b" d="M16.14,15.132c.243.066.553.066.442.4a.245.245,0,0,1-.2.066A2.341,2.341,0,0,1,16.14,15.132Z" transform="translate(1.344 1.26)"/><path class="a" d="M10.1,11.453a1.1,1.1,0,0,1,1.835-.031,1,1,0,0,1-1.835.031Zm.4-.094a.744.744,0,0,0,1.061,0,.773.773,0,0,0-1.061,0Z" transform="translate(0.841 0.911)"/></g><g transform="translate(917.72 646.223)"><path class="a" d="M95.656,12.949h.009v-.776h3.681v.784h-.8c-.3,0-.4.086-.4.31V16.56c0,1.948-1.81,2.319-3.621,2.319s-3.914-.362-3.914-2.388v-3.05c0-.345-.069-.491-.44-.491H89.4v-.784h4.5v.784h-.776c-.4,0-.4.121-.4.448v3.189c0,.224-.207,1.534,1.819,1.534s2.293-.8,2.293-1.534V13.4c-.009-.31-.078-.448-.44-.448Zm12.07,2,.052.009a2.164,2.164,0,0,1,.638.422,1.724,1.724,0,0,1,.517,1.258,1.6,1.6,0,0,1-.638,1.31,3.578,3.578,0,0,1-1.19.595,6.459,6.459,0,0,1-2.017.276,6.251,6.251,0,0,1-1.491-.181,8.105,8.105,0,0,1-1.457-.465.138.138,0,0,0-.207.112v.336h-.991V16.13h.862a1.241,1.241,0,0,0,.224.7,2.285,2.285,0,0,0,1.1.75,6.959,6.959,0,0,0,1.914.328,3.923,3.923,0,0,0,1.612-.284.715.715,0,0,0,.535-.664c0-.483-.362-.586-.69-.664s-1.112-.19-1.923-.276a20.446,20.446,0,0,1-2.026-.293,2.587,2.587,0,0,1-1.388-.664A1.663,1.663,0,0,1,100.7,13.9a1.819,1.819,0,0,1,1.276-1.646,6.122,6.122,0,0,1,2.423-.483,6.761,6.761,0,0,1,2.9.664c.164.1.25-.009.25-.1v-.25h.862v2.181h-.8a1.517,1.517,0,0,0-.491-.862,3.216,3.216,0,0,0-.5-.3,5.174,5.174,0,0,0-2.1-.405,3.941,3.941,0,0,0-1.819.353.629.629,0,0,0-.336.517.517.517,0,0,0,.371.474,15.03,15.03,0,0,0,1.974.293,20.239,20.239,0,0,1,2.233.336,4.2,4.2,0,0,1,.778.272Zm6.225,2.732-.017.009h1.078v.767h-4.4v-.793h.991a.276.276,0,0,0,.172-.147V13.1a.259.259,0,0,0-.172-.147h-.991v-.784H115v.793h-1.043a.25.25,0,0,0-.172.147v4.43a.241.241,0,0,0,.165.142Zm10.13-1.448h.871v.052a3.172,3.172,0,0,1-1.526,2.026,5.588,5.588,0,0,1-3.1.526,5.286,5.286,0,0,1-3.035-1.224,3.085,3.085,0,0,1-1.017-2.129V15.3a3.12,3.12,0,0,1,.517-1.724,3.267,3.267,0,0,1,.5-.586,5.863,5.863,0,0,1,3.621-1.233h.172a5.9,5.9,0,0,1,2.785.741.172.172,0,0,0,.181,0l.069-.112v-.25h.862v2.353h-.862a2.232,2.232,0,0,0-1.052-1.353,3.923,3.923,0,0,0-1.923-.44H121a2.845,2.845,0,0,0-1.948.75,2.6,2.6,0,0,0,1.362,4.422,3.9,3.9,0,0,0,.448.06h.2a3.975,3.975,0,0,0,1.905-.422,2.362,2.362,0,0,0,1.113-1.273ZM84.233,12.156h3.9v.793h-.69c-.535,0-.535.276-.535.517v3.7c0,.224-.017.526.3.526h.862v.793H83.914v-.8h.672c.379,0,.379-.155.379-.509V13.156l-2.388,5.327H81.224l-2.4-5.327v4.025c.009.353.026.509.379.509h.672v.793H76.422V17.69h.862c.3,0,.3-.293.3-.526v-3.7c0-.241-.034-.517-.535-.517h-.69v-.793H80.48l1.871,4.137Zm-26.726.784-.026.009v-.784h3.8v.784h-.8c-.4,0-.4.129-.4.491l.069,5.042H58.869L53.86,14.018v3.163c.009.353.026.509.379.509H55.1v.793H51.455V17.69h.862c.3,0,.3-.293.3-.526v-3.7c0-.241-.034-.517-.535-.517h-.69v-.793h3.1L58.8,16.076,58.76,13.43c0-.345-.069-.491-.44-.491ZM38.282,14.9l-.017-.026a2.233,2.233,0,0,1,.638.431,1.8,1.8,0,0,1,.517,1.284,1.612,1.612,0,0,1-.638,1.31,3.578,3.578,0,0,1-1.2.595,6.433,6.433,0,0,1-2.009.276,6.3,6.3,0,0,1-1.5-.181,8.037,8.037,0,0,1-1.447-.465.138.138,0,0,0-.164.155v.336H31.47V16.121h.862a1.241,1.241,0,0,0,.224.7,2.3,2.3,0,0,0,1.1.75,6.967,6.967,0,0,0,1.974.328,3.9,3.9,0,0,0,1.612-.284.715.715,0,0,0,.535-.664c0-.474-.362-.56-.69-.638s-1.112-.155-1.931-.241-1.638-.215-2.017-.3a2.587,2.587,0,0,1-1.388-.7A1.724,1.724,0,0,1,31.29,13.9a1.819,1.819,0,0,1,1.276-1.646,6.122,6.122,0,0,1,2.423-.483,6.769,6.769,0,0,1,2.9.664c.155.095.241-.009.241-.1v-.25H39v2.2h-.8a1.569,1.569,0,0,0-.491-.862,3.156,3.156,0,0,0-.5-.3,5.174,5.174,0,0,0-2.1-.405,3.949,3.949,0,0,0-1.819.353.629.629,0,0,0-.336.517.474.474,0,0,0,.371.44A15.806,15.806,0,0,0,35.3,14.3a21.36,21.36,0,0,1,2.207.336,4.441,4.441,0,0,1,.776.264Zm29.786-1.948v-.784h3.509v.784h-.793a.673.673,0,0,0-.621.3l-2.4,2.741v1.551a.259.259,0,0,0,.172.147h1.078v.784H64.7v-.793h.974a.285.285,0,0,0,.172-.147V16.112c0-.026,0,0-.052-.112s-2.267-2.586-2.371-2.7a.931.931,0,0,0-.681-.353h-.776v-.733h4.4V13H65.84a.138.138,0,0,0-.1.241l1.474,1.724,1.517-1.776a.155.155,0,0,0-.129-.241ZM47.627,17.164h-.043a2.482,2.482,0,0,0,.733-1.853,2.585,2.585,0,0,0-.69-1.862,3.009,3.009,0,0,0-4.009,0,2.723,2.723,0,0,0,0,3.715,2.984,2.984,0,0,0,4.009,0Zm-2-5.4a5.312,5.312,0,0,1,3.742,1.25,3.077,3.077,0,0,1,1,2.3,3.2,3.2,0,0,1-1,2.31,5.527,5.527,0,0,1-3.742,1.25,5.6,5.6,0,0,1-3.724-1.25,3.077,3.077,0,0,1-1.017-2.31A3.137,3.137,0,0,1,41.9,13a5.9,5.9,0,0,1,3.727-1.24ZM1.546,22.06a.655.655,0,0,0,.276,0H1.658c0-.078-.112,0-.121,0ZM3.1,19.474v-.009c-.034.095-.207.095-.345.095H2.607c-.026.009-.474.052-.345-.086h.276a2.319,2.319,0,0,1,.562,0Zm.8.672c0-.284-.388-.069-.353-.06a2.164,2.164,0,0,0,.353.06Zm2.173.56a.4.4,0,0,1,.319-.078c.017.078-.086.078-.181.078a.379.379,0,0,0-.139,0Zm1.3,0,.017-.034c-.095-.086-.3,0-.4,0a.362.362,0,0,1-.216,0,.569.569,0,0,0-.224,0,.354.354,0,0,1,.285-.078A.25.25,0,0,1,7,20.534c.06,0,.009.078.164.06s.21.026.21.112ZM9.34,7.261V7.235a.862.862,0,0,1-.353-.129.6.6,0,0,1,.388.121.54.54,0,0,0,.25.121C9.6,7.476,9.34,7.364,9.34,7.261Zm.241,18.367c-.1,0-.276.069-.164.121C9.418,25.671,9.538,25.68,9.581,25.628Zm.362-21.3c-.026.1-.086.06-.164.06a.319.319,0,0,0-.112,0c.026-.1.086-.06.164-.06a.31.31,0,0,0,.112,0Zm.44,21.548c-.181,0-.44,0-.483.164.1,0,.483,0,.483-.162ZM10.659,2.6v.052h-.241c.026-.052.069-.052.129-.052a.241.241,0,0,0,.112,0Zm.078,23.2c-.1,0-.147,0-.164.078S10.719,25.878,10.737,25.8Zm1.6-.078c.06-.095.328,0,.319-.164-.135,0-.4.07-.316.165ZM12.7,2.339a.121.121,0,0,1-.086,0c-.043,0-.086-.052-.112,0S12.694,2.434,12.7,2.339Zm.2,23.185c.121-.1.44,0,.483-.2-.183,0-.534.114-.483.2Zm.362-1.077h-.121c-.017-.121.052-.121.121-.121a.31.31,0,0,1,0,.121Zm-.4-22.254-.026-.043h-.164a.6.6,0,0,1,.3,0,.681.681,0,0,1,.491.121C13.366,2.348,13.038,2.193,12.857,2.193ZM13.47.546h-.155c.069,0,.155,0,.155-.043Zm.56,1.638c0-.1-.25-.147-.276-.078a.155.155,0,0,1,.112.043.155.155,0,0,0,.172,0ZM13.72.632V.589c.1-.078.328,0,.483,0a.45.45,0,0,1-.25.043A.716.716,0,0,0,13.72.632Zm.56,1.353c0,.078-.1.078-.2.078a.2.2,0,0,1,.2-.077Zm.6-1.439c-.181.129-.259,0-.483,0,.034-.06.172,0,.3,0a.578.578,0,0,0,.186,0Zm.931,24.194c0-.052.078-.078,0-.164s-.16.124,0,.164Zm.638-.362c-.121.06-.224.164-.362.164a1.25,1.25,0,0,1,.681-.362c-.048.12-.212.147-.316.2ZM19.3,1.477c-.1.164-.259-.069-.4-.121.043-.043.1.009.181.052a.31.31,0,0,0,.219.069Zm.741,21L20,22.516c-.164.1-.328.19-.379.4-.009.043-.069.069-.224.215s-.276.172-.431.328a1.034,1.034,0,0,1-.241.138c-.052.034-.043.138-.138.138a1.035,1.035,0,0,1-.259.095c0-.034.069-.052.164-.112a.862.862,0,0,1,.362-.207c.026.052.216-.233.216-.233l-.06.069c.095-.172.664-.405.664-.577a1.44,1.44,0,0,1,.543-.543c-.083.108-.178.117-.178.255ZM25.824,8.588A.758.758,0,0,0,25.7,8.2c-.078-.164,0-.25-.1-.4a2.241,2.241,0,0,0,.207.793Zm.086.621a.672.672,0,0,0-.052-.379A.3.3,0,0,0,25.91,9.209Zm0,1.422-.034-.078c.034.483-.043.836-.043,1.422v-.06c-.147.009-.216.147-.147.345s-.052.431-.052.629c.112.026.112-.129.164-.172a2.215,2.215,0,0,1-.172.707.577.577,0,0,0,0,.345.229.229,0,0,0-.078.215,7.549,7.549,0,0,0-.336,1.284c.172.112.241-.517.362-.517a2.516,2.516,0,0,0-.31.862c-.259.164-.224.457-.371.758-.138-.034,0-.19,0-.241h-.052a.069.069,0,0,0-.06,0,1.189,1.189,0,0,0-.293.655c-.121-.241.138-.517.224-.733s.181-.431.285-.646a2.077,2.077,0,0,0,.241-.81c0-.267-.112,0-.19,0,0,.293-.207.457-.267.629s-.241.276-.241.491a1.077,1.077,0,0,0-.371.612c0,.052-.129.259,0,.259a.086.086,0,0,0,.06-.112c.034.233-.319.474-.319.733-.224.112-.224.422-.353.621-.121-.095,0-.379,0-.491-.112.215-.267.509-.4.75a.236.236,0,0,0-.078.2c-.147.207-.207.5-.336.7a1.724,1.724,0,0,1-.509.56c.009.129-.207.267-.207.379-.25-.043.164-.207.112-.362s.371-.336.371-.336h0c-.069-.069.448-.776.569-1.026s.578-.905.4-1.172c-.086-.086-.259.362-.259.362a.276.276,0,0,0,0,.181.129.129,0,0,0-.095.138,1.724,1.724,0,0,0-.25.353c-.216.371-.448.681-.655,1.077a.288.288,0,0,0-.052.2,1.4,1.4,0,0,0-.129-.112c0,.155-.3.422-.3.586s-.086.215-.121.224-.319.147-.078.147h.06c.06,0,.026-.129.06,0s-.164.267-.25.362c.1.138.069.138-.155.138-.112.017-.034.233-.112.31s-.241.164-.241.259c-.2.2-.388.31-.474.586-.147-.172.3-.552.431-.595-.009-.121.086-.172.138-.259s-.138-.224-.19-.086a1,1,0,0,1-.31.4c-.233.233-.6.569-.672.646s-.147.129-.224.207A7.112,7.112,0,0,1,18.385,23.2c-.259.164-.638.388-.914.526-.155.069-.259.181-.362.233s-.207.069-.285.172c-.078-.095.578-.457.638-.457a2.716,2.716,0,0,1,.431-.276.957.957,0,0,0,.448-.4c-.121-.06-.776.345-.914.414-.328.147-.578.353-.862.509a8.071,8.071,0,0,0-.94.4,4.164,4.164,0,0,1-.957.509c.043-.078.164-.069.164-.164-.147-.052-.517.138-.776.215-.034.009-.586.276-.586.181a.862.862,0,0,1,.276-.2c-.2-.069-.56.2-.785.2a.966.966,0,0,0-.44.1c-.138.095-.216.138-.31.095s-.509.172-.672.172a5.579,5.579,0,0,1-.75.233c-.043-.241.543-.259.716-.345-.181-.164-.6.06-.862.121a4.166,4.166,0,0,0-.466,0c-.181.017-.388.086-.56.086.069-.078.431-.121.56-.2s.25-.017.4-.078.241-.017.353-.129a1.052,1.052,0,0,1,.172-.138,1.905,1.905,0,0,1,.414-.2c.345-.121.707-.19,1.043-.328a1.483,1.483,0,0,0,.388-.224c.069.026-.138.164-.138.233a3.018,3.018,0,0,0,.983-.345,5.9,5.9,0,0,1,.664-.371,7.673,7.673,0,0,0,.983-.5,2.207,2.207,0,0,0,.716-.457c-.078-.06-.388.1-.5.1a.862.862,0,0,0-.319.129c-.138.06-.25.043-.3.164a1.009,1.009,0,0,1-.362.164,10.1,10.1,0,0,1-1.086.474,5.173,5.173,0,0,0-.931.3c-.353.078-.629.422-.922.388s-.371.155-.6.155a1.724,1.724,0,0,0-.457.172,4.906,4.906,0,0,0-.6.19c-.138.095-.276.017-.414.095s-.422.069-.586.155c-.172-.095-.172.069-.172.147a.216.216,0,0,1-.121-.052c-.069-.052-.155-.095-.155.06a.224.224,0,0,1-.233.121c-.086-.034,0,.095,0,.095.112.215.172,0,.319,0a.975.975,0,0,0,.267,0,.423.423,0,0,1,.336,0A1.3,1.3,0,0,1,8.7,25.8c-.078,0-.147.069-.207,0s-.181,0-.3,0a.862.862,0,0,1-.224.052,1.431,1.431,0,0,0-.56.069,1.88,1.88,0,0,1-.474.1c-.086.043-.078,0-.086,0h-.13a5.8,5.8,0,0,1-1.164.1c0-.147.724-.207.862-.207s.388.095.509,0a.216.216,0,0,1,.172,0h.147c-.026-.319-.931-.095-1.095-.095a7.951,7.951,0,0,1-1.319.06,6.9,6.9,0,0,0-.741,0H2.624l-.267.078q-.259.121-.129-.095H1.986c.06-.095.388-.078.388-.095s.147-.147,0-.147-.241-.086,0-.086a1.518,1.518,0,0,1,.422,0c-.034-.181-.31-.129-.543-.129a1.121,1.121,0,0,1-.293,0c.216-.2.034-.121-.121-.2.069-.078.293-.164.241-.164H1.848a.543.543,0,0,1-.164,0c.155-.207.491-.06.6-.319a.862.862,0,0,0-.526,0,1.345,1.345,0,0,1-.353.009.862.862,0,0,1,.362-.2.743.743,0,0,0-.2,0c-.1.017-.207.026-.207-.095a7.192,7.192,0,0,0,.931-.06,2.586,2.586,0,0,1,.388,0,2.009,2.009,0,0,0,.483,0,2.13,2.13,0,0,1,.862,0c.233.043.414-.1.621-.172a1.087,1.087,0,0,0-.6,0c.138-.172.836-.086.69-.172.026-.043-.026-.043-.078-.043-.586,0-1.2.164-1.836.164A9.618,9.618,0,0,0,.9,24.283c.052-.121.3-.043.319-.121s-.155.043-.121-.078.267-.069.241-.121-.086,0-.147,0a.2.2,0,0,1-.095,0c0-.155.345-.19,0-.241.026-.034.431-.078.233-.172a.405.405,0,0,0-.267,0,.5.5,0,0,1-.241,0c0-.069.078-.069.155-.069s.043-.009.147-.086.371-.009.293-.147l.121-.06c-.017-.043-.121-.043-.207-.043H1.219c0-.052.241-.069.121-.121a.776.776,0,0,1,.362-.078,1.535,1.535,0,0,1,.4-.164c.138-.026.052-.172.138-.181a.378.378,0,0,0,.267-.095,2.406,2.406,0,0,0-1.2-.078c-.009-.078.259-.078.414-.078h.121c.1-.129-.414-.19,0-.19a3.562,3.562,0,0,1,.388,0,2.268,2.268,0,0,0,.6-.043c-.009-.043-.138-.043-.207-.043H2.5c.224-.069,1.052-.034,1.354-.138h.259c.155.009.31.026.388-.052a9.606,9.606,0,0,0,.957-.121.423.423,0,0,1-.19.086c-.293.233,1.474.017,2.112-.1.267-.052.526-.2.862-.25s.552-.284.862-.371a.992.992,0,0,0-.733-.078,1.518,1.518,0,0,1-.474,0,.371.371,0,0,0-.276,0c.052-.086.155-.086.259-.086a.5.5,0,0,0,.138,0c.129-.026.25-.112.362-.121s.19.043.371.052.353-.052.526-.052H9.5c.448.009,1.147.009,1.31-.31a4.536,4.536,0,0,0-1.293,0,6.157,6.157,0,0,1-.785-.112c-.034,0,.086,0-.112-.052a2.225,2.225,0,0,0-.586,0H7.711c-.026-.078-.009-.078.043-.078a2.63,2.63,0,0,0,.759-.078c-.017-.1-.2,0-.276,0,0-.147-.069-.147-.181-.147a.6.6,0,0,1-.172,0c-.121-.017-.181-.034-.267.043a.224.224,0,0,1-.285,0A.535.535,0,0,0,7,20.054c-.8.032-1.6-.011-2.4-.054a.362.362,0,0,1,.285-.043.379.379,0,0,0,.276,0c-.1-.147-.3-.1-.509-.06a.6.6,0,0,1-.491,0l.19-.06.207-.06c-.155-.095-.6.06-.6-.2a.526.526,0,0,1-.259,0,.5.5,0,0,0-.276,0c-.078,0-.379.06-.448,0a4.751,4.751,0,0,0,.922-.138c.3-.043.457-.069.138-.207a7.071,7.071,0,0,1,1.043-.164.5.5,0,0,0-.276-.043.6.6,0,0,1-.164,0c.216-.147,1.017,0,1.25,0H7.314c.517.009,1.069-.138,1.586-.138h.81a.966.966,0,0,0,.362-.078.862.862,0,0,1,.241-.112c-.078-.121-.241-.069-.4-.069H8.866c-.353,0-.785.026-1.043,0a7.632,7.632,0,0,0-.759-.1.6.6,0,0,1,.4,0,.6.6,0,0,0,.414,0,2.4,2.4,0,0,1,.552,0h.216c.586,0,1.172-.06,1.767-.06h.569c.086.009.155.017.155-.043a7.381,7.381,0,0,0,1.948-.586,7.76,7.76,0,0,0,1.371-.741,1.793,1.793,0,0,0,.25-.241c.086-.095.147-.052.285-.155a4.684,4.684,0,0,0,.44-.362,6.845,6.845,0,0,1,.543-.483c.069-.052.1-.215.259-.259s.233-.336.319-.457a2.474,2.474,0,0,0,.336-.448c.19-.4.491-.776.672-1.2a2.344,2.344,0,0,0,.043-1.5,2.655,2.655,0,0,0-1.483-1.724,6.959,6.959,0,0,1-.629-.328c-.25-.129-.526-.233-.785-.353a.673.673,0,0,0-.388-.06,1.957,1.957,0,0,0-.431-.19c-.259-.1-.629-.2-.785-.259s-.285-.181-.44-.233c-.353-.129-.819-.181-1.216-.319a6.276,6.276,0,0,0-.655-.293,5.079,5.079,0,0,1-.647-.259l.052-.052v-.05a.216.216,0,0,1,.1,0c-.112-.078-.052-.112,0-.164-.086-.164-.285-.078-.4-.164.052-.052.129,0,.207,0a.276.276,0,0,0,.155,0c-.1-.147-.293-.172-.44-.241.017-.052.06-.052.112-.052h.086a4.006,4.006,0,0,0-.4-.2h.2c-.078-.138-.259-.129-.362-.241a7.347,7.347,0,0,1,1.121.241.328.328,0,0,0-.241-.078c.44-.345-.664-.371-.6-.577a.83.83,0,0,1,.155,0c.095.009.233-.043.172-.078s-.672-.31-.414-.31c-.164-.078-.328-.155-.483-.241.138-.155.336,0,.483,0-.017-.129-.2-.121-.2-.241A.862.862,0,0,1,10,5.6a1.1,1.1,0,0,0,.448.086c-.06-.155-.4-.129-.716-.319s.052-.19.147-.19h.164a.1.1,0,0,0-.112-.052c.112-.095.328.078.44.078.009-.164.276-.017.4,0s.129,0,.129-.052.043-.052.112-.052a1.1,1.1,0,0,0,.3,0c.172-.026-.422-.129-.759-.276.138-.095.388.078.56.078-.009-.138-.371-.25-.69-.328a1.656,1.656,0,0,0-.466-.112c.086-.121.233-.06.379,0a.767.767,0,0,0,.267.078c-.147-.121-.345-.155-.483-.276a2.251,2.251,0,0,1,.621.086.215.215,0,0,0-.147-.129c.285-.034.56.224.767.233s.379.129.6.129c-.138-.078-.121-.172,0-.078.1-.086-.233-.2-.276-.2a.2.2,0,0,1,.2-.078,1.017,1.017,0,0,0-.457-.25c-.147-.034-.2-.19-.345-.19.086-.069.267.034.336.078a.155.155,0,0,0,.121,0,.172.172,0,0,1,.129,0,3.122,3.122,0,0,0,.5.06c-.009.009-.371-.259-.371-.259a.078.078,0,0,1,.078,0c-.034-.138-.285-.06-.285-.138a8.054,8.054,0,0,0,.862.1c0-.284-.94-.155-.862-.4a.259.259,0,0,1,.129,0,.241.241,0,0,0,.147,0,2.673,2.673,0,0,0-.638-.241c.009-.1.164,0,.164,0-.086-.164-.517-.19-.517-.319.207-.112.474.138.56.164s.638.138.621.086-.319-.086-.19-.181a.164.164,0,0,1,.147,0c.069.043.129.069.181,0-.25-.086-.509-.147-.759-.241.25-.052.414.078.638.078a.94.94,0,0,0,.224,0,.673.673,0,0,1,.3,0,.266.266,0,0,0,.3-.044c.06-.069.017-.3.181-.121a.983.983,0,0,0,.612,0c.06-.043.233.1.233.155a.586.586,0,0,1,.4-.078c.052-.078-.095-.034-.078-.078s.069-.043.112-.043.1,0,.043-.112h.276c-.06-.2-.336-.2-.483-.2a1.466,1.466,0,0,1,.5,0,2.69,2.69,0,0,0,.345.1c.112-.078.052-.06.216,0a.121.121,0,0,0,.155,0,.129.129,0,0,1,.129,0,1.906,1.906,0,0,0-.7-.259c-.078-.009-.638.026-.5-.138a2.019,2.019,0,0,0-.4-.078c.138-.2-.483-.267-.629-.267a5.251,5.251,0,0,1-.681-.19.31.31,0,0,1,.112,0,.379.379,0,0,0,.147,0,.335.335,0,0,1,.285.069,3.587,3.587,0,0,0,.81.155c-.19-.086-.371-.172-.56-.241a.8.8,0,0,1,.405.06.793.793,0,0,0,.3.147.923.923,0,0,0,.371,0c-.086-.121-.319-.086-.319-.276.121,0,.241.06.362,0-.043-.138-.759-.1-.716-.241a8.407,8.407,0,0,1,.871.259c.267.052.414-.078.681-.078A.138.138,0,0,1,15.3.939h.155A.474.474,0,0,0,15.789.9a1.009,1.009,0,0,0-.681-.164.374.374,0,0,1,.25-.052.431.431,0,0,0,.155,0c-.017-.2-.2-.2-.319-.2.121-.086.25-.009.353.1s.2.172.276.1a.129.129,0,0,0,0-.06c0-.026.259.052.241.052s.009.043-.06,0-.078-.043-.069,0,.052.043.1.043h0c-.034,0-.009-.086-.1,0s.009.164-.164.164c.086.19.388,0,.44,0s.25,0,.293.06a.3.3,0,0,1-.224,0H16.22c.034.121.172.052.241.121s.034.034.121-.043.259.043.353.043a1.316,1.316,0,0,1,0-.276H17c.052,0,.052,0,.052-.06a.207.207,0,0,1,0-.121c.147-.155,0,.3,0,.3-.009.147.164.121.241.2,0-.1-.112-.129,0-.2a.078.078,0,0,0-.078,0c0,.06.121.043.121,0V.865c.1-.017.172,0,.181.078s-.034.078-.147.078c.078.1-.017.241,0,.284s.172.112.181,0,.078-.147.078-.172.052-.069,0-.138c.207,0,.181.259.25.388a.181.181,0,0,0,.19.086c.112-.043,0-.172,0-.241.06.069.2.017.2.164.1-.043.147-.017.2.078.224-.207.362.121.517.319.172-.034.095-.1.241.078a.655.655,0,0,1,.44.2c.034-.078.138-.078.241-.078-.086-.19-.31-.241-.44-.4.121-.026.259.1.353.155a.6.6,0,0,1,.276.3c.164.172.086-.069.164-.069a1.026,1.026,0,0,1,.267.164,1.6,1.6,0,0,1,.371.25,1.086,1.086,0,0,0,.276.215,1.724,1.724,0,0,1,.422.276,3.319,3.319,0,0,0,.345.25c-.017.052-.026.034-.147,0s-.164-.06-.121.086.345.078.466.147.19.319.293.31.1.043.1.1-.052.009,0,.1.2.069.259.1.078.043,0,.147a1.216,1.216,0,0,1,.431.336,4.594,4.594,0,0,1,.535.629c.293.155.5.552.655.672a.858.858,0,0,1,.293.405c0,.069.129.129,0,.147s-.276-.267-.276-.379a.664.664,0,0,0-.241-.284c-.129-.095-.095-.129-.19-.233a3.9,3.9,0,0,0-.862-.862c-.164-.026.138.1.1.241s.052.034.138.138.06.172.172.259.371.215.319.215h-.052a.06.06,0,0,0-.069,0c-.164.147.336.181.276.328s-.009.147.069.147h.086c.017.069-.06-.017-.086.069s.052.121.164.233.147.379.31.379c.026.224.2.353.276.552.19.6.25.6.319.6.25-.138-.121-.5-.121-.681a3.447,3.447,0,0,1,.336.81,2.344,2.344,0,0,1,.147.509,1.915,1.915,0,0,1,.112.422c.078.319.1.638.164.965a3.79,3.79,0,0,0,.112.543,1.189,1.189,0,0,1,.006.361Zm.164-.078A.534.534,0,0,0,26,10.234a.405.405,0,0,0,.074.319Zm0,.862c0-.164.078-.414,0-.517,0,.181-.147.439,0,.517ZM3.141,23.292a2.233,2.233,0,0,0-.517.078H2.71C2.865,23.387,3.141,23.4,3.141,23.292Zm.56,0H3.676a1.725,1.725,0,0,0,.862-.155c-.095-.086-.466.1-.621.043s-.345.06-.217.112Zm1.974.681v-.034a4.412,4.412,0,0,1-.595,0c-.155-.026-.345.069-.3.086s.241.026.138.121c.129.043.836.008.758-.173Zm5.569-.112L11.2,23.9a5.018,5.018,0,0,1-.931.345c-.121.026-.345-.009-.414.1a.207.207,0,0,1-.207.112,1.725,1.725,0,0,0-.7.181c-.1.034-.241.026-.319.112a.543.543,0,0,0-.379,0,1.57,1.57,0,0,1-.4,0,1.354,1.354,0,0,0-.45.05.483.483,0,0,0-.181.043.526.526,0,0,1-.3,0,4.432,4.432,0,0,0-1.345.345A10.158,10.158,0,0,0,6.6,25.145c.017.043-.069.155-.069.155.224.112.836-.112,1.086-.112l.862-.164a2.293,2.293,0,0,0,.431-.112c.181-.069.491-.086.56-.121s.31-.069.328-.164.043-.155.147-.155a.776.776,0,0,1,.267,0,.526.526,0,0,0,.362-.06c.1-.017.009-.069,0-.147s.216-.1.276-.129.457-.276.457-.276Zm3.957.431-.009.017c-.241.129-.672.147-.759.319a.466.466,0,0,0,.25,0,.379.379,0,0,1,.353-.095c-.006-.086.33-.241.164-.241Zm1.655-.888v-.017l-.129.06c-.06.026-.94.431-.655.569a7.147,7.147,0,0,0,1.362-.862ZM21.1,20.7c0,.069-.233.2,0,.2,0-.085.165-.146,0-.2Z" transform="translate(-0.822 -0.449)"/></g></g></svg>